<svg xmlns="http://www.w3.org/2000/svg" xmlns:xlink="http://www.w3.org/1999/xlink" viewBox="0 0 1166.33 544.83"><defs><style>.cls-1{fill:none;}.cls-2{fill:#d4d8d5;}.cls-3{fill:#1f2937;}.cls-4{fill:#ed975d;}.cls-5{fill:#308d62;}.cls-6{fill:#274241;}.cls-7{fill:#ffb27d;}.cls-8{fill:#2e3e51;}.cls-9{fill:#2e3552;}.cls-10{fill:#a8d29f;}.cls-11{fill:#f1a34f;}.cls-12{fill:#ffb973;}.cls-13{fill:#d86713;}.cls-14{fill:#d39e7a;}.cls-15{fill:#e0b594;}.cls-16{clip-path:url(#clip-path);}.cls-17{fill:#6bb7bf;}.cls-18{fill:#ddebfd;}.cls-19{fill:#739af0;}.cls-20{fill:#a8c3f7;}.cls-21{fill:#ffb93e;}.cls-22{fill:#ffa412;}.cls-23{fill:#e2810e;}</style><clipPath id="clip-path"><path class="cls-1" d="M710.69,368.47c-65.53,60.27-147.05,60.15-230,26.74h0c-48.53-19.55-99.87-53.47-127.77-97.18-37.74-58.32-24.58-108.49,4.53-171.23C396.08,43.46,458.6-5.94,550.63,4.25c118.07,13.08,192.61,99,213,213C773.92,274.72,752.24,330.27,710.69,368.47Z"/></clipPath></defs><g id="Layer_2" data-name="Layer 2"><g id="Layer_1-2" data-name="Layer 1"><path class="cls-2" d="M710.69,368.47c-65.53,60.27-147.05,60.15-230,26.74h0c-48.53-19.55-99.87-53.47-127.77-97.18-37.74-58.32-24.58-108.49,4.53-171.23C396.08,43.46,458.6-5.94,550.63,4.25c118.07,13.08,192.61,99,213,213C773.92,274.72,752.24,330.27,710.69,368.47Z"/><path class="cls-2" d="M19.63,542S-52.55,298.31,79.91,224.5,292.22,268.45,338.8,329.92s247.77,183.16,369.77,68.71c128.54-120.57,192.3-154.79,284-157.7s53.86,95.58,131,133.67,39.71,160.21-31.82,169Z"/><path class="cls-3" d="M870.24,516.12s-1.55,25.1-6.41,25.46c-.64,0-24.62,0-24.62,0l-30.62-.18s.2-7.38,9.15-8.94,23.93-7.84,29.35-19.67C852.79,500.4,870.24,516.12,870.24,516.12Z"/><path class="cls-4" d="M886.58,219.33s-14.45,8.22-18.5,8.21-19.92-3.06-24.35-.8-12.44,11.36-13.94,14.33c-2.7,5.35,10.88,3,17.3-1.57a4.08,4.08,0,0,1,3.21-.66c3.33.73,10.24,2,13.57.75,4.49-1.66,28.12-3.51,28.12-3.51Z"/><path class="cls-3" d="M996.53,107.41s-15,106.47-39.79,116c-12.24,4.71-66.33,15.37-82.33,16.45,0,0-3.92-3.18-3-16.13,0,0,56.68-20.81,64.73-32.12,12-16.84-7.44-68.8,7.59-84.62S984.13,84.39,996.53,107.41Z"/><path class="cls-5" d="M991.48,331.73a187.08,187.08,0,0,1-14.63,20.94c-16.1,20.33-33.63,37.09-36.68,52.93a73.73,73.73,0,0,1-2.83,10.14c-1.28,3.63-2.86,7.44-4.68,11.39-6.83,14.84-17,31.47-27.25,46.59-17.63,26.13-32.07,43.66-32.07,43.66s-4.62,3.61-17.85,3.6c-3.68,0-16.07-2-16.07-2,1.22-3.05,15.84-37.74,33.59-81.84,7.2-17.9,14.87-36.94,22.26-55.3,1-2.45,2-4.89,2.94-7.32L904.87,358,934.8,283.6s66.59-25.22,73.51-8.88C1014,288.2,1009.37,301.41,991.48,331.73Z"/><path class="cls-3" d="M940.66,444.43s21.16,13.59,19.11,18c-.28.58-12,21.52-12,21.52L932.73,510.6s-6.35-3.77-3.35-12.34,4.81-24.72-2.87-35.21C918.43,452,940.66,444.43,940.66,444.43Z"/><path class="cls-5" d="M928.65,470.49s14.89-13.83,17.22-22.38c0,0-54.48-65.27-66.29-79.9-.55-.67-.41-1.41.31-2.22,8.92-10.06,108-30.5,121-50.66a62.63,62.63,0,0,0,8.37-19.3c2.94-12.29.61-20.79.61-20.79l-99-2.86s-82.42,51.32-91.75,86.31S928.65,470.49,928.65,470.49Z"/><path class="cls-6" d="M879.89,366c8.92-10.06,108-30.5,121-50.66a62.63,62.63,0,0,0,8.37-19.3V283.51l-42.07-6.62s-11.93,36.71-47.27,50.48C886.82,340.26,880.55,363.14,879.89,366Z"/><path class="cls-7" d="M938,100.7c20,5.18,53.23-13.38,53.23-13.38s-12.9-8.66-17.67-27.69c-.25-1-.46-1.94-.66-3L962.58,54.5l-15.3,13.7a132.23,132.23,0,0,0,2.26,15.47c.34,1.71.72,3.54,1.16,5.49A47.17,47.17,0,0,0,938,100.7Z"/><path class="cls-8" d="M1010.89,182.2c-2.87,38.58.9,97.25-2.35,107.42-2.81,8.76-34.81,3.55-47.58.62-4.73-1.08-10.45-2.63-16.37-4.46-16.49-5.1-34.46-12.4-36.39-17.81a3.9,3.9,0,0,1-.18-.62,5,5,0,0,1,0-2.27c.65-2.76,3.12-5.75,3.42-12.58.32-7.63.27-16.62.56-26.28,0-1.09,0-2.27.15-3.36v-.39c0-.21,0-.41,0-.62.27-10.77.84-22.1,1.49-33.34.42-7,.9-14,1.45-20.73,1.44-17.29,3.38-32.65,5.94-42.37,4.2-15.84,13.44-26.17,21.86-33.74L949,86.45a35.21,35.21,0,0,0,22.08-2.94c7.86-3.73,10.58-6.41,11.95-5.4C1001.22,92.12,1014.27,135,1010.89,182.2Z"/><path class="cls-3" d="M946.09,287.28c-16.49-5.1-34.46-12.4-36.39-17.81a3.9,3.9,0,0,1-.18-.62l0-2.27c.65-2.76,3.12-5.75,3.42-12.58.32-7.63.27-16.62.56-26.28,0-1.09,0-2.27.15-3.36V224c0-.21,0-.41,0-.62l66.68-85S1025.21,231.74,946.09,287.28Z"/><path class="cls-4" d="M947.28,68.2a132.23,132.23,0,0,0,2.26,15.47c14.94-4.83,21.72-18.32,24-24-.25-1-.46-1.94-.66-3L962.58,54.5Z"/><path class="cls-7" d="M945.27,76.82s32.58-5.43,28.88-25.66-2-34.57-22.94-31.95-23.57,11.07-24,18.13S936.71,77.72,945.27,76.82Z"/><polygon class="cls-5" points="897.05 244.13 815.74 245.87 792.62 174.72 789.75 175.66 814.19 250.87 897.16 249.1 897.05 244.13"/><path class="cls-7" d="M895.5,253.06s-26.66,7-36.66,6.29-18.31-5.49-19.57-8-3.9-6.89,2.91-6.08,16.09,2.26,16.38,1-5.55-1.19-5.55-1.19-1.76-2.56.46-2.66,8.7-1.85,11.11-.64,4.63,5.64,6.39,5.46S893.28,238,893.28,238Z"/><path class="cls-8" d="M988.42,110.28S985.27,217.76,961.66,230c-11.64,6-64.23,22.59-80,25.42,0,0-4.24-2.73-4.72-15.7,0,0,54-26.93,60.79-39.06,10-18.06-15-67.56-1.78-84.94S973.55,88.77,988.42,110.28Z"/><path class="cls-8" d="M973.52,59.63s.37-6.94-3.91-10.92c0,0,1.49-7-1.26-8.11s-3.33,4.71-4.59,3.79-6.89-5.28-9.3-11.7S930,34,927.44,35.2,916.61,32.11,915,28.67a48.18,48.18,0,0,0,6.65-6.42c2.07-2.76,16.52-21.34,36.71-16.06s22.95,14.91,21.8,23.17S981.79,56.86,973.52,59.63Z"/><path class="cls-9" d="M20.79,544.83a1.52,1.52,0,0,1-1.43-1.6h0a1.52,1.52,0,0,1,1.43-1.6H1095.93a1.52,1.52,0,0,1,1.43,1.6h0a1.52,1.52,0,0,1-1.43,1.6"/><path class="cls-5" d="M357,460.5s-13-15.19-.8-24.84c0,0,8.93-5.4,16.2-5,0,0-10.31,17.29-7,19s10.1-20.1,10.1-20.1,20.3-2,26.84,1.17c0,0-17.36,14.21-13.71,15.06S411,432.74,411,432.74s18.9,3.22,17.89,14.74-7.52,15.1-10.38,14.79-19.6-6.7-20-4.35,9.71,10,16.77,10.36c0,0-13.32,14.7-22.18,10.46s-9.61-11-15.13-13.49-10.24-2.51-8,.06,12.28,5.07,15.43,10.66,6,9.35-3.17,8-24.06-8.09-24.71-15.76Z"/><path class="cls-5" d="M419.63,447.8s-51.34-2-62.68,12.7a37.05,37.05,0,0,1-10.22,14.35l-1.2,3.27s8.89-9.38,12.08-9.94C357.61,468.18,352.63,450,419.63,447.8Z"/><path class="cls-5" d="M346.73,474.85s-11,8.15-11.78,22.71l2,.17s3.52-15.05,9.88-20.94S346.73,474.85,346.73,474.85Z"/><path class="cls-10" d="M311.43,441.4s20.71-11.6,11.05-27.34c0,0-7.73-9.67-16-12.15,0,0,4.42,23.47,0,24s-3-26.51-3-26.51-21.81-10.49-30.37-9.66c0,0,13.53,22.92,9.11,22.36s-19.61-23.75-19.61-23.75-22.37-4.14-26,9.12,2.21,19.88,5.53,20.71,24.57.55,24,3.31-14.91,7.18-22.92,4.7c0,0,8.84,21.81,20.44,20.71s15.18-8.29,22.37-8.84,12.42,1.38,8.83,3.32-15.74.63-21.54,5.56-10.49,8,.28,10.18,30.1.83,34-7.46Z"/><path class="cls-5" d="M246.81,401.63s58,18.78,64.62,39.77A44.17,44.17,0,0,0,317,461.56v4.14s-6.07-14.09-9.39-16C307.56,449.68,320.54,431.45,246.81,401.63Z"/><path class="cls-5" d="M317,461.56s8.95,13.58,3.85,30.11l-2.3-.62s2.23-18.21-2.45-27.37S317,461.56,317,461.56Z"/><path class="cls-10" d="M344.38,425.4s-27.3-15.29-14.56-36c0,0,10.19-12.74,21.11-16,0,0-5.82,30.94,0,31.67s4-34.95,4-34.95,28.76-13.83,40-12.74c0,0-17.84,30.21-12,29.48s25.84-31.3,25.84-31.3,29.49-5.46,34.22,12-2.91,26.21-7.28,27.3-32.4.73-31.67,4.37,19.66,9.47,30.22,6.19c0,0-11.65,28.76-26.94,27.3s-20-10.92-29.49-11.65-16.38,1.82-11.65,4.37,20.75.84,28.4,7.33,13.83,10.51-.37,13.42-39.68,1.09-44.77-9.83Z"/><path class="cls-5" d="M429.56,373s-76.44,24.75-85.18,52.42c0,0,.37,12.38-7.28,26.57v5.46s8-18.56,12.38-21.11C349.48,436.32,332.37,412.3,429.56,373Z"/><path class="cls-5" d="M337.1,452s-11.79,17.91-5.07,39.7l3-.82s-2.95-24,3.22-36.07S337.1,452,337.1,452Z"/><path class="cls-11" d="M343.46,538.93a53.48,53.48,0,0,0,53.48-53.48H290A53.49,53.49,0,0,0,343.46,538.93Z"/><path class="cls-12" d="M356.62,538.52a53.51,53.51,0,0,1-60.12-53.07h13.29A53.49,53.49,0,0,0,356.62,538.52Z"/><path class="cls-11" d="M397.68,541.65H289.24a6.6,6.6,0,0,1,6.6-6.6h95.24a6.59,6.59,0,0,1,6.6,6.6Z"/><rect class="cls-13" x="288.22" y="485.45" width="109.93" height="1.64"/><path class="cls-14" d="M1072,538.74c-12.72-13-35.13-21.94-61-23v-43h40c1,0,1.88-.87,2.44-2.2a8.78,8.78,0,0,0,.62-3.35v-1.94c0-3.05-1.37-5.55-3.06-5.55h-40V357.4a5.16,5.16,0,0,0-5.14-5.14h0a5.16,5.16,0,0,0-5.14,5.14V459.74h-40c-1.69,0-3.07,2.5-3.07,5.55v1.94a8.61,8.61,0,0,0,.67,3.44c.56,1.28,1.43,2.11,2.4,2.11h40v43c-25.89,1.06-48.3,10-61,23-.92.94-1.79,1.9-2.61,2.89h137.54C1073.84,540.64,1073,539.68,1072,538.74Z"/><path class="cls-15" d="M1011,515.93c-18.06,1.68-33.59,10.4-42.57,22.81-.69.94-1.33,1.9-1.94,2.89H953.8c.6-1,1.25-2,1.93-2.89,10-13.85,28.19-23.1,48.93-23.1Q1007.9,515.64,1011,515.93Z"/><rect class="cls-3" x="929.84" y="317.86" width="148.53" height="38.15" rx="6.17"/><g id="man"><path class="cls-7" d="M318.29,121.48c-2.28,6.15-6.24,13.27-10.4,15a16.05,16.05,0,0,0-6.67,4.85l-3.81-2.21-4.54-2.64s.11-.5.33-1.32.56-2,1-3.22a4.37,4.37,0,0,0,.54-4,9.38,9.38,0,0,1,.78-7.84c1.45-2.12,2.86-7.34,3.74-7.18,2.12.36-1,7.53-.14,8.86a1.56,1.56,0,0,0,2,.7l0,0c6-2.62,13.19-16.74,16.39-14.84C318.8,108.34,319.26,118.87,318.29,121.48Z"/><path class="cls-5" d="M297.67,130l7.47,5.24a1.17,1.17,0,0,0,1.63-.28l19.12-27.21a1.17,1.17,0,0,0-.28-1.64l-7.47-5.24a1.18,1.18,0,0,0-1.63.28L297.39,128.4A1.19,1.19,0,0,0,297.67,130Z"/><path class="cls-5" d="M304.51,134.84l4.37,3.08a.91.91,0,0,0,1.25-.22L329.57,110a.89.89,0,0,0-.21-1.24L325,105.71a.9.9,0,0,0-1.24.22L304.29,133.6A.9.9,0,0,0,304.51,134.84Z"/><path class="cls-5" d="M190.58,91s38,66.26,51.76,78.45l50.53-37.68a18.45,18.45,0,0,1,10.55,9.61s-30.69,62.52-60.9,65.17-72.62-74.93-72.62-74.93Z"/><path class="cls-5" d="M104.61,541.63h-22c-2.76-1.51-5.22-4.94-6-10.06-1.07-7.07-9-10.93-10.71-16.71S73,500.94,73,500.94l1.47-1.9,1.53-2,14.57,3.43s.36,3.47.58,7.89c.15,3.19.24,6.87.06,10.1-.43,7.71,2.15,16,9,17.52C105.3,537.13,105.08,540.13,104.61,541.63Z"/><path class="cls-5" d="M232,541.63H181.8c-2.42-3-1.53-13.82-1.16-17.37.07-.72.12-1.13.12-1.13s17.15-13.71,19.5-3.21c.07.33.16.65.25,1,3,9.82,16.27,14.29,24,15.53C229.46,537.22,231.31,539.82,232,541.63Z"/><path class="cls-8" d="M220.93,260s-2.61,32.47-5.66,71.51c-4.16,53-9.16,118.15-9.66,130.49-.85,21.42-4.28,55.69-4.28,55.69s-8.14,8.14-24.42,4.71c0,0-14.51-48.92-18.66-100.68-.06-.85-.13-1.71-.19-2.56-3.86-52.7-9.85-163.66-9.85-163.66Z"/><path class="cls-3" d="M220.43,260.45s-2.61,32.47-5.66,71.51l-57,90.21c-.06-.85-.13-1.71-.19-2.56C153.7,366.91,147.71,256,147.71,256Z"/><path class="cls-8" d="M209,263.81s-46.91,117.6-77.76,172.86S90.8,507.36,90.8,507.36s-17.67-7.07-19.28-11.89c0,0,11.8-106.69,32.45-132.7,11.67-14.7,25.39-58.8,26-74.22s4.18-46,4.18-46Z"/><path class="cls-7" d="M198.86,93.87C180.53,99.65,148.81,84,148.81,84s16.9-12.68,16-39.06L179,56.41l9.63,7.75a115.59,115.59,0,0,1-1.09,12.59c-.28,2.11-.62,4.46-1.06,7A43.8,43.8,0,0,1,198.86,93.87Z"/><path class="cls-4" d="M188.63,64.16a115.59,115.59,0,0,1-1.09,12.59c-10.67-1.83-22.77-19.07-22.77-19.07A33.87,33.87,0,0,1,179,56.41Z"/><path class="cls-7" d="M194.24,63.73s-30.28,5-33.12-13.88-8.67-31,10.54-35,24.07,2.63,26.55,8.71S202,61.93,194.24,63.73Z"/><path class="cls-5" d="M224.45,264.16a3,3,0,0,1-1.93.73c-6.88-.09-27,3.73-43.94,2-14.32-1.38-27-5.62-40.6-11.72-1.81-.81-6-3-5.88-5,.06-2.22.28-5.42.56-9.46,1-14.05,2.64-38.22,1-66.09-.29-5.19-.45-10.34-.47-15.41-.13-37.79,7.36-71,22.41-82.26,1.29-.93,9.18,2.93,16.43,6.51a30,30,0,0,0,19.74,2.39l6.33,5.6c7.71,7.16,16.16,16.89,19.83,31.67,3.12,12.57,5,35.25,6,58.75.46,10.65.83,21.39.92,31.58v.37c.09,1,.09,2.11.09,3.12C225.28,243,224.91,263.79,224.45,264.16Z"/><path class="cls-5" d="M132.66,240.65c1-14.05,2.64-38.22,1-66.09-.29-5.19-.45-10.34-.47-15.41,6.28-15.22,11.4-26.25,11.4-26.25H160.4S172,212.06,132.66,240.65Z"/><path class="cls-5" d="M127.81,278.84l-67.41-9.6a16.16,16.16,0,0,0-18.23,13.68L38,312.13a16.16,16.16,0,0,0,13.68,18.23L119.1,340a16.16,16.16,0,0,0,18.23-13.68l4.16-29.21A16.16,16.16,0,0,0,127.81,278.84Z"/><path class="cls-5" d="M131.62,287.55h0a16.23,16.23,0,0,0-11.17-9.76h0a15.17,15.17,0,0,0-1.55-.3l-13.43-1.91.9-6.31a5.33,5.33,0,0,0-4.53-6l-3.5-.5-14.1-2-2.54-.36a5.33,5.33,0,0,0-6,4.53l-.9,6.3-23.17-3.3a16.21,16.21,0,0,0-18.29,13.73l-4.21,29.55a16.22,16.22,0,0,0,13.73,18.3l67.29,9.59a15.94,15.94,0,0,0,3.51.11h0a15.86,15.86,0,0,0,5.25-1.33,16.2,16.2,0,0,0,9.53-12.51l4.21-29.56A16.06,16.06,0,0,0,131.62,287.55ZM79,265.37a2,2,0,0,1,2.26-1.69l3,.42,11.09,1.59,6,.86A2,2,0,0,1,103,268.8l-.9,6.31-24.08-3.44Z"/><path class="cls-7" d="M99.2,251.07c0-.36,0-.72.07-1.1.14-1.89,3.68-6.6,3.68-6.6l-8.87-4.61-3.52,5.81c-5.31,4.22-5.4,4.3-4.44,12.38.84,7-3.74,7.1-3.63,12.1s6.56,2.55,6.56,2.55c10-4.69,10.82-7.06,10.51-11.82,1,1.35,2,2.13,2.91,1.55s-.79-2.57-1.48-7.32A8.51,8.51,0,0,0,99.2,251.07Z"/><path class="cls-5" d="M94,247a51.76,51.76,0,0,0,11.86.66s16.9-52.2,19.08-57,50.19-61.21,50.19-61.21l-20-50.06s-51.94,86.75-57.22,98.94c-8.71,20.15-11.74,65.31-11.74,65.31A21.76,21.76,0,0,0,94,247Z"/><path class="cls-3" d="M161.09,48s3.11-.51,2.61-4.79-.5-9.88,3-8.84,3.66,3.83,5.09,2.21,1.45-8.49,11.8-9,14.57,3.12,19.38,1S208,19.25,208,19.25a8.3,8.3,0,0,1-3.44,3.43s8-11-1.26-18.52-18.79-2.6-24.17-2.27c-11.86.71-19.52,1.42-23.39,9.22S153.48,40.53,161.09,48Z"/></g><g class="cls-16"><path class="cls-4" d="M590.92,252.46s-30.64-6.16-35.76-5.68-22.85,8.46-23,9.92.68,2.62,3.78,2.75,13.27-1.45,12.66-.2-29.84,7.8-30,13.72,16.21,16.48,29.83,16.86,39.94-16.12,42.22-16.38C610,271.25,590.92,252.46,590.92,252.46Z"/><path class="cls-3" d="M757.28,185.37c-12,14.9-21.95,26.46-27.21,30.66a118.94,118.94,0,0,1-15.53,10.18c-43.68,24.65-127.7,49.66-127.7,49.66l-.17-.12a36.74,36.74,0,0,1-10.49-12.6c-3.19-6.48-2.54-10.49-1.59-12.59a5.41,5.41,0,0,1,1.27-1.86s100.68-64.35,108.73-71c4.57-3.8,21.1-42.3,34.57-74.94q2.83,4.1,5.48,8.32A284.89,284.89,0,0,1,757.28,185.37Z"/><path class="cls-17" d="M758,299.31q-.94,2.7-2,5.37a168.8,168.8,0,0,1-11.76,24.1h0q-4.07,6.89-8.76,13.39a178.6,178.6,0,0,1-24,27l.15-2c.07-1,.15-2.07.22-3.09q.24-3.4.47-6.68c.07-.85.13-1.69.19-2.52q.57-8.11,1.09-15.34c.1-1.38.19-2.74.29-4.07,0-.39,0-.79.08-1.18.06-.78.11-1.56.17-2.32s.1-1.38.14-2.05c0-.08,0-.14,0-.21,0-.69.09-1.37.14-2q.12-1.7.24-3.33c0-.68.09-1.35.14-2q.11-1.54.21-3c0-.24,0-.47,0-.71,0-.46.07-.93.1-1.38,0-.23,0-.45,0-.67v-.09c.07-.87.13-1.72.19-2.55v-.13c0-.6.09-1.19.13-1.76,0-.2,0-.39,0-.58s.05-.65.07-1,0-.52,0-.78c.13-1.8.25-3.44.35-4.92,0-.21,0-.42,0-.62s0-.42,0-.62c0-.39,0-.76.08-1.12.18-2.61.32-4.51.39-5.62,0-.12,0-.22,0-.32a.38.38,0,0,1,0-.1c0-.1,0-.19,0-.27l0-.48Z"/><path class="cls-5" d="M758.12,297.31q-.95,2.7-2,5.37a166.7,166.7,0,0,1-11.76,24.1h0q-4.05,6.89-8.76,13.39a178.53,178.53,0,0,1-24,27l.15-2q.1-1.56.21-3.09.25-3.4.48-6.68.09-1.27.18-2.52.58-8.11,1.09-15.34c.1-1.38.2-2.74.29-4.07,0-.39.06-.79.08-1.18.06-.78.12-1.56.17-2.32s.1-1.38.15-2.05c0-.08,0-.14,0-.21l.15-2c.08-1.13.16-2.24.23-3.33.05-.68.1-1.35.15-2q.11-1.54.21-3c0-.24,0-.47,0-.71,0-.46.07-.93.1-1.38,0-.23,0-.45.05-.67v-.09q.09-1.31.18-2.55a.53.53,0,0,0,0-.13c0-.6.09-1.19.13-1.76,0-.2,0-.39,0-.58l.06-1,.06-.78c.13-1.8.24-3.44.35-4.92,0-.21,0-.42,0-.62s0-.42,0-.62c0-.39.06-.76.08-1.12.19-2.61.32-4.51.4-5.62,0-.12,0-.22,0-.32a.31.31,0,0,0,0-.1c0-.1,0-.19,0-.27l0-.48Z"/><path class="cls-8" d="M764.11,215.8a160.33,160.33,0,0,1-6.65,82q-.94,2.7-2,5.37a168.8,168.8,0,0,1-11.76,24.1h0q-4.07,6.89-8.76,13.39c-9-1.3-16.28-2.36-20.78-2.47A5.81,5.81,0,0,1,713,338a5.91,5.91,0,0,1-2.67-1.44c-.89-.78,0-42.25,2.69-94.48.08-2,.16-4.23.42-6.23l0-.74q.25-5.18.54-10.44c.11-2,.23-4.06.35-6.11.85-13.93,1.89-28.18,3-42.39l.33-4.08c1.79-21.87,3.9-43.37,6.39-62.6a284.89,284.89,0,0,1,32.64,74.34Q761.19,199.46,764.11,215.8Z"/><path class="cls-5" d="M388.67,294.47c-.5-14.63-1.24-32-2.23-50.85-.07-2-.16-4.23-.42-6.23l0-.74c-.08-1.67-.16-3.34-.24-5l-.15-2.86q-.23-4.29-.5-8.66c-.84-13.93-1.89-28.18-3-42.39-.12-1.36-.22-2.72-.33-4.08-1.66-20.26-3.59-40.2-5.85-58.32h0c0-.11,0-.21,0-.31-.28-2.27-.58-4.53-.87-6.75-.59-4.46-1.21-8.8-1.84-13-.88,1.42-1.74,2.87-2.58,4.32-5,8.53-9.64,17.5-14,26.83A429.34,429.34,0,0,0,334,187.7l-.12.41a134,134,0,0,0-4.27,21h0c-.13,1-.23,2-.33,2.94h0c-3,31.17,5.88,60.34,22.74,86.4.58.9,1.17,1.8,1.77,2.69q1.79,2.65,3.69,5.27c.89,1.23,1.81,2.46,2.74,3.67.19.26.39.51.59.77a213.81,213.81,0,0,0,21.63,23.89c1.28,1.22,2.58,2.44,3.9,3.64l1,.9a6.73,6.73,0,0,0,1.77-1.15C389.7,337.6,389.56,320.44,388.67,294.47Z"/><path class="cls-5" d="M388.67,294.47c-23.49-24.62-43.06-54.82-59-85.4h0a134,134,0,0,1,4.27-21l.12-.41a429.34,429.34,0,0,1,22.57-61.28C371,147,381.12,166,381.75,173.63c.11,1.36.21,2.72.33,4.08,1.13,14.21,2.18,28.46,3,42.39q.27,4.36.5,8.66l.15,2.86c.08,1.69.16,3.36.24,5l0,.74c.26,2,.35,4.21.42,6.23C387.43,262.43,388.17,279.84,388.67,294.47Z"/><path class="cls-7" d="M495.33,255.3s31.25,0,36.17,1.53,20.73,12.81,20.63,14.28-1.18,2.44-4.25,1.95-12.72-4.06-12.36-2.71,27.69,13.56,26.69,19.4-19.16,12.94-32.58,10.62-35.95-23.72-38.14-24.43C472.92,269.93,495.33,255.3,495.33,255.3Z"/><path class="cls-5" d="M501,266a36.84,36.84,0,0,1-9,10.22,25.53,25.53,0,0,1-2.48,1.74s-60.14-22.51-103.73-46.31c-14.41-7.87-27-15.87-35-23.25C347.09,205,341.2,197.6,334,187.7a429.34,429.34,0,0,1,22.57-61.28c4.33-9.33,9-18.3,14-26.83,1.74,5.18,3.53,10.47,5.33,15.72h0c9.55,27.86,19.34,54.57,22.83,57.9,7.56,7.25,103.58,78.37,103.58,78.37a6.68,6.68,0,0,1,1.58,3.79C504.2,257.71,503.77,261.2,501,266Z"/><rect class="cls-18" x="455.28" y="44.98" width="163.98" height="148.73"/><rect class="cls-19" x="455.28" y="36.06" width="163.98" height="8.92"/><path class="cls-18" d="M460.78,38.74a1.79,1.79,0,1,0,1.79,1.78A1.78,1.78,0,0,0,460.78,38.74Z"/><path class="cls-18" d="M467.77,38.74a1.79,1.79,0,1,0,1.79,1.78A1.78,1.78,0,0,0,467.77,38.74Z"/><path class="cls-18" d="M474.81,38.74a1.79,1.79,0,1,0,1.79,1.78A1.79,1.79,0,0,0,474.81,38.74Z"/><path class="cls-20" d="M504.53,64.36h62.64a3,3,0,0,0,3-3h0a3,3,0,0,0-3-3H504.53a3,3,0,0,0-3,3h0A3,3,0,0,0,504.53,64.36Z"/><path class="cls-20" d="M490.25,74.57h91.2a3,3,0,0,0,0-5.95h-91.2a3,3,0,0,0,0,5.95Z"/><path class="cls-20" d="M482.54,101.43H592.46a2.18,2.18,0,0,0,0-4.36H482.54a2.18,2.18,0,0,0,0,4.36Z"/><rect class="cls-20" x="480.36" y="107.13" width="114.27" height="4.36" rx="2.18"/><path class="cls-20" d="M592.46,117.19H482.54a2.18,2.18,0,0,0,0,4.36H592.46a2.18,2.18,0,0,0,0-4.36Z"/><path class="cls-20" d="M493.58,153.77h-11a2.18,2.18,0,0,0,0,4.36h11a2.18,2.18,0,1,0,0-4.36Z"/><path class="cls-20" d="M512,153.77H501a2.18,2.18,0,0,0,0,4.36h11a2.18,2.18,0,1,0,0-4.36Z"/><path class="cls-20" d="M574,153.77H563a2.18,2.18,0,0,0,0,4.36h11a2.18,2.18,0,1,0,0-4.36Z"/><path class="cls-20" d="M592.46,153.77h-11a2.18,2.18,0,1,0,0,4.36h11a2.18,2.18,0,0,0,0-4.36Z"/><path class="cls-20" d="M496.64,160.78a11.63,11.63,0,1,0,11.62,11.63A11.65,11.65,0,0,0,496.64,160.78Zm0,22.66a11,11,0,1,1,11-11A11,11,0,0,1,496.64,183.44Z"/><path class="cls-20" d="M496.64,163a9.37,9.37,0,1,0,9.36,9.37A9.38,9.38,0,0,0,496.64,163Zm0,18.15a8.78,8.78,0,1,1,8.78-8.78A8.79,8.79,0,0,1,496.64,181.19Z"/><path class="cls-20" d="M493.45,176.24c-1.25-.1-1.89-.69-1.92-1.75a2.75,2.75,0,0,1,.88-2.09,3.18,3.18,0,0,0,1.59,2.46,1,1,0,0,0,1.09-.39,6.74,6.74,0,0,0,.84-1.38.7.7,0,0,0,.47.21c.43,0,.86-.33,1.24-1a4.32,4.32,0,0,0,.28-.57l.09.07a.36.36,0,0,0,.43-.06,4.05,4.05,0,0,0,.72-1.07.46.46,0,0,0,.19.22c.1.06.29.11.54-.11a.28.28,0,0,0,.07-.35c-.06-.11-.27-.2-.57-.25h0a3.58,3.58,0,0,0,.43-1.81.3.3,0,0,0-.29-.18c-.22,0-.37.24-.46.66a4.34,4.34,0,0,0-.06,1.27v0c-.22,0-.47,0-.73,0a.92.92,0,0,0-.11-.44c-.11-.17-.24-.17-.3-.15s-.22.23-.25.4a1.52,1.52,0,0,0,0,.23,13,13,0,0,0-2.38.41,7.72,7.72,0,0,0-2.53,1.13c0-.37,0-.82.27-1s.85,0,1,.16l.18-.32s-.86-.49-1.42-.15c-.34.22-.49.68-.43,1.37,0,.07,0,.13,0,.2a3.17,3.17,0,0,0-1.17,2.53c0,1.24.83,2,2.25,2.1a9.07,9.07,0,0,0,3.34-.52c2.7-.88,5.22-2.75,5.72-4.44C501.76,173.76,496.5,176.49,493.45,176.24Zm6-7.54a2.61,2.61,0,0,1-.08.38A2.25,2.25,0,0,1,499.48,168.7Zm-1.22,1.79h.58a3.12,3.12,0,0,1-.65,1s-.05,0-.11-.2A4.05,4.05,0,0,0,498.26,170.49Zm-2,.21a12.91,12.91,0,0,1,1.3-.17,3.66,3.66,0,0,0,.1.74,4.87,4.87,0,0,1-.37.85c-.31.53-.64.83-.92.81a.42.42,0,0,1-.32-.22A2.7,2.7,0,0,0,496.3,170.7Zm-.36.11a1.77,1.77,0,0,1-.05,1.36A2.83,2.83,0,0,1,495.94,170.81Zm-2.12.65a9.21,9.21,0,0,1,1.72-.6,3.3,3.3,0,0,0,0,1.4,2.08,2.08,0,0,0,.15.48,6.63,6.63,0,0,1-.88,1.5.62.62,0,0,1-.7.27,3,3,0,0,1-1.38-2.39A5.94,5.94,0,0,1,493.82,171.46Z"/><path class="cls-20" d="M502.48,171.64l.06-.22Z"/><path class="cls-20" d="M577.4,161.09A11.91,11.91,0,1,0,589.31,173,11.92,11.92,0,0,0,577.4,161.09Zm0,23.21A11.31,11.31,0,1,1,588.71,173,11.31,11.31,0,0,1,577.4,184.3Z"/><path class="cls-20" d="M577.4,163.4A9.6,9.6,0,1,0,587,173,9.61,9.61,0,0,0,577.4,163.4Zm0,18.59a9,9,0,1,1,9-9A9,9,0,0,1,577.4,182Z"/><path class="cls-20" d="M583.39,172.21l.06-.22Z"/><path class="cls-20" d="M574.14,176.92c-1.27-.1-1.94-.7-2-1.78a2.8,2.8,0,0,1,.91-2.15,3.27,3.27,0,0,0,1.62,2.52,1,1,0,0,0,1.12-.4,6.37,6.37,0,0,0,.86-1.41.75.75,0,0,0,.48.21c.44,0,.88-.33,1.27-1a4.62,4.62,0,0,0,.29-.59l.09.08a.38.38,0,0,0,.44-.06,4.11,4.11,0,0,0,.74-1.1.57.57,0,0,0,.2.23.46.46,0,0,0,.55-.12.28.28,0,0,0,.07-.35.85.85,0,0,0-.59-.26h0a3.57,3.57,0,0,0,.44-1.85.29.29,0,0,0-.3-.19c-.21,0-.37.24-.46.68a3.91,3.91,0,0,0-.06,1.3h0c-.22,0-.47,0-.74,0a1,1,0,0,0-.12-.46c-.11-.17-.24-.17-.3-.15s-.23.24-.26.41,0,.15,0,.24a13.67,13.67,0,0,0-2.44.41,8,8,0,0,0-2.59,1.16c0-.37,0-.84.28-1s.87.05,1.06.16l.19-.32s-.88-.51-1.45-.15c-.35.22-.5.69-.45,1.4a1.5,1.5,0,0,0,0,.2,3.25,3.25,0,0,0-1.21,2.6c0,1.26.85,2,2.31,2.15a9.13,9.13,0,0,0,3.42-.54c2.77-.9,5.34-2.81,5.86-4.55C582.65,174.39,577.26,177.18,574.14,176.92Zm6.18-7.72a2.62,2.62,0,0,1-.09.39A2.28,2.28,0,0,1,580.32,169.2ZM579.07,171h.59a3.38,3.38,0,0,1-.66,1s-.06,0-.11-.21A5.31,5.31,0,0,0,579.07,171Zm-2,.21c.46-.09.92-.14,1.33-.18a3.25,3.25,0,0,0,.11.77,5.54,5.54,0,0,1-.39.87c-.31.54-.65.84-.93.83a.42.42,0,0,1-.33-.23A2.83,2.83,0,0,0,577.06,171.25Zm-.37.11a1.83,1.83,0,0,1-.05,1.4A2.88,2.88,0,0,1,576.69,171.36Zm-2.18.67a9.29,9.29,0,0,1,1.77-.62,3.49,3.49,0,0,0,0,1.44,2.84,2.84,0,0,0,.15.49,6.1,6.1,0,0,1-.9,1.54.63.63,0,0,1-.71.27,3,3,0,0,1-1.41-2.45A6.06,6.06,0,0,1,574.51,172Z"/><path class="cls-10" d="M633.68,309.91l-14.27,19.25-1.41,1.9-.68.92-1.76,2.37-.95,1.29L612.85,338l-1.85,2.5-1.73,2.33,0,0h0l-1.63,2.19,0,0-.24.33,0,0h0l-.31.41h0l-1.75,2.18v.19l-1.64,2.22h0l-2.12,2.86h0l-1.6,2.16h0l-1.76,2.36h0l-2.93,3.95h0l-.29.39-1,1.35h0l-2.31,3.12-3.07,3.94v.19L586.94,373l-.16.23h0l-2.21,3h0L582.51,379l0,0h0l-5.09,6.88h0L569.8,396.1l-12.71,17.14-1.58,2.14-.93,1.26,1.45.2h0c1.69.23,3.37.43,5.05.61l1.42.16.89.08c.71.08,1.43.14,2.14.2l.9.08.42,0,1.42.11.27,0c1,.08,2.08.14,3.11.2l1.42.07,1.1.06h.21l1.84.07,1.42,0,1.61,0,1.42,0h7.61c3.67-.1,7.32-.3,10.93-.6h0c4.16-.35,8.29-.83,12.36-1.43,4.41-.65,8.77-1.46,13.07-2.4l.22,0a.43.43,0,0,1,0,0l4-1c.56-.13,1.13-.27,1.69-.42q8-2,15.63-4.69l2.56-.91.63-.23q2.39-.87,4.73-1.81l1.27-.5h0l.26-.1h0l1.49-.61,1.11-.47,1.3-.56.83-.37h0l1.45-.65h0q7.11-3.19,13.88-6.95l1.42-.8h0L702,360.56Z"/><path class="cls-5" d="M596.12,379v2l1.45-1.95,0,0h-1.47Zm-2.72,2.61a10.07,10.07,0,0,0-1.47.73l-3.17,4.27-2.43,3.28v4.3l2.87-3.88,6.91-9.32A8.4,8.4,0,0,0,593.4,381.57ZM581.69,396.1l-.36.49L580,398.46l-6.25,8.42v4.31l4.41-6,3.54-4.77L583.5,398l1.37-1.86h-3.18Zm52.81-71.24-14.86,20.05-.13.18-.9,1.21-1.16,1.56-.6.8h0l-2.76,3.72L613,353.74v.19l-.75,1-1,1.35-4.1,5.53h0L607,362l-.2.28h0L605.49,364v.19l-3.9,5.07-1.51,2-.25.33-4.18,5.65L594.4,379l0,0-2.45,3.32-3.17,4.27-2.43,3.28-1.76,2.37-2.88,3.88-.36.49L580,398.46l-6.25,8.42L572,409.25l-3,4-3.43,4.64.9.08.42,0,1.42.11.27,0,3.61-4.87h0l1.53-2.07,4.41-6,3.54-4.77L583.5,398l1.37-1.86h0l1.45-2,2.87-3.88,6.91-9.32h0l1.45-1.95,0,0h0l2.24-2.85v-.18l1.76-2.37,1.4-1.89,2.5-3.37,1.75-2.37,2-2.67.75-1,.3-.39h0l.91-1.24,1.76-2.37,1.85-2.5,1.86-2.51.19-.24h0l1.75-2.37,1.35-1.82.63-.83v0l1.62-2.18.14-.19.35-.47,6.77-9.14A9.36,9.36,0,0,1,642.54,334l34.6,25.65a10.29,10.29,0,0,1,2.14,14.4l-20.87,28.16-1.23,1.67,1.11-.47,1.3-.56.83-.37h0l1.45-.65h0L689,365.24ZM581.69,396.1l-.36.49L580,398.46l-6.25,8.42v4.31l4.41-6,3.54-4.77L583.5,398l1.37-1.86h-3.18Zm11.71-14.53a10.07,10.07,0,0,0-1.47.73l-3.17,4.27-2.43,3.28v4.3l2.87-3.88,6.91-9.32A8.4,8.4,0,0,0,593.4,381.57Zm2.72-2.61v2l1.45-1.95,0,0h-1.47Z"/><path class="cls-5" d="M624.88,414.15a.43.43,0,0,0,0,0l-.22,0c-4.3.94-8.66,1.75-13.07,2.4-4.07.6-8.2,1.08-12.36,1.43h0c-3.61.3-7.26.5-10.93.6h-1.16c0-.54,0-1.07,0-1.6a20.54,20.54,0,0,1,.38-3.74,20.93,20.93,0,0,1,3.77-8.56l0-.06a21.72,21.72,0,0,1,3.12-3.36,21.38,21.38,0,0,1,7.12-4c.58-.2,1.17-.36,1.76-.5a21,21,0,0,1,4.18-.57c.58,0,1.17,0,1.75,0a20.7,20.7,0,0,1,3.9.55c.59.14,1.17.3,1.75.5a20.77,20.77,0,0,1,2,.77c.6.27,1.18.56,1.76.89a19.08,19.08,0,0,1,1.84,1.18,3.53,3.53,0,0,1,.34.24c.46.34.91.7,1.34,1.08h0l.08.07q.49.43,1,.9a25.13,25.13,0,0,1,1.75,2v0c.24.3.47.61.68.92v0a20.67,20.67,0,0,1,1.75,3v0q.35.73.63,1.5h0a21.16,21.16,0,0,1,.94,3.31Z"/><path class="cls-5" d="M607,345.88h0l-1.75,2.21v.16l-1.65,2.22-2.12,2.86h0l-1.6,2.16h0l-1.76,2.36h0l-2.93,3.95h0l-.29.39-1,1.35h0l-2.31,3.12-3.07,4v.16L586.94,373l-.16.23h0l-2.21,3L582.51,379l0,0h0l-5.09,6.88h0L569.8,396.1l-12.71,17.14-1.58,2.14-.93,1.26,1.45.2h0c1.69.23,3.37.43,5.05.61l1.42.16.89.08c.71.08,1.43.14,2.14.2l.9.08.42,0,1.42.11.27,0c1,.08,2.08.14,3.11.2l1.42.07,1.1.06h.21q.55-2.58,1.26-5.21c.71-2.66,1.54-5.34,2.45-8,.7-2.07,1.46-4.14,2.26-6.2.31-.81.63-1.63,1-2.44.07-.16.13-.32.2-.49h0c1-2.4,2-4.78,3-7.13v-.16c.58-1.29,1.17-2.41,1.76-3.68,1-2.09,2-4.14,3-6.15l0,0c1.35-2.72,2.72-5.36,4-7.89.18-.33.35-.54.53-.84v-.16c.59-1.11,1.18-2.2,1.76-3.27.86-1.58,1.7-3.11,2.51-4.56l.22-.4c.51-.92,1-1.66,1.5-2.52v-.16c1.18-2.1,2.27-4,3.24-5.73l1.6-2.86.53-1c.77-1.41,1.37-2.56,1.75-3.4.13-.27.23-.52.31-.73Z"/><path class="cls-21" d="M628,399.87v9.69a2.81,2.81,0,0,1,0,.29h0a3.6,3.6,0,0,1-.63,1.79,3.82,3.82,0,0,1-1.75,1.4,4.48,4.48,0,0,1-.52.16l-.16,0-.33,0H536q-3-.64-6-1.35l-1.42-.35c-1.32-.32-2.64-.64-4-1l-1.75-.45-3-.79c-1.08-.3-2.17-.59-3.25-.9l-1.42-.4q-4-1.15-8.07-2.42h0l-.32-.1c-.81-.25-1.62-.5-2.43-.77l-1.41-.45q-11.39-3.7-22.59-8.22h2.16l40.35,0H624.43a2.83,2.83,0,0,1,.5.05,3.31,3.31,0,0,1,.68.2,3.7,3.7,0,0,1,1.75,1.39A3.76,3.76,0,0,1,628,399.87Z"/><path class="cls-22" d="M552.21,413.24H536q-3-.64-6-1.35l-1.42-.35c-1.32-.32-2.64-.64-4-1l-1.75-.45-3-.79c-1.08-.3-2.17-.59-3.25-.9l-1.42-.4q-4-1.15-8.07-2.42h0l-.32-.1c-.81-.25-1.62-.5-2.43-.77l-1.41-.45q-11.39-3.7-22.59-8.22h2.16l40.35,0h19.16a34.85,34.85,0,0,0,3,8.22,28.1,28.1,0,0,0,6.05,8l.51.44.1.1Z"/><rect class="cls-22" x="607.46" y="396.12" width="1.75" height="17.16"/><rect class="cls-22" x="601.53" y="396.12" width="1.75" height="17.16"/><rect class="cls-22" x="594.41" y="396.11" width="1.75" height="17.16" transform="translate(0.42 -0.62) rotate(0.06)"/><rect class="cls-22" x="583.49" y="396.11" width="1.75" height="17.16"/><rect class="cls-22" x="571.95" y="396.1" width="1.75" height="17.16"/><rect class="cls-22" x="554.26" y="396.09" width="1.75" height="17.16"/><rect class="cls-22" x="537.7" y="396.07" width="1.75" height="17.16"/><path class="cls-22" d="M524.67,396.06l0,14.48-1.75-.45v-14Z"/><rect class="cls-22" x="613.11" y="396.13" width="1.75" height="17.16"/><rect class="cls-22" x="616.85" y="396.13" width="1.75" height="17.16"/><rect class="cls-22" x="620.45" y="396.13" width="1.75" height="17.16" transform="translate(0.42 -0.64) rotate(0.06)"/><path class="cls-22" d="M624.93,396.19l0,17a3.49,3.49,0,0,1-.65.06h-1.1V396.13h1.1A3.68,3.68,0,0,1,624.93,396.19Z"/><path class="cls-22" d="M627.36,397.78v13.86a3.82,3.82,0,0,1-1.75,1.4V396.39A3.8,3.8,0,0,1,627.36,397.78Z"/><path class="cls-21" d="M640.62,382.72v9.69a3.63,3.63,0,0,1-.64,2.08,3.72,3.72,0,0,1-1.75,1.4,3.28,3.28,0,0,1-.68.19,3.68,3.68,0,0,1-.66.06L482.56,396a3.76,3.76,0,0,1-3.73-3.55c0-.06,0-.13,0-.19v-9.88a3.75,3.75,0,0,1,3.3-3.51,3.15,3.15,0,0,1,.44,0l154.32.11a3.68,3.68,0,0,1,.66.06,3.28,3.28,0,0,1,.68.19,3.75,3.75,0,0,1,2.39,3.48Z"/><path class="cls-22" d="M564.83,396.09l-82.68,0a3.55,3.55,0,0,1-3.32-3.55c0-.06,0-.13,0-.19v-9.88a3.6,3.6,0,0,1,2.94-3.51,2.6,2.6,0,0,1,.4,0l72.52.05v0C555.85,384,558.55,391,564.83,396.09Z"/><rect class="cls-22" x="620.09" y="378.98" width="1.75" height="17.16"/><rect class="cls-22" x="614.15" y="378.97" width="1.75" height="17.16"/><rect class="cls-22" x="607.03" y="378.97" width="1.75" height="17.16"/><rect class="cls-22" x="596.12" y="378.96" width="1.75" height="17.16"/><rect class="cls-22" x="584.58" y="378.95" width="1.75" height="17.16"/><rect class="cls-22" x="566.88" y="378.94" width="1.75" height="17.16"/><rect class="cls-22" x="550.32" y="378.93" width="1.75" height="17.16"/><rect class="cls-22" x="535.53" y="378.92" width="1.75" height="17.16"/><rect class="cls-22" x="625.74" y="378.98" width="1.75" height="17.16"/><rect class="cls-22" x="629.47" y="378.98" width="1.75" height="17.16"/><rect class="cls-22" x="633.08" y="378.98" width="1.75" height="17.16"/><path class="cls-22" d="M637.55,379.05v17a3.68,3.68,0,0,1-.66.06h-1.1V379h1.1A3.6,3.6,0,0,1,637.55,379.05Z"/><path class="cls-22" d="M640,380.64v13.85a3.72,3.72,0,0,1-1.75,1.4V379.24A3.66,3.66,0,0,1,640,380.64Z"/><path class="cls-21" d="M620.37,365.58v9.69a3.64,3.64,0,0,1-.65,2.08,3.72,3.72,0,0,1-1.75,1.4,4,4,0,0,1-.68.19l-.22,0-.17,0h-.27l-154.32-.11a3.75,3.75,0,0,1-3.73-3.54v-9.88a1.15,1.15,0,0,1,0-.19,3.74,3.74,0,0,1,3.73-3.54l154.32.1h.2l.46,0a4,4,0,0,1,.68.19l.33.15.19.1,0,0,.19.11,0,0,.16.13a2.92,2.92,0,0,1,.38.32l.1.11,0,0,.06.07h0a1.34,1.34,0,0,0,.11.14,2.43,2.43,0,0,1,.14.2A3.69,3.69,0,0,1,620.37,365.58Z"/><path class="cls-22" d="M544.58,379l-82.67-.06a3.54,3.54,0,0,1-3.33-3.54v-9.88a1.15,1.15,0,0,1,0-.19,3.53,3.53,0,0,1,3.33-3.54l72.52.05c0,.13.06.26.1.39,1.2,5,3.9,11.75,10,16.74Z"/><rect class="cls-22" x="599.84" y="361.83" width="1.75" height="17.16"/><rect class="cls-22" x="593.9" y="361.83" width="1.75" height="17.16"/><rect class="cls-22" x="586.78" y="361.82" width="1.75" height="17.16"/><rect class="cls-22" x="575.87" y="361.82" width="1.75" height="17.16"/><rect class="cls-22" x="564.33" y="361.81" width="1.75" height="17.16"/><rect class="cls-22" x="546.64" y="361.8" width="1.75" height="17.16"/><rect class="cls-22" x="530.07" y="361.78" width="1.75" height="17.16"/><rect class="cls-22" x="515.28" y="361.77" width="1.75" height="17.16" transform="translate(0.38 -0.53) rotate(0.06)"/><rect class="cls-22" x="605.49" y="361.84" width="1.75" height="17.16"/><rect class="cls-22" x="609.22" y="361.84" width="1.75" height="17.16"/><rect class="cls-22" x="612.83" y="361.84" width="1.75" height="17.16"/><path class="cls-22" d="M617.3,361.9v17a3.68,3.68,0,0,1-.66.06h-1.1l0-17.16h1.09A3.6,3.6,0,0,1,617.3,361.9Z"/><path class="cls-22" d="M619.73,363.49v13.86a3.72,3.72,0,0,1-1.75,1.4V362.09A3.78,3.78,0,0,1,619.73,363.49Z"/><path class="cls-21" d="M631.73,348.83v9.68a3.66,3.66,0,0,1-.64,2.09,3.72,3.72,0,0,1-1.75,1.4,4,4,0,0,1-.68.19,3.68,3.68,0,0,1-.66.06l-154.33-.11a3.6,3.6,0,0,1-1.66-.4,3.72,3.72,0,0,1-2.05-3,.76.76,0,0,1,0-.15,1.34,1.34,0,0,1,0-.2v-9.88a3.76,3.76,0,0,1,3.29-3.51l.45,0,154.32.11a3.68,3.68,0,0,1,.66.06,4,4,0,0,1,.68.19,3.72,3.72,0,0,1,1.75,1.4A3.66,3.66,0,0,1,631.73,348.83Z"/><path class="cls-22" d="M555.94,362.2l-82.68-.06a2.91,2.91,0,0,1-1.48-.4,3.75,3.75,0,0,1-1.83-3,.76.76,0,0,1,0-.15,1.34,1.34,0,0,1,0-.2v-9.88a3.61,3.61,0,0,1,2.94-3.51,2.6,2.6,0,0,1,.4,0l72.52,0v0c1.13,4.92,3.72,11.67,9.67,16.74Z"/><rect class="cls-22" x="611.19" y="345.08" width="1.75" height="17.16"/><rect class="cls-22" x="605.26" y="345.08" width="1.75" height="17.16"/><rect class="cls-22" x="598.14" y="345.07" width="1.75" height="17.16"/><rect class="cls-22" x="587.22" y="345.06" width="1.75" height="17.16"/><rect class="cls-22" x="575.68" y="345.05" width="1.75" height="17.16"/><rect class="cls-22" x="557.99" y="345.04" width="1.75" height="17.16"/><rect class="cls-22" x="541.43" y="345.03" width="1.75" height="17.16"/><rect class="cls-22" x="526.64" y="345.02" width="1.75" height="17.16"/><rect class="cls-22" x="616.85" y="345.08" width="1.75" height="17.16"/><rect class="cls-22" x="620.58" y="345.09" width="1.75" height="17.16"/><rect class="cls-22" x="624.18" y="345.09" width="1.75" height="17.16"/><path class="cls-22" d="M628.66,345.15v17a3.68,3.68,0,0,1-.66.06h-1.1V345.09H628A3.68,3.68,0,0,1,628.66,345.15Z"/><path class="cls-22" d="M631.09,346.74V360.6a3.64,3.64,0,0,1-1.75,1.39V345.34A3.72,3.72,0,0,1,631.09,346.74Z"/><path class="cls-21" d="M620.4,331.69v9.69a3.71,3.71,0,0,1-.64,2.08,3.79,3.79,0,0,1-1.76,1.4,3.57,3.57,0,0,1-.68.19l-.22,0h-.44L462.33,345a3.75,3.75,0,0,1-3.73-3.54v-9.88c0-.07,0-.13,0-.19a3.74,3.74,0,0,1,3.73-3.54l154.32.1a3.52,3.52,0,0,1,.66.06,3.22,3.22,0,0,1,.69.2,3.73,3.73,0,0,1,2.39,3.48Z"/><path class="cls-22" d="M544.61,345.06,461.93,345a3.54,3.54,0,0,1-3.33-3.54v-9.88c0-.07,0-.13,0-.19a3.54,3.54,0,0,1,3.33-3.54l72.52,0c1.16,5,3.84,12,10.11,17.13Z"/><rect class="cls-22" x="599.86" y="327.94" width="1.75" height="17.16" transform="translate(0.35 -0.62) rotate(0.06)"/><rect class="cls-22" x="593.92" y="327.94" width="1.75" height="17.16"/><rect class="cls-22" x="586.8" y="327.93" width="1.75" height="17.16"/><rect class="cls-22" x="575.89" y="327.93" width="1.75" height="17.16"/><rect class="cls-22" x="564.35" y="327.92" width="1.75" height="17.16"/><rect class="cls-22" x="546.66" y="327.91" width="1.75" height="17.16"/><rect class="cls-22" x="530.09" y="327.89" width="1.75" height="17.16"/><rect class="cls-22" x="515.3" y="327.88" width="1.75" height="17.16"/><rect class="cls-22" x="605.51" y="327.95" width="1.75" height="17.16"/><rect class="cls-22" x="609.24" y="327.95" width="1.75" height="17.16"/><rect class="cls-22" x="612.85" y="327.95" width="1.75" height="17.16"/><path class="cls-22" d="M617.32,328v17a3.52,3.52,0,0,1-.66.06h-1.09V328h1.09A3.52,3.52,0,0,1,617.32,328Z"/><path class="cls-22" d="M619.76,329.6v13.86a3.79,3.79,0,0,1-1.76,1.4l0-16.65A3.8,3.8,0,0,1,619.76,329.6Z"/><path class="cls-23" d="M641.25,409.71q-5.25,1.67-10.64,3c-.56.15-1.13.29-1.69.42-1.33.33-2.68.64-4,.94l-.22,0c-4.3.94-8.66,1.75-13.07,2.4-4.07.6-8.2,1.08-12.36,1.43h0c-3.61.3-7.26.5-10.93.6h-7.61l-1.42,0-1.61,0-1.42,0-1.84-.07h-.21l-1.1-.06-1.42-.07c-1-.06-2.08-.12-3.11-.2l-.27,0-1.42-.11-.42,0-.9-.08c-.71-.06-1.43-.12-2.14-.2l-.89-.08-1.42-.16c-1.68-.18-3.36-.38-5.05-.61h0l-1.45-.2-.49-.08-.4-.05-1-.15-.28,0h-.06l-.08,0c-1.26-.18-2.52-.39-3.78-.61l-1.33-.23q-.66-.1-1.32-.24l-1.49-.28-1.41-.27q-3.48-.68-6.94-1.43h0q-3-.64-6-1.35l-1.42-.35-.68-.17a54.79,54.79,0,0,1,28.17-52.7c.7-.38,1.41-.75,2.12-1.1s1.37-.82,2.07-1.2a54.78,54.78,0,0,1,81,53.35Z"/><path class="cls-23" d="M651.82,370.94a54.44,54.44,0,0,0-20.09-20.73l-.64-.38c-.58-.33-1.16-.65-1.75-1l-.69-.35c-.58-.3-1.16-.58-1.75-.85l-.95-.43c-.59-.26-1.17-.51-1.76-.74s-1.23-.48-1.85-.71l-.14,0c-.53-.19-1.07-.37-1.62-.55l-.37-.11h-.16a1.57,1.57,0,0,0-.41-.18l-1.09-.32-.55-.15-.69-.18c-.58-.15-1.17-.29-1.76-.41-.31-.08-.63-.14-.95-.2-.58-.12-1.17-.23-1.76-.33s-1.23-.2-1.85-.28l-1.72-.2h0c-.66-.07-1.32-.12-2-.16s-1.17-.07-1.76-.09c-1.29,0-2.59,0-3.89,0-.58,0-1.17.05-1.76.1-1.39.1-2.79.25-4.18.47-.58.08-1.17.18-1.75.28a53.65,53.65,0,0,0-5.37,1.28l-1.07.32h0l-.09,0-.16.05a54.74,54.74,0,0,0-9.79,4.21l0,0c-.58.32-1.15.65-1.72,1l-.3.19a54.58,54.58,0,0,0-13.25,11.25l-.33.4a54.89,54.89,0,0,0-9.57,16.73v0c0,.13-.09.27-.14.4a55.6,55.6,0,0,0-1.76,6.21v.16a52.79,52.79,0,0,0-1.27,10.35h0a54.34,54.34,0,0,0,2,16.2c.09.32.19.64.29,1,.31,1,.65,2.06,1,3.08l.28,0,1,.15.4.05.49.08,1.45.2h0c1.69.23,3.37.43,5.05.61l1.42.16.89.08c.71.08,1.43.14,2.14.2l.9.08.42,0,1.42.11.27,0c1,.08,2.08.14,3.11.2l1.42.07,1.1.06h.21l1.84.07,1.42,0,1.61,0,1.42,0h7.61c3.67-.1,7.32-.3,10.93-.6h0c4.16-.35,8.29-.83,12.36-1.43,4.41-.65,8.77-1.46,13.07-2.4l.22,0a.43.43,0,0,1,0,0l4-1c.56-.13,1.13-.27,1.69-.42q8-2,15.63-4.69l2.56-.91.63-.23q2.39-.87,4.73-1.81l1.27-.5h0l.26-.1h0l1.49-.61,1.11-.47.12-1.2A54.55,54.55,0,0,0,651.82,370.94Z"/><path class="cls-21" d="M647.63,373.24a54.31,54.31,0,0,0-15.9-18l-.64-.46c-.58-.4-1.16-.8-1.75-1.18l-.69-.43c-.58-.36-1.16-.71-1.75-1q-.48-.28-1-.54c-.58-.32-1.16-.62-1.75-.92s-1.23-.6-1.85-.88-1.17-.52-1.76-.76l-.63-.26-1.35-.51-1.15-.41-.6-.2c-1.28-.43-2.58-.81-3.89-1.14-.59-.14-1.17-.28-1.76-.4-1.27-.28-2.56-.51-3.85-.69l-.34-.05c-.58-.08-1.16-.15-1.75-.21l-.69-.07h-.17l-.13,0h-.34c-.75-.08-1.6-.13-2.32-.16s-1.17,0-1.76,0c-1.39,0-2.78,0-4.18.13l-.66.06h-.22l-.1,0h-.21a51.76,51.76,0,0,0-5.5.82l-1.75.38a53.94,53.94,0,0,0-9.79,3.29c-.59.26-1.17.53-1.76.82l-.3.15c-.73.35-1.45.73-2.17,1.13A54.65,54.65,0,0,0,560,361.8l-.28.3-.09.1h0a54.57,54.57,0,0,0-10.72,16.72v0a55.38,55.38,0,0,0-4,17.13,53.75,53.75,0,0,0,.08,8.22,51.76,51.76,0,0,0,1.51,8.93c.18.75.39,1.49.61,2.22l1.33.23c1.26.22,2.52.43,3.78.61l.08,0h.06l.28,0,1,.15.4.05.49.08,1.45.2h0c1.69.23,3.37.43,5.05.61l1.42.16.89.08c.71.08,1.43.14,2.14.2l.9.08.42,0,1.42.11.27,0c1,.08,2.08.14,3.11.2l1.42.07,1.1.06h.21l1.84.07,1.42,0,1.61,0,1.42,0h7.61c3.67-.1,7.32-.3,10.93-.6h0c4.16-.35,8.29-.83,12.36-1.43,4.41-.65,8.77-1.46,13.07-2.4l.22,0a.43.43,0,0,1,0,0l4-1c.56-.13,1.13-.27,1.69-.42q8-2,15.63-4.69l2.56-.91.63-.23q2.39-.87,4.73-1.81A54.43,54.43,0,0,0,647.63,373.24Z"/><path class="cls-22" d="M643.68,376.16A49.62,49.62,0,0,0,630.78,361c-.48-.38-1-.74-1.45-1.1l-.69-.48c-.57-.41-1.16-.8-1.75-1.18l-.95-.59c-.58-.35-1.17-.7-1.76-1s-1.23-.67-1.85-1-1.16-.57-1.75-.83-1.32-.58-2-.84-1.17-.46-1.75-.67l-.19-.07c-.85-.3-1.7-.58-2.57-.83l-1.14-.33-1.75-.44c-1.39-.32-2.78-.58-4.19-.78-.58-.09-1.16-.16-1.75-.22l-.53-.06-1.11-.09h0q-1.85-.15-3.72-.15c-.58,0-1.17,0-1.75,0a49.3,49.3,0,0,0-9.16,1.17c-.59.13-1.17.28-1.76.44a49.36,49.36,0,0,0-9.78,3.72c-.53.26-1.05.54-1.57.82l-.19.11a50,50,0,0,0-7.6,5.19l-.48.4c-.52.43-1,.88-1.51,1.33s-1.19,1.11-1.76,1.7a49.14,49.14,0,0,0-9.53,13.69,0,0,0,0,0,0,0,.34.34,0,0,0-.06.12,49.37,49.37,0,0,0-2.65,7v.1a.4.4,0,0,0-.07.13,46.3,46.3,0,0,0-1.7,8.13h0l-.12,1.24c-.12,1.41-.18,2.83-.18,4.23a49,49,0,0,0,1.59,12.41c0,.18.09.35.14.52.28,1.05.6,2.09,1,3.12l1,.15.4.05.49.08,1.45.2c-.18-.49-.36-1-.52-1.46-.25-.71-.47-1.42-.68-2.14s-.4-1.25-.57-2v-.19a46.37,46.37,0,0,1-1.08-15,47.49,47.49,0,0,1,1.69-8.9c.35-1.23.75-2.44,1.2-3.62h0a46.15,46.15,0,0,1,2-4.6,0,0,0,0,1,0,0,46.25,46.25,0,0,1,6.22-9.29c.56-.66,1.14-1.3,1.75-1.93a46.33,46.33,0,0,1,6.34-5.5h0c.18-.14.37-.27.56-.4h0c.88-.61,1.74-1.19,2.66-1.74.53-.33,1.08-.65,1.63-.95l.13-.07a46.7,46.7,0,0,1,9.78-4l1.76-.46a46.19,46.19,0,0,1,9.16-1.25c.58,0,1.15,0,1.73,0h0c.53,0,1.07,0,1.6,0h0c.55,0,1.09.05,1.64.09.71.05,1.42.11,2.13.19s1.17.15,1.75.24c1.4.22,2.8.49,4.18.83.34.09.68.17,1,.27s.5.13.75.21c.62.17,1.24.37,1.85.57s1.37.48,2,.73,1.18.47,1.76.72,1.32.59,2,.91,1.17.59,1.75.9,1.24.69,1.85,1.06,1.18.72,1.75,1.1l1,.65.62.44h0a47,47,0,0,1,18.73,45.81l2.56-.91.63-.23A49.53,49.53,0,0,0,643.68,376.16Z"/><path class="cls-22" d="M598.52,417.33a11.82,11.82,0,0,1-2.43-4l-9,3.64c0,.53,0,1.06,0,1.6h1.16c3.67-.1,7.32-.3,10.93-.6C599,417.78,598.76,417.56,598.52,417.33Zm0,0a11.82,11.82,0,0,1-2.43-4l-9,3.64c0,.53,0,1.06,0,1.6h1.16c3.67-.1,7.32-.3,10.93-.6C599,417.78,598.76,417.56,598.52,417.33Zm0,0a11.82,11.82,0,0,1-2.43-4l-9,3.64c0,.53,0,1.06,0,1.6h1.16c3.67-.1,7.32-.3,10.93-.6C599,417.78,598.76,417.56,598.52,417.33Zm0,0a11.82,11.82,0,0,1-2.43-4l-9,3.64c0,.53,0,1.06,0,1.6h1.16c3.67-.1,7.32-.3,10.93-.6C599,417.78,598.76,417.56,598.52,417.33Zm0,0a11.82,11.82,0,0,1-2.43-4l-9,3.64c0,.53,0,1.06,0,1.6h1.16c3.67-.1,7.32-.3,10.93-.6C599,417.78,598.76,417.56,598.52,417.33Zm0,0a11.82,11.82,0,0,1-2.43-4l-9,3.64c0,.53,0,1.06,0,1.6h1.16c3.67-.1,7.32-.3,10.93-.6C599,417.78,598.76,417.56,598.52,417.33Zm26.4-9.73a16.77,16.77,0,0,0-.83-2.58,18.9,18.9,0,0,0-.92-2,14.4,14.4,0,0,0-1-1.54l-.08-.11h0a11.47,11.47,0,0,0-1.68-1.9l0,0a15.6,15.6,0,0,0-1.82-1.42,16.65,16.65,0,0,0-1.76-1,17.23,17.23,0,0,0-1.65-.67l-.33-.11-.52-.16h0l-.2-.05a26.4,26.4,0,0,0-5.36-.91h-.22l-1.54-.08q-3-.12-6.44,0c-1,0-1.89,0-2.72,0-.63,0-1.21-.05-1.75-.1H596a11.6,11.6,0,0,1-3.2-.7,5.57,5.57,0,0,1-2.14-1.46,7.85,7.85,0,0,1-1.37-2.24c0-.09-.07-.18-.1-.28a8.4,8.4,0,0,1-.51-2.36,5.63,5.63,0,0,1,.39-2.47,6.09,6.09,0,0,1,1.52-2.17,7.24,7.24,0,0,1,1.33-1,10.07,10.07,0,0,1,1.47-.73,8.4,8.4,0,0,1,2.71-.62h0a6.49,6.49,0,0,1,1.76.15,6.8,6.8,0,0,1,1.51.53q2.77,1.37,4.52,5.67L607,386l1.76-.71,5.36-2.17.92-.38c-.28-.7-.59-1.37-.91-2v-.19c-.32-.59-.66-1-1-1.57l0,0-.31-.47a18.1,18.1,0,0,0-1.39-1.79c-.15-.17-.3-.33-.46-.48h0a16.42,16.42,0,0,0-1.75-1.6,15.22,15.22,0,0,0-2-1.33c-.25-.14-.51-.28-.76-.4s-.66-.31-1-.44a15.42,15.42,0,0,0-2.5-.78c-.46-.1-.92-.18-1.4-.25s-.73-.08-1.11-.11l-.4,0-.25,0a20.64,20.64,0,0,0-4.18.3c-.58.1-1.16.23-1.75.38l-.15,0-.38-.93-1.77-4.37-1-2.48-2.05.83-1.76.71-2.37,1,2.37,5.85.16.4.58,1.43-.74.41a21.75,21.75,0,0,0-2.21,1.37h0a20.27,20.27,0,0,0-2.72,2.26l-.51.52s0,0,0,0a16.88,16.88,0,0,0-3.05,4.43,13.52,13.52,0,0,0-.88,2.45h0A14,14,0,0,0,577,389a15.19,15.19,0,0,0,1.18,6c.15.36.3.72.47,1.06h0a16.17,16.17,0,0,0,1.35,2.36,6,6,0,0,0,.42.57,10.35,10.35,0,0,0,1.28,1.43l.15.15a14.23,14.23,0,0,0,1.69,1.32,13.35,13.35,0,0,0,1.76,1,14.75,14.75,0,0,0,1.78.73,21.78,21.78,0,0,0,4.26,1c.77.11,1.57.18,2.39.23l.73,0c.57,0,1.15,0,1.75.06,1.69,0,3.48,0,5.36-.09h.16l1.6-.06a26.32,26.32,0,0,1,2.76.1,12.14,12.14,0,0,1,1.42.2,9.25,9.25,0,0,1,1.75.5h0a6.14,6.14,0,0,1,2.23,1.52,8.39,8.39,0,0,1,1.5,2.48,1,1,0,0,0,.15.22V410a6.55,6.55,0,0,1,.38,2.24,5.69,5.69,0,0,1-.09,1,5.88,5.88,0,0,1-.5,1.5,6.72,6.72,0,0,1-1.3,1.77c4.41-.65,8.77-1.46,13.07-2.4l.22,0c.08-.3.14-.6.19-.9a14.23,14.23,0,0,0,.21-2.07A13.91,13.91,0,0,0,624.92,407.6Zm-26.4,9.73a11.82,11.82,0,0,1-2.43-4l-9,3.64c0,.53,0,1.06,0,1.6h1.16c3.67-.1,7.32-.3,10.93-.6C599,417.78,598.76,417.56,598.52,417.33Zm0,0a11.82,11.82,0,0,1-2.43-4l-9,3.64c0,.53,0,1.06,0,1.6h1.16c3.67-.1,7.32-.3,10.93-.6C599,417.78,598.76,417.56,598.52,417.33Zm0,0a11.82,11.82,0,0,1-2.43-4l-9,3.64c0,.53,0,1.06,0,1.6h1.16c3.67-.1,7.32-.3,10.93-.6C599,417.78,598.76,417.56,598.52,417.33Zm0,0a11.82,11.82,0,0,1-2.43-4l-9,3.64c0,.53,0,1.06,0,1.6h1.16c3.67-.1,7.32-.3,10.93-.6C599,417.78,598.76,417.56,598.52,417.33Zm0,0a11.82,11.82,0,0,1-2.43-4l-9,3.64c0,.53,0,1.06,0,1.6h1.16c3.67-.1,7.32-.3,10.93-.6C599,417.78,598.76,417.56,598.52,417.33Zm0,0a11.82,11.82,0,0,1-2.43-4l-9,3.64c0,.53,0,1.06,0,1.6h1.16c3.67-.1,7.32-.3,10.93-.6C599,417.78,598.76,417.56,598.52,417.33Zm0,0a11.82,11.82,0,0,1-2.43-4l-9,3.64-2.18.88c.1.26.21.51.32.75h3.06c3.67-.1,7.32-.3,10.93-.6C599,417.78,598.76,417.56,598.52,417.33Z"/></g></g></g></svg>