<svg xmlns="http://www.w3.org/2000/svg" viewBox="0 0 875.49 856.95"><defs><style>.cls-1{fill:#ffb27d;}.cls-2{fill:#308d62;}.cls-3{fill:#efa26f;}.cls-4{fill:#ffc197;}.cls-5{fill:#2b478b;}.cls-6{fill:#c0d8fb;}.cls-7{fill:#cbe1fd;}.cls-8{fill:#ffd3b6;}.cls-9{fill:#dceaff;}.cls-10{fill:#216244;}.cls-11{fill:#fff;}.cls-12{fill:#d2e3fc;}</style></defs><g id="Layer_2" data-name="Layer 2"><g id="Layer_1-2" data-name="Layer 1"><path class="cls-1" d="M507.61,364.23s-46.79,93.62-94.33,158.24c-18.91,25.72-37.95,46.85-54.19,55.66-15.9,8.62-29.36,22-40.5,36.86-28.84,38.43-42.16,86.54-42.16,86.54L154.88,517.63S159,337.87,173.62,307.81c21.27-43.82,31.55-132.36,39.72-150,6.06-13.07,23.38-80.61,25-85.58.72-2.14,6.48-5.42,14-5.41,6,0,16.19,5.8,18.77,17.73,13,60.27-2.65,100-2.47,101.79,4.58,46.31-9.2,80.7.46,89.8.36.34,1,.18,2-.42C287.83,265,391.84,113.34,404.65,110.06,418.18,106.61,507.61,364.23,507.61,364.23Z"/><path class="cls-2" d="M313,665.14s-1.65,81.72-6.39,191.78H0C70.09,707.47,131,581.68,131,581.68S305.6,587,313,665.14Z"/><path class="cls-1" d="M613.89,47.4l-37.64,55.18-36.94,54.15a8.46,8.46,0,0,1-7.68,3.4c-8.86-.85-19.83-13.63-28.38-20.71l-.87-.71a26.66,26.66,0,0,1-3.53-37.44L555.3,33h0l16.75-20.24a26.65,26.65,0,0,1,37.43-3.53l.87.71A26.67,26.67,0,0,1,613.89,47.4Z"/><path class="cls-3" d="M576.25,102.58l-36.94,54.15a8.46,8.46,0,0,1-7.68,3.4L555.3,33C555.35,33.74,559.38,90.77,576.25,102.58Z"/><path class="cls-3" d="M413.28,522.47c-18.91,25.72-37.95,46.85-54.19,55.66-15.9,8.62-29.36,22-40.5,36.86-12.81-6-27.41-13-41.69-19.92-17.38-8.45-18-33.13-1-42.27l.49-.28c15.95-9.13,32.3-41.36,32.3-41.36Z"/><path class="cls-4" d="M237.53,75l-9.85,39.76s8.61,3.52,14.14.79S251.86,77.18,237.53,75Z"/><rect class="cls-5" x="271.11" width="287.53" height="541.26" rx="43.71"/><path class="cls-6" d="M544.39,41.46V496.18a28,28,0,0,1-27.84,28.05H313.2a28,28,0,0,1-27.84-28.05V41.46a28,28,0,0,1,27.84-28H516.55A28,28,0,0,1,544.39,41.46Z"/><path class="cls-7" d="M516.55,13.42,315.71,524.23H313.2a28,28,0,0,1-27.84-28.05V41.46a28,28,0,0,1,27.84-28Z"/><rect class="cls-5" x="359.79" y="3.17" width="110.17" height="27.15" rx="13.58"/><path class="cls-1" d="M595.15,255.79l-5.61,2.13-37.75,14.35a24.37,24.37,0,0,1-2.68.84,25.78,25.78,0,0,1-30.48-15.74l-.55-1.45A25.78,25.78,0,0,1,533,222.75l35.19-13.37,2.55-1,5.62-2.13a25.79,25.79,0,0,1,33.16,14.9l.55,1.45A25.79,25.79,0,0,1,595.15,255.79Z"/><path class="cls-8" d="M564.5,256.65c-6.3,2.39-17.71,6.63-23.81,7.5-1.72.25-4.9-.69-7.87-3.94a23.34,23.34,0,0,1-4.75-8.56,27.75,27.75,0,0,1-1.29-5.46,23.2,23.2,0,0,1,.21-6.5,6.48,6.48,0,0,1,3.6-4.64h0a148.16,148.16,0,0,1,22.89-9c5.3-1.46,10.66.88,12.34,5.51l.79,2.17,4.05,11.09C572.37,249.44,569.64,254.71,564.5,256.65Z"/><path class="cls-4" d="M564.5,256.65c-6.3,2.39-17.71,6.63-23.81,7.5-1.72.25-4.9-.69-7.87-3.94a24.58,24.58,0,0,1-.88-2.35,26.4,26.4,0,0,1-1.29-5.46,22.83,22.83,0,0,1,.2-6.5,6.5,6.5,0,0,1,3.6-4.64h0a148.29,148.29,0,0,1,22.9-9,10.82,10.82,0,0,1,9.26,1.47l4.05,11.09C572.37,249.44,569.64,254.71,564.5,256.65Z"/><rect class="cls-1" x="526.89" y="276.72" width="63.5" height="36.75" rx="16.67" transform="translate(-57.9 157.12) rotate(-15.23)"/><path class="cls-8" d="M562.28,307.43c-5.35,1.43-15,3.95-20.08,4.22-1.84.1-5.53-1.45-7.94-6.3a19.55,19.55,0,0,1-1.49-4.1,19.8,19.8,0,0,1-.65-4.28,16.79,16.79,0,0,1,.65-5,5.16,5.16,0,0,1,3.29-3.33h0a130.85,130.85,0,0,1,19.44-5.43c4.45-.78,8.68,1.36,9.72,5l.75,2.63,2.24,7.87C569.28,302.39,566.65,306.27,562.28,307.43Z"/><path class="cls-4" d="M562.28,307.43c-5.35,1.43-15,3.95-20.08,4.22-1.84.1-5.53-1.45-7.94-6.3a19,19,0,0,1-.59-4,16.86,16.86,0,0,1,.65-5,5.19,5.19,0,0,1,3.29-3.32h0a129.45,129.45,0,0,1,19.45-5.42c3.68-.65,7.21.71,8.91,3.28l2.24,7.87C569.28,302.39,566.65,306.27,562.28,307.43Z"/><path class="cls-2" d="M101.17,643.68s59.91,57.38,100.3,79.54l30.58-21.69v32s60.15,10.63,79.12,0V646.27L142.24,561.58Z"/><path class="cls-9" d="M323.93,726.58c-23.27,4.77-73.42-13.5-73.42-13.5l8.08-78.14-56.67,64.91c-28.84-10.74-73.95-38.74-100.75-56.17C87.83,635,79,628.94,79,628.94c37.82-60.86,75.86-117.78,75.86-117.78,11.17,22.34,37.6,41.74,66.25,57.25,47.61,25.79,101.35,40.85,101.35,40.85C322.46,655.7,323.93,726.58,323.93,726.58Z"/><path class="cls-1" d="M594.23,200l-.63.21L555.44,210c-16.78,4.31-34.13-4.77-38.56-20.17l-2.27-7.9c-4.26-14.79,4.89-30.26,20.48-35.28l12.6-3.23,25.57-6.56c16.78-4.32,34.13,4.76,38.56,20.17l2.27,7.9C618.28,179.53,609.44,194.77,594.23,200Z"/><path class="cls-8" d="M576.74,189.35,558.2,197.7l-.11,0a20,20,0,0,1-2.25.46l-.93.12h-.4a3,3,0,0,1-2.56-4.17,18.45,18.45,0,0,0,1-12.57l-.44-1.62a.43.43,0,0,1,0-.05l-1.44-5.26a19.79,19.79,0,0,0-6.72-10.25q-.57-.47-1.17-.87a5.32,5.32,0,0,1,1.56-9.48l.11,0,20.35-3.07c5-1.37,9.87,2.5,11.25,7.53l1.63,6,3.48,12.78C583,182.29,581.77,188,576.74,189.35Z"/><path class="cls-4" d="M576.74,189.35,558.2,197.7l-.11,0c-.44.08-1.8.31-3.58.59a3,3,0,0,1-2.56-4.17,18.45,18.45,0,0,0,1-12.57l-.44-1.62a.43.43,0,0,1,0-.05l-1.44-5.26a19.79,19.79,0,0,0-6.72-10.25,5.19,5.19,0,0,1,2.92-2.07l.12,0,20.34-3.07c4.24-1.16,8.34,1.41,10.35,5.25l3.48,12.78C583,182.29,581.77,188,576.74,189.35Z"/><path class="cls-3" d="M271.11,398.5s-8.33-72.67-16-86.84S240.92,269.1,252.73,248s15.91-61.67,15.91-61.67c4.58,46.31-9.2,80.7.46,89.8.36.34,1,.18,2-.42Z"/><rect class="cls-10" x="149.75" y="127.99" width="325.48" height="152.15" rx="37.18"/><rect class="cls-2" x="330.71" y="56.85" width="143.58" height="51.87" rx="25.93"/><path class="cls-2" d="M337.44,425H440.33a32,32,0,0,1,32,32v0a32,32,0,0,1-32,32H337.44a32,32,0,0,1-32-32v0a32,32,0,0,1,32-32Z"/><rect class="cls-2" x="359.76" y="306.65" width="166.88" height="91.85" rx="44.62"/><path class="cls-1" d="M853.31,857H628.45c-10.78-7.22-66.78-45.42-90-73.9-4.91-6-22.87-58-36.67-100.26-8.62-26.38-15.62-48.95-16.8-54.12a68.16,68.16,0,0,1-.85-10.22v-.05c-.59-17.27.21-50.56,1-77v-.47c0-1.16.07-2.3.11-3.44v0c0-.11,0-.23,0-.34.15-4.59.3-8.92.44-12.86.34-9.85.64-17.25.76-20.15l.05-1.35h0c.35-.2,11.17-6,25.63,4.44,3.49,2.52,6.71,8.6,9.66,16.53,1.88,5.06,3.64,10.88,5.29,17,6.31,23.57,10.84,51.75,13.26,59.3,3.9,12.2,49.87,65.82,52.75,69.16l.13.16V584.64l-34.7-92.86-14.25-38.13-7.16-19.15A347,347,0,0,1,517,394.77a187.82,187.82,0,0,1-10-29.37c-.55-2.3-1-4.59-1.38-6.82h0c-1.36-8.19-1.45-15.78.43-22,3.36-11,10.92-13.09,16.74-12.86.6,0,1.18.07,1.74.13a11.47,11.47,0,0,1,1.67.33,11.11,11.11,0,0,1,2.89,1.2h0A11.65,11.65,0,0,1,532.9,329s4.91,6.4,11.49,15c4.33,5.67,9.39,12.29,14.25,18.67,8.65,11.38,16.68,22,18.89,25.1,11.94,16.8,44.1,71.58,44.1,71.58l37.63,1.58a25,25,0,0,1,16,6.69c13.38,12.5,42.23,39.55,45.77,43.57,0,1.32,22.42,12.1,39.74,21.7,12.39,5.23,35.93,23.79,35.93,23.79,4.87,4.3,8.59,8.59,10.47,12.69,8.07,17.56,30,170.29,40.42,245.8C851,839.41,853.14,855.7,853.31,857Z"/><path class="cls-3" d="M621.63,459.32s34.86,56.91,39.48,59.47,22.56,6.16,24.61,0S621.63,459.32,621.63,459.32Z"/><path class="cls-3" d="M796.87,556.8l-.17-.15s-23.54-18.56-35.93-23.79c-15.9-8.82-36.1-18.62-39.3-21.19,3.69,4.22,29.66,33.6,39.65,35.8C769.89,549.41,789.82,554.86,796.87,556.8Z"/><path class="cls-3" d="M593.34,669.33V584.64S613.46,618.3,615,636.75,606.64,685.09,593.34,669.33Z"/><path class="cls-8" d="M520.35,358.56c-3-5.05-8.21-14.19-10-19.31-.52-1.45-.45-4.34,1.33-7.43a16.78,16.78,0,0,1,5.28-5.48,17.68,17.68,0,0,1,3.7-2,14.21,14.21,0,0,1,4.74-.88,5,5,0,0,1,4,2.36s0,0,0,0a147.39,147.39,0,0,1,10.91,18.28c2.08,4.33,1.43,9.33-1.61,11.53l-1.41,1L530.1,362C527.08,364.18,522.74,362.68,520.35,358.56Z"/><path class="cls-4" d="M520.35,358.56c-3-5.05-8.21-14.19-10-19.31-.52-1.45-.45-4.34,1.33-7.43a19,19,0,0,1,1.53-1.14,17.73,17.73,0,0,1,3.7-2,14.51,14.51,0,0,1,4.75-.87,5,5,0,0,1,4.05,2.35,0,0,0,0,0,0,0,146.66,146.66,0,0,1,10.91,18.28,11.09,11.09,0,0,1,.73,8.22L530.1,362C527.08,364.18,522.74,362.68,520.35,358.56Z"/><path class="cls-11" d="M274.84,198.32a46.88,46.88,0,0,1-9.79,28.77,48,48,0,0,1-6.89,7.22,47.16,47.16,0,1,1,16.68-36Z"/><path class="cls-2" d="M246.63,220.61l-.37-.39c-.54-.42-1.08-.68-3.26-1.06-1.11-.18-2.65-.4-4.84-.68l-.71-.08-.55-.05c-.63-.32-.79-2.92-.78-5.66v-.61c0-1,0-2.06.08-3,0-.06,0-.11,0-.17,1.35.11,2.24.1,2.24.1,2.51-.2,4.08-6.93,4.65-12.38a18.34,18.34,0,0,0,1.24-6.22,8,8,0,0,0-1.62-5.19,6.75,6.75,0,0,0-1.76-1.58c-.16-.16-.32-.3-.47-.44-2.34-2.59-11.84-12.32-18.08-6.7-.16-.56-2.19-6.87-12-4.8.61-.07,5-.48,6.23,1.29-.17-.08-4-1.77-6.38-.29a5.77,5.77,0,0,0-2.19,3.55,0,0,0,0,1,0,0v0h0a.06.06,0,0,0,0,0c-.05.2-.1.4-.14.6a.44.44,0,0,1,0,.1v0h0a10,10,0,0,0-.12,3.73c.36,1.54,3.08,6.12,4.88,6.12a5.37,5.37,0,0,0,2.05-.5,21.39,21.39,0,0,0-.73,2.67c-1.92,9,4.06,15.81,7.15,14.12,2-1.08,3.49,2.39,3.49,2.39h0c-.3,6.57-2.1,10.86-3.44,11.93-.48.06-1.52.18-2.81.39h0a32.66,32.66,0,0,0-8,2l-.08,0a7.85,7.85,0,0,0-2,1.09l0,0h0a3,3,0,0,0-.63.66,1.37,1.37,0,0,0-.21.3,53.18,53.18,0,0,0-3.44,9.42,40,40,0,0,0,49.74-1.56A25.06,25.06,0,0,0,246.63,220.61Z"/><rect class="cls-11" x="303.76" y="166.2" width="60.33" height="8.37" rx="4.18"/><path class="cls-11" d="M361.36,204.63H306.49a2.74,2.74,0,0,1-2.73-2.73h0a2.74,2.74,0,0,1,2.73-2.72h54.87a2.74,2.74,0,0,1,2.73,2.72h0A2.74,2.74,0,0,1,361.36,204.63Z"/><rect class="cls-11" x="303.76" y="212.08" width="35.4" height="5.45" rx="2.73"/><rect class="cls-11" x="347.63" y="212.08" width="55.69" height="5.45" rx="2.73"/><path class="cls-11" d="M447.83,204.63H375.88a2.74,2.74,0,0,1-2.73-2.73h0a2.74,2.74,0,0,1,2.73-2.72h71.95a2.74,2.74,0,0,1,2.73,2.72h0A2.74,2.74,0,0,1,447.83,204.63Z"/><path class="cls-11" d="M361.36,230.45H306.49a2.74,2.74,0,0,1-2.73-2.73h0a2.74,2.74,0,0,1,2.73-2.73h54.87a2.74,2.74,0,0,1,2.73,2.73h0A2.74,2.74,0,0,1,361.36,230.45Z"/><path class="cls-11" d="M447.83,230.45H375.88a2.74,2.74,0,0,1-2.73-2.73h0a2.74,2.74,0,0,1,2.73-2.73h71.95a2.74,2.74,0,0,1,2.73,2.73h0A2.74,2.74,0,0,1,447.83,230.45Z"/><rect class="cls-11" x="371.56" y="166.2" width="44.26" height="8.37" rx="4.18"/><rect class="cls-10" x="323.93" y="437.25" width="42.89" height="5.95" rx="2.97"/><path class="cls-10" d="M364.88,458.43h-39a2,2,0,0,1-1.94-1.94h0a1.94,1.94,0,0,1,1.94-1.94h39a1.94,1.94,0,0,1,1.94,1.94h0A2,2,0,0,1,364.88,458.43Z"/><rect class="cls-2" x="323.93" y="463.73" width="25.17" height="3.88" rx="1.94"/><rect class="cls-2" x="355.12" y="463.73" width="39.59" height="3.88" rx="1.94"/><path class="cls-10" d="M426.36,458.43H375.2a2,2,0,0,1-1.94-1.94h0a2,2,0,0,1,1.94-1.94h51.16a1.94,1.94,0,0,1,1.93,1.94h0A2,2,0,0,1,426.36,458.43Z"/><path class="cls-10" d="M364.88,476.78h-39a1.94,1.94,0,0,1-1.94-1.94h0a1.94,1.94,0,0,1,1.94-1.94h39a1.94,1.94,0,0,1,1.94,1.94h0A1.94,1.94,0,0,1,364.88,476.78Z"/><path class="cls-10" d="M426.36,476.78H375.2a2,2,0,0,1-1.94-1.94h0a2,2,0,0,1,1.94-1.94h51.16a1.94,1.94,0,0,1,1.93,1.94h0A1.94,1.94,0,0,1,426.36,476.78Z"/><rect class="cls-10" x="372.13" y="437.25" width="31.47" height="5.95" rx="2.97"/><rect class="cls-10" x="349.2" y="66.85" width="42.89" height="5.95" rx="2.97"/><path class="cls-10" d="M390.15,88h-39a2,2,0,0,1-1.94-1.94h0a2,2,0,0,1,1.94-1.94h39a1.94,1.94,0,0,1,1.93,1.94h0A1.94,1.94,0,0,1,390.15,88Z"/><rect class="cls-10" x="349.19" y="93.33" width="25.17" height="3.88" rx="1.94"/><rect class="cls-10" x="380.38" y="93.33" width="39.59" height="3.88" rx="1.94"/><path class="cls-10" d="M451.62,88H400.47a1.94,1.94,0,0,1-1.94-1.94h0a1.94,1.94,0,0,1,1.94-1.94h51.15a1.94,1.94,0,0,1,1.94,1.94h0A1.94,1.94,0,0,1,451.62,88Z"/><rect class="cls-10" x="397.4" y="66.85" width="31.47" height="5.95" rx="2.97"/><rect class="cls-10" x="379.02" y="323.49" width="46.96" height="6.51" rx="3.26"/><path class="cls-10" d="M423.86,346.67H381.14a2.14,2.14,0,0,1-2.12-2.13h0a2.13,2.13,0,0,1,2.12-2.12h42.72a2.13,2.13,0,0,1,2.12,2.12h0A2.14,2.14,0,0,1,423.86,346.67Z"/><rect class="cls-10" x="379.02" y="352.47" width="27.55" height="4.24" rx="2.12"/><rect class="cls-10" x="413.17" y="352.47" width="43.34" height="4.24" rx="2.12"/><path class="cls-10" d="M491.16,346.67h-56a2.14,2.14,0,0,1-2.13-2.13h0a2.14,2.14,0,0,1,2.13-2.12h56a2.13,2.13,0,0,1,2.12,2.12h0A2.13,2.13,0,0,1,491.16,346.67Z"/><path class="cls-10" d="M423.86,366.76H381.14a2.13,2.13,0,0,1-2.12-2.12h0a2.14,2.14,0,0,1,2.12-2.13h42.72a2.14,2.14,0,0,1,2.12,2.13h0A2.13,2.13,0,0,1,423.86,366.76Z"/><path class="cls-10" d="M491.16,366.76h-56a2.14,2.14,0,0,1-2.13-2.12h0a2.14,2.14,0,0,1,2.13-2.13h56a2.13,2.13,0,0,1,2.12,2.13h0A2.13,2.13,0,0,1,491.16,366.76Z"/><path class="cls-10" d="M423.86,377.22H381.14a2.14,2.14,0,0,1-2.12-2.13h0a2.13,2.13,0,0,1,2.12-2.12h42.72a2.13,2.13,0,0,1,2.12,2.12h0A2.14,2.14,0,0,1,423.86,377.22Z"/><path class="cls-10" d="M491.16,377.22h-56a2.14,2.14,0,0,1-2.13-2.13h0a2.14,2.14,0,0,1,2.13-2.12h56a2.13,2.13,0,0,1,2.12,2.12h0A2.13,2.13,0,0,1,491.16,377.22Z"/><rect class="cls-10" x="431.8" y="323.49" width="34.45" height="6.51" rx="3.26"/><path class="cls-11" d="M324.57,41.86l-2.89,2.08-2.92-2.06a3.56,3.56,0,0,1,5.81,0Z"/><path class="cls-11" d="M321.67,35.31a8.61,8.61,0,0,0-7,3.66l1.83,1.29a6.38,6.38,0,0,1,10.4,0l1.83-1.31A8.61,8.61,0,0,0,321.67,35.31Z"/><path class="cls-11" d="M321.67,25.67a18.22,18.22,0,0,0-14.91,7.75l1.84,1.29a16,16,0,0,1,26.09-.09l1.82-1.32A18.21,18.21,0,0,0,321.67,25.67Z"/><path class="cls-11" d="M321.67,31A13,13,0,0,0,311,36.44l1.84,1.29a10.81,10.81,0,0,1,17.55-.07l1.82-1.3A13,13,0,0,0,321.67,31Z"/><path class="cls-11" d="M305.4,348.83a18.42,18.42,0,0,0,3.85,11.29,18.72,18.72,0,0,0,5.93,5A18.55,18.55,0,0,0,334.54,364l.45-.33a18.52,18.52,0,1,0-29.59-14.85Z"/><path class="cls-2" d="M328.94,360.71l-1.7-1.51-.43.07c-.31-.21-.64-.42-1-.62.12-.69.21-1.33.29-1.89a30.54,30.54,0,0,0,.29-3.37,14.22,14.22,0,0,0,1.51-.14c1.71-.4,1.8-6.24,1.4-9.28a2.29,2.29,0,0,0,.95-.18c1.3-.58,1.37-2.54,1.37-2.54a2.35,2.35,0,0,1-.93.93s2.17-3-.34-5-5.06-.7-6.52-.61c-3.2.19-5.26.38-6.31,2.48s-.62,7.78,1.35,9.87c0,.2.07.39.1.58a3.88,3.88,0,0,0,.78,1.87,13.14,13.14,0,0,1-2.37,5.5,8.86,8.86,0,0,0-1.7,1.83l0,0h0a18.71,18.71,0,0,0-2.39,5.25,0,0,0,0,1,0,0,18.13,18.13,0,0,0,3.38,1.85l.24.1.05,0,.38.15c.32.12.63.24.95.34s.67.2,1,.29l.47.11a3.15,3.15,0,0,0,.42.09l.06,0,.28,0,.65.11.15,0,.37,0,.51.06.58,0a5.07,5.07,0,0,0,.55,0h1.76l.58,0a18.32,18.32,0,0,0,7-2.11A19.19,19.19,0,0,0,328.94,360.71Z"/><path class="cls-11" d="M487.27,456.49a18.65,18.65,0,1,0,18.65-18.65A18.52,18.52,0,0,0,487.27,456.49Z"/><path class="cls-2" d="M515.45,467.06a.71.71,0,0,0-.1-.14,1.24,1.24,0,0,0-.3-.31h0a3.76,3.76,0,0,0-.92-.51l0,0a15.26,15.26,0,0,0-3.74-.93c-.61-.1-1.09-.16-1.31-.18-.63-.5-1.47-2.5-1.61-5.57h0s.7-1.62,1.62-1.11c1.44.79,4.23-2.4,3.34-6.59a11,11,0,0,0-.34-1.24,2.5,2.5,0,0,0,1,.23c.83,0,2.1-2.14,2.27-2.86s0-3.08-1.16-3.77-2.9.1-3,.13c.58-.8,2.53-.64,2.89-.6-4.57-.95-5.51,2-5.59,2.24-2.9-2.62-7.33,1.91-8.42,3.12a2.18,2.18,0,0,0-.22.21,3.24,3.24,0,0,0-.83.73,3.77,3.77,0,0,0-.75,2.43,8.51,8.51,0,0,0,.58,2.89c.26,2.54,1,5.68,2.17,5.78,0,0,.41,0,1-.05V461c0,.43,0,.9,0,1.38v.29c0,1.28-.07,2.49-.36,2.64l-.25,0c-.12,0-.34,0-.34,0-1,.13-1.74.23-2.25.32a3,3,0,0,0-1.52.49,1.66,1.66,0,0,0-.18.19,11.58,11.58,0,0,0-3.3,4.33,18.65,18.65,0,0,0,23.19.73A24.56,24.56,0,0,0,515.45,467.06Z"/><path class="cls-11" d="M487.27,81.67a18.57,18.57,0,0,0,3.87,11.38,18.81,18.81,0,0,0,2.72,2.85,18.65,18.65,0,1,0-6.59-14.23Z"/><path class="cls-2" d="M515.45,92.24a.71.71,0,0,0-.1-.14,1.24,1.24,0,0,0-.3-.31h0a4.57,4.57,0,0,0-.92-.51l0,0a15.26,15.26,0,0,0-3.74-.93h0c-.61-.1-1.09-.16-1.31-.18a2.22,2.22,0,0,1-.48-.61h0a11.83,11.83,0,0,1-1.13-5h0s.7-1.61,1.62-1.11c1.44.79,4.23-2.4,3.34-6.58a11.19,11.19,0,0,0-.34-1.25,2.5,2.5,0,0,0,1,.23c.83,0,2.1-2.14,2.27-2.85s0-3.09-1.16-3.78-2.9.1-3,.13c.58-.8,2.54-.64,2.89-.6-4.57-1-5.51,2-5.59,2.24-2.9-2.62-7.33,1.92-8.42,3.12l-.22.21a3.31,3.31,0,0,0-.83.74,3.73,3.73,0,0,0-.75,2.42,8.44,8.44,0,0,0,.58,2.89c.26,2.55,1,5.68,2.17,5.78,0,0,.41,0,1,0v.08c0,.43,0,.91,0,1.39v.29c0,1.27-.07,2.48-.36,2.64l-.25,0-.34,0c-1,.13-1.74.24-2.25.32a3.11,3.11,0,0,0-1.52.49l-.18.19a11.68,11.68,0,0,0-3.3,4.33l.54.44.1.08c.13.1.27.21.41.3a2.86,2.86,0,0,0,.3.22,2.82,2.82,0,0,0,.31.21l.45.3.32.19.39.23c.14.09.29.17.44.25l0,0h0l.06,0,.35.18h0l.1.05.2.1.2.09.45.2L499,99l.21.08.21.08.43.15.45.15.38.11h0l.25.07c.44.12.9.23,1.36.32l.6.11.15,0h.06l.39,0h.14l.36,0h.07l.11,0,.65,0h1a18.53,18.53,0,0,0,11.14-3.69A24.86,24.86,0,0,0,515.45,92.24Z"/><path class="cls-3" d="M740.34,822.18,673.17,857H628.45c-10.78-7.22-66.78-45.42-90-73.9-4.91-6-22.87-58-36.67-100.26v0c1.83,5.6,40.35,87.64,51.32,97s68.55,63.62,84.46,63.06c15.4-.52,97.42-19.4,102.5-20.57Z"/><path class="cls-12" d="M875.49,857H633.33c12.15-4.76,58.61-22.51,106.78-34.72l.23-.05c41.37-10.47,84-16.81,107.08-7.29l.17.25Z"/><path class="cls-3" d="M485.36,537.09h0c4.08-1.49,9.81-2.48,12.59,2.18,4.34,7.24-11.78,71.15-13.79,79.19Z"/><path class="cls-4" d="M486.61,502.73l-1.39,38.65s8.13,1.33,12.75-2.12S500.15,502.27,486.61,502.73Z"/><path class="cls-7" d="M323.93,726.58c-23.27,4.77-73.42-13.5-73.42-13.5l8.08-78.14-56.67,64.91c-28.84-10.74-73.95-38.74-100.75-56.17,68.68-7.49,120-75.27,120-75.27,47.61,25.79,101.35,40.85,101.35,40.85C322.46,655.7,323.93,726.58,323.93,726.58Z"/><path class="cls-2" d="M164.24,655.61a9.44,9.44,0,1,1,9.35,9.52A9.43,9.43,0,0,1,164.24,655.61Z"/></g></g></svg>