<svg xmlns="http://www.w3.org/2000/svg" viewBox="0 0 128.43 128.43"><defs><style>.cls-1{fill:#1f2937;}.cls-2{fill:#308e62;}</style></defs><g id="Layer_2" data-name="Layer 2"><g id="Layer_1-2" data-name="Layer 1"><circle class="cls-1" cx="64.21" cy="64.21" r="64.21"/><path class="cls-2" d="M64.21,113.23c-1,0-2,0-3-.09l-1-.07.12-2,1,.06a48.39,48.39,0,0,0,5.9,0l1-.06.13,2-1,.06C66.29,113.2,65.25,113.23,64.21,113.23Zm-8.16-.67-1-.19a48.79,48.79,0,0,1-6-1.52l-1-.31.62-1.93,1,.31a44.66,44.66,0,0,0,5.71,1.46l1,.19Zm16.37,0-.37-2,1-.19a47,47,0,0,0,5.72-1.46l1-.31.63,1.92-1,.32a48.64,48.64,0,0,1-6,1.52ZM44.28,109l-.91-.43a48.86,48.86,0,0,1-5.4-3l-.85-.54,1.08-1.71.86.54a47.23,47.23,0,0,0,5.17,2.84l.91.44Zm39.91,0-.87-1.83.92-.44a46.19,46.19,0,0,0,5.16-2.84l.86-.55,1.08,1.71-.85.55a50.42,50.42,0,0,1-5.39,3Zm-50.42-6.35L33,102a51,51,0,0,1-4.49-4.21l-.69-.74,1.47-1.39.7.74a46.91,46.91,0,0,0,4.3,4l.78.65Zm60.91,0-1.29-1.56.78-.64a48.33,48.33,0,0,0,4.3-4l.69-.74L100.64,97l-.69.74A49.79,49.79,0,0,1,95.46,102ZM25.17,93.87l-.59-.82a48.35,48.35,0,0,1-3.31-5.18L20.78,87l1.78-1,.49.89a46.86,46.86,0,0,0,3.16,5l.6.82Zm78.11,0-1.64-1.19.59-.82a47.08,47.08,0,0,0,3.17-5l.49-.89,1.77,1-.48.89A48.49,48.49,0,0,1,103.87,93ZM19,83.25l-.38-.94a50.05,50.05,0,0,1-1.9-5.86l-.26-1,2-.5.25,1a45.93,45.93,0,0,0,1.83,5.61l.37.94Zm90.41,0-1.89-.75.38-.94a47.67,47.67,0,0,0,1.82-5.61l.25-1,2,.5-.25,1a50.05,50.05,0,0,1-1.9,5.86ZM15.71,71.41l-.13-1a50.23,50.23,0,0,1-.38-6.14v-1h2v1a48,48,0,0,0,.37,5.88l.13,1Zm97,0-2-.25.13-1a48.13,48.13,0,0,0,.36-5.89V63.09h2v1.12a50.11,50.11,0,0,1-.38,6.14Zm-95.26-12-2-.25.12-1a49.61,49.61,0,0,1,1.14-6.05l.25-1,2,.5-.25,1a47.41,47.41,0,0,0-1.09,5.8ZM111,59.22l-.13-1a45.16,45.16,0,0,0-1.11-5.79l-.25-1,2-.5.25,1a46,46,0,0,1,1.16,6l.13,1ZM20.12,47.91l-1.89-.75.37-.94a51.41,51.41,0,0,1,2.62-5.57l.49-.89,1.78,1-.49.89A46.34,46.34,0,0,0,20.49,47Zm88.13-.15-.37-.94a46.34,46.34,0,0,0-2.53-5.33l-.49-.88,1.78-1,.49.89a47.82,47.82,0,0,1,2.63,5.56l.38.94ZM25.56,37.46l-1.63-1.19.59-.82a49.42,49.42,0,0,1,3.92-4.75l.69-.74,1.48,1.39-.69.74a46.8,46.8,0,0,0-3.76,4.55Zm77.22-.12-.6-.82A48,48,0,0,0,98.41,32l-.7-.73,1.48-1.39.69.73a49.5,49.5,0,0,1,3.94,4.74l.59.81ZM33.43,28.69l-1.29-1.56.78-.65a50.46,50.46,0,0,1,5-3.62l.85-.55L39.83,24l-.85.55A47.56,47.56,0,0,0,34.21,28Zm61.45-.09L94.1,28a46.48,46.48,0,0,0-4.78-3.46L88.47,24l1.08-1.72.86.55a48.92,48.92,0,0,1,5,3.61l.78.64ZM43.22,22.15l-.86-1.84.91-.43A49.31,49.31,0,0,1,49,17.61l1-.32.63,1.93-1,.31a47,47,0,0,0-5.48,2.18Zm41.85-.07-.92-.43a47.79,47.79,0,0,0-5.49-2.17l-1-.31.63-1.93,1,.32A47,47,0,0,1,85,19.81l.92.43ZM54.34,18.25l-.38-2,1-.19a50,50,0,0,1,6.11-.77l1-.07.13,2-1,.07a45.78,45.78,0,0,0-5.86.74Zm19.6,0-1-.19a47.68,47.68,0,0,0-5.85-.72l-1-.06.12-2,1,.06a48.09,48.09,0,0,1,6.11.75l1,.19Z"/></g></g></svg>