<svg xmlns="http://www.w3.org/2000/svg" xmlns:xlink="http://www.w3.org/1999/xlink" viewBox="0 0 728.6 718.71"><defs><style>.cls-1{fill:#e2e5ef;}.cls-2{fill:#c6bbf9;}.cls-3{fill:#ece8fa;}.cls-4{fill:#308d62;}.cls-5{fill:url(#linear-gradient);}.cls-6{fill:url(#linear-gradient-2);}.cls-7{fill:url(#linear-gradient-3);}.cls-8{fill:url(#linear-gradient-4);}.cls-9{fill:url(#linear-gradient-5);}.cls-10{fill:url(#linear-gradient-6);}.cls-11{fill:url(#linear-gradient-7);}.cls-12{fill:url(#linear-gradient-8);}.cls-13{fill:url(#linear-gradient-9);}.cls-14{fill:url(#linear-gradient-10);}.cls-15{fill:url(#linear-gradient-11);}.cls-16{fill:#fcc5ce;}.cls-17{fill:#fff;}</style><linearGradient id="linear-gradient" x1="765.5" y1="-1208.45" x2="903.96" y2="-1208.45" gradientTransform="matrix(0.96, 0.27, -0.27, 0.96, -771.72, 1534.08)" gradientUnits="userSpaceOnUse"><stop offset="0" stop-color="#febbba"/><stop offset="1" stop-color="#ff928e"/></linearGradient><linearGradient id="linear-gradient-2" x1="152.26" y1="482.21" x2="263.37" y2="334.64" gradientTransform="matrix(1, 0, 0, 1, 0, 0)" xlink:href="#linear-gradient"/><linearGradient id="linear-gradient-3" x1="-32.6" y1="1014.93" x2="-384.28" y2="1626.06" gradientTransform="translate(174.69 -402.82) rotate(-3.91)" xlink:href="#linear-gradient"/><linearGradient id="linear-gradient-4" x1="541.02" y1="59.67" x2="427.7" y2="146.37" gradientTransform="translate(-224.21 157.65) rotate(6.37)" xlink:href="#linear-gradient"/><linearGradient id="linear-gradient-5" x1="461.41" y1="-8.78" x2="564.02" y2="123.34" gradientTransform="translate(-224.21 157.65) rotate(6.37)" gradientUnits="userSpaceOnUse"><stop offset="0" stop-color="#09005d"/><stop offset="1" stop-color="#1a0f91"/></linearGradient><linearGradient id="linear-gradient-6" x1="526.96" y1="41.3" x2="413.65" y2="128" gradientTransform="translate(-224.21 157.65) rotate(6.37)" xlink:href="#linear-gradient"/><linearGradient id="linear-gradient-7" x1="190.99" y1="661.19" x2="447.5" y2="661.19" gradientUnits="userSpaceOnUse"><stop offset="0" stop-color="#216244"/><stop offset="1" stop-color="#308d62"/></linearGradient><linearGradient id="linear-gradient-8" x1="12.19" y1="693.55" x2="727.73" y2="693.55" xlink:href="#linear-gradient-7"/><linearGradient id="linear-gradient-9" x1="355.87" y1="494.18" x2="722.14" y2="494.18" xlink:href="#linear-gradient-7"/><linearGradient id="linear-gradient-10" x1="459.57" y1="594.08" x2="572.03" y2="594.08" xlink:href="#linear-gradient-7"/><linearGradient id="linear-gradient-11" x1="417.22" y1="661.26" x2="590.55" y2="661.26" xlink:href="#linear-gradient-7"/></defs><g id="Layer_2" data-name="Layer 2"><g id="Layer_1-2" data-name="Layer 1"><path class="cls-1" d="M697.26,484.86c-69,162.42-252.72,253.41-412.07,228.86-25.93-4-97-15.89-159.95-72C4.08,533.66-21.83,319.71,75.91,168.94,147,59.21,274.55-3,395.71.11c26.1.67,126.12,4.8,214,77.28a330,330,0,0,1,67,76.08C737,247.71,742.22,379,697.26,484.86Z"/><path class="cls-2" d="M267.91,236.84a1.47,1.47,0,0,1-1.18-.75c-1-1.69-2-3.39-3-5a1.48,1.48,0,0,1,2.51-1.58c1.06,1.68,2.1,3.41,3.08,5.15a1.48,1.48,0,0,1-1.4,2.21Z"/><path class="cls-2" d="M150,423.09c-2.24-.14-4.55-.4-6.79-.68a1.49,1.49,0,0,1,.38-3c2.19.29,4.46.5,6.63.67,1.61.12,3.26.21,4.9.27a1.44,1.44,0,0,1,1.44,1.53,1.49,1.49,0,0,1-1.54,1.43C153.33,423.31,151.64,423.22,150,423.09Zm24-.55a1.48,1.48,0,0,1-.06-3c3.69-.44,7.43-1.06,11.09-1.84l.32-.07a1.49,1.49,0,0,1,.62,2.91l-.32.06c-3.75.8-7.58,1.43-11.36,1.89Zm29.78-7.31a1.48,1.48,0,0,1-.41-2.86c3.6-1.37,7.17-2.93,10.61-4.62a1.49,1.49,0,0,1,1.31,2.67c-3.52,1.73-7.18,3.32-10.87,4.72A1.42,1.42,0,0,1,203.73,415.23Zm27.1-14.33a1.49,1.49,0,0,1-.74-2.7c3.15-2.2,6.23-4.58,9.15-7.07a1.49,1.49,0,1,1,1.93,2.26c-3,2.55-6.16,5-9.38,7.24A1.53,1.53,0,0,1,230.83,400.9Zm22.77-20.54a1.5,1.5,0,0,1-.86-.36,1.48,1.48,0,0,1-.15-2.09c2.51-2.9,4.92-6,7.16-9.09a1.48,1.48,0,1,1,2.41,1.73c-2.29,3.2-4.76,6.33-7.33,9.3A1.49,1.49,0,0,1,253.6,380.36Zm17.1-25.46a1.43,1.43,0,0,1-.56-.16,1.48,1.48,0,0,1-.66-2c1.74-3.43,3.34-7,4.75-10.55a1.48,1.48,0,1,1,2.76,1.09c-1.44,3.65-3.08,7.29-4.86,10.8A1.49,1.49,0,0,1,270.7,354.9Zm10.41-28.85a.83.83,0,0,1-.22,0,1.48,1.48,0,0,1-1.12-1.77c.85-3.76,1.53-7.59,2-11.4a1.49,1.49,0,0,1,2.95.38c-.51,3.9-1.2,7.83-2.07,11.67A1.48,1.48,0,0,1,281.11,326.05Zm3-30.53a1.48,1.48,0,0,1-1.37-1.44c-.1-3.84-.38-7.72-.84-11.54a1.5,1.5,0,0,1,1.3-1.65,1.48,1.48,0,0,1,1.65,1.3c.47,3.91.76,7.89.85,11.82a1.48,1.48,0,0,1-1.44,1.52Zm-4.51-30.34a1.48,1.48,0,0,1-1.32-1.08c-1-3.72-2.23-7.42-3.59-11a1.49,1.49,0,1,1,2.78-1c1.39,3.66,2.62,7.45,3.67,11.26a1.48,1.48,0,0,1-1.54,1.87Z"/><path class="cls-2" d="M124.6,418.53a1.7,1.7,0,0,1-.31-.06c-1.91-.55-3.83-1.16-5.72-1.8a1.49,1.49,0,0,1-.93-1.89,1.47,1.47,0,0,1,1.89-.92c1.84.63,3.73,1.22,5.59,1.76a1.49,1.49,0,0,1-.52,2.91Z"/><path class="cls-2" d="M48.38,356.08a1.46,1.46,0,0,1-1.21-.79c-.91-1.76-1.8-3.57-2.64-5.4a1.49,1.49,0,0,1,2.7-1.24c.82,1.78,1.68,3.56,2.57,5.27a1.48,1.48,0,0,1-.63,2A1.5,1.5,0,0,1,48.38,356.08Z"/><path class="cls-2" d="M39.26,333.21a1.49,1.49,0,0,1-1.32-1.07c-.84-2.92-1.59-5.91-2.22-8.88-.17-.82-.34-1.64-.49-2.45a1.48,1.48,0,1,1,2.91-.57c.16.8.32,1.6.49,2.4.61,2.91,1.34,5.83,2.16,8.68a1.48,1.48,0,0,1-1,1.84A1.56,1.56,0,0,1,39.26,333.21Zm-4.84-29.79A1.48,1.48,0,0,1,33.05,302c-.16-3.87-.14-7.79.06-11.66a1.49,1.49,0,0,1,1.56-1.4,1.51,1.51,0,0,1,1.41,1.56c-.2,3.78-.22,7.61-.07,11.38a1.47,1.47,0,0,1-1.42,1.54Zm2.45-30.08-.19,0a1.48,1.48,0,0,1-1.15-1.75c.78-3.79,1.75-7.59,2.88-11.3a1.49,1.49,0,0,1,2.84.87c-1.11,3.61-2,7.32-2.82,11A1.48,1.48,0,0,1,36.87,273.34Zm9.63-28.6a1.67,1.67,0,0,1-.53-.14,1.49,1.49,0,0,1-.7-2c1.67-3.5,3.52-7,5.5-10.28a1.48,1.48,0,0,1,2.55,1.52c-1.94,3.25-3.74,6.63-5.37,10A1.49,1.49,0,0,1,46.5,244.74Zm16.18-25.47a1.48,1.48,0,0,1-1-2.42c2.45-3,5.08-5.91,7.79-8.67a1.49,1.49,0,0,1,2.12,2.09c-2.66,2.69-5.22,5.54-7.61,8.46A1.49,1.49,0,0,1,62.68,219.27Zm21.8-20.86a1.45,1.45,0,0,1-1.08-.59,1.48,1.48,0,0,1,.3-2.08c3.09-2.31,6.34-4.51,9.64-6.54a1.48,1.48,0,0,1,1.55,2.53c-3.23,2-6.39,4.13-9.42,6.39A1.44,1.44,0,0,1,84.48,198.41Zm26.17-15a1.48,1.48,0,0,1-1.26-.9,1.49,1.49,0,0,1,.79-1.95c3.57-1.5,7.25-2.85,10.94-4a1.48,1.48,0,0,1,.89,2.83c-3.6,1.14-7.19,2.46-10.68,3.93A1.46,1.46,0,0,1,110.65,183.41Zm29-8.28a1.48,1.48,0,0,1-.12-2.94c3.82-.61,7.72-1.05,11.58-1.31a1.48,1.48,0,1,1,.2,3c-3.77.25-7.58.68-11.31,1.28A1.37,1.37,0,0,1,139.66,175.13Zm41.58.38-.15,0c-3.73-.66-7.52-1.16-11.28-1.48a1.48,1.48,0,0,1,.23-3h0c3.85.33,7.74.84,11.55,1.52a1.48,1.48,0,0,1-.37,2.94Z"/><path class="cls-2" d="M205,182.26a1.67,1.67,0,0,1-.43-.1c-1.81-.72-3.66-1.4-5.5-2a1.48,1.48,0,1,1,.95-2.8c1.89.64,3.79,1.34,5.64,2.07a1.49,1.49,0,0,1-.66,2.86Z"/><path class="cls-2" d="M205.47,212.87a1.49,1.49,0,0,0-1.74,0L189,223.65a79.51,79.51,0,0,0-25.15-5.52L155,202.21a1.51,1.51,0,0,0-1.57-.74l-21.55,3.86a1.48,1.48,0,0,0-1.21,1.24l-2.82,18a79.27,79.27,0,0,0-21.67,13.9l-17.56-5a1.5,1.5,0,0,0-1.64.58l-12.5,18a1.49,1.49,0,0,0,0,1.74l10.76,14.73a79.57,79.57,0,0,0-5.52,25.16l-15.92,8.89a1.51,1.51,0,0,0-.74,1.57l3.86,21.54a1.5,1.5,0,0,0,1.24,1.22l18,2.81a79.47,79.47,0,0,0,13.9,21.68l-5,17.55a1.49,1.49,0,0,0,.58,1.64l18,12.51a1.52,1.52,0,0,0,1.74,0l14.73-10.76a79.56,79.56,0,0,0,25.16,5.51l8.89,15.92a1.5,1.5,0,0,0,1.57.75l21.54-3.86a1.5,1.5,0,0,0,1.22-1.25l2.81-18A79.74,79.74,0,0,0,213,357.48l17.55,5a1.5,1.5,0,0,0,1.64-.59l12.51-18a1.52,1.52,0,0,0,0-1.74l-10.76-14.74a79.5,79.5,0,0,0,5.51-25.15l15.92-8.89a1.5,1.5,0,0,0,.75-1.57l-3.86-21.55a1.48,1.48,0,0,0-1.25-1.21l-18-2.82a79.74,79.74,0,0,0-13.9-21.67L224,227a1.51,1.51,0,0,0-.59-1.64Z"/><path class="cls-3" d="M158,319.6a21.67,21.67,0,1,1,10.51-1.87A21.57,21.57,0,0,1,158,319.6Zm2.85-38.78a17.27,17.27,0,1,0,4.81,1.07A17.18,17.18,0,0,0,160.81,280.82Z"/><path class="cls-3" d="M155.12,353.29a55.1,55.1,0,0,1-50-45.19,55.24,55.24,0,0,1-.72-13.91,55.11,55.11,0,0,1,45.19-50c.38-.07.76-.14,1.14-.19a54.69,54.69,0,0,1,9.38-.68l1.17,0-.16,4.45a50.37,50.37,0,0,0-10.74.77h0a50.19,50.19,0,0,0-31.33,19.15c-.44.57-.86,1.15-1.27,1.74a50.22,50.22,0,0,0-8.94,25,50.93,50.93,0,0,0,.66,12.78,50.59,50.59,0,0,0,100.25-5.17,51.23,51.23,0,0,0-.66-12.67,50.51,50.51,0,0,0-11.64-24.3l3.36-2.93A55,55,0,0,1,169,352.57,55.63,55.63,0,0,1,155.12,353.29Z"/><path class="cls-2" d="M429.26,179.26a2,2,0,0,1-1.62-1.08c-1.16-2.29-2.45-4.54-3.82-6.71a2,2,0,0,1,3.35-2.11c1.43,2.27,2.77,4.63,4,7a2,2,0,0,1-.86,2.66A1.93,1.93,0,0,1,429.26,179.26Z"/><path class="cls-2" d="M359.09,303.3a2,2,0,0,1,0-3.94,84.6,84.6,0,0,0,11.48-1.63c1.34-.28,2.67-.6,4-.94a2,2,0,1,1,1,3.82c-1.37.36-2.75.69-4.15,1a89.62,89.62,0,0,1-12,1.7Zm39.63-13a2,2,0,0,1-.91-3.65,82.91,82.91,0,0,0,12.38-9.56,2,2,0,1,1,2.7,2.89,87.45,87.45,0,0,1-13,10A2,2,0,0,1,398.72,290.33Zm28.75-30.2a2,2,0,0,1-.83-.25,2,2,0,0,1-.74-2.7,84.19,84.19,0,0,0,6.4-14.28,2,2,0,0,1,3.75,1.27,87.62,87.62,0,0,1-6.72,15A2,2,0,0,1,427.47,260.13Zm11.07-40.2a2,2,0,0,1-1.83-2,83.48,83.48,0,0,0-1.14-15.61,2,2,0,0,1,3.9-.66,88.11,88.11,0,0,1,1.2,16.36,2,2,0,0,1-2,1.93Z"/><path class="cls-2" d="M333.11,301.15l-.32,0c-2.61-.63-5.23-1.39-7.76-2.26a2,2,0,1,1,1.28-3.74c2.42.83,4.91,1.55,7.41,2.15a2,2,0,0,1-.61,3.9Z"/><path class="cls-2" d="M277.25,257.45a2,2,0,0,1-1.61-1.07c-1.23-2.37-2.37-4.85-3.38-7.34a2,2,0,1,1,3.66-1.49c1,2.39,2.05,4.74,3.23,7a2,2,0,0,1-.84,2.67A2.11,2.11,0,0,1,277.25,257.45Z"/><path class="cls-2" d="M268,225.42a2,2,0,0,1-1.82-1.8,88.38,88.38,0,0,1-.1-14.09c.06-.68.11-1.36.18-2a2.05,2.05,0,0,1,2.16-1.78,2,2,0,0,1,1.78,2.17c-.07.65-.12,1.29-.17,2a82.62,82.62,0,0,0,.08,13.44,2,2,0,0,1-1.79,2.14Zm6.38-40.52a2.25,2.25,0,0,1-.62-.15,2,2,0,0,1-1.06-2.59A87.78,87.78,0,0,1,280.27,168a2,2,0,0,1,3.3,2.17,83.85,83.85,0,0,0-7.26,13.57A2,2,0,0,1,274.34,184.9ZM298.85,152a2,2,0,0,1-1.38-.71,2,2,0,0,1,.27-2.78,86.22,86.22,0,0,1,13.34-9.05,2,2,0,1,1,1.91,3.46,83.44,83.44,0,0,0-12.74,8.64A2,2,0,0,1,298.85,152Zm37-17.65a2,2,0,0,1-.25-3.91,87.53,87.53,0,0,1,16-1.79,1.93,1.93,0,0,1,2,1.93,2,2,0,0,1-1.94,2,84.06,84.06,0,0,0-15.3,1.72A2.57,2.57,0,0,1,335.86,134.36Z"/><path class="cls-2" d="M384.39,138.53a2,2,0,0,1-.58-.13c-2.38-.94-4.84-1.79-7.3-2.5a2,2,0,0,1,1.1-3.8c2.58.75,5.15,1.63,7.65,2.62a2,2,0,0,1-.87,3.81Z"/><path class="cls-2" d="M384.79,158.51a1,1,0,0,0-1.19,0l-10.08,7.36a54.26,54.26,0,0,0-17.21-3.77l-6.08-10.9a1,1,0,0,0-1.08-.5l-14.74,2.63a1,1,0,0,0-.83.86l-1.92,12.32A54.34,54.34,0,0,0,316.83,176l-12-3.4a1,1,0,0,0-1.12.4l-8.55,12.29a1,1,0,0,0,0,1.19l7.36,10.08a54.26,54.26,0,0,0-3.77,17.21l-10.89,6.08a1,1,0,0,0-.51,1.08L290,235.7a1,1,0,0,0,.85.84l12.32,1.92a54.49,54.49,0,0,0,9.51,14.83l-3.4,12a1,1,0,0,0,.4,1.12L322,275a1,1,0,0,0,1.19,0l10.08-7.36a54.54,54.54,0,0,0,17.21,3.77l6.08,10.89a1,1,0,0,0,1.08.51l14.73-2.64a1,1,0,0,0,.84-.85L375.09,267a54.52,54.52,0,0,0,14.83-9.52l12,3.41a1,1,0,0,0,1.12-.4l8.55-12.29a1,1,0,0,0,0-1.19l-7.36-10.08A54.26,54.26,0,0,0,408,219.68l10.89-6.08a1,1,0,0,0,.51-1.08l-2.64-14.74a1,1,0,0,0-.85-.83L403.59,195a54.57,54.57,0,0,0-9.51-14.83l3.4-12a1,1,0,0,0-.4-1.12Z"/><path class="cls-3" d="M352.19,233a16.26,16.26,0,0,1-5.51-31h0a16.26,16.26,0,1,1,5.51,31Zm-3.07-25.63a10.33,10.33,0,1,0,13.67,5.16,10.35,10.35,0,0,0-13.67-5.16Z"/><path class="cls-3" d="M350.24,256a39.15,39.15,0,0,1-35.51-32.1,39.53,39.53,0,0,1-.51-9.87,39.12,39.12,0,0,1,32.1-35.5,40,40,0,0,1,8.3-.6l-.21,5.93a33.35,33.35,0,0,0-7,.51,32.92,32.92,0,0,0-20.7,12.75c-.07.11-.15.21-.22.31l-.45.63a33,33,0,0,0-5.87,16.42,33.73,33.73,0,0,0,.44,8.37,33.17,33.17,0,0,0,65.72-3.31,33.24,33.24,0,0,0-8.06-24.31l4.47-3.9A39.12,39.12,0,0,1,350.24,256Z"/><path class="cls-4" d="M299.74,576c-51.39-11.33-12.68-87.56-10.86-90.51L196.8,517.83s-8.23,44.31,49.08,85.1c14.5,10.31,29.17,14.76,43,15.67A72.47,72.47,0,0,1,299.74,576Z"/><path class="cls-5" d="M404.33,579.51c-15.1-18.45-40.15-11.43-40.15-11.43-29.86,9.3-50.47,11-64.44,7.92a72.47,72.47,0,0,0-10.86,42.6c29.92,2,55.9-12.7,67.65-20.68a9.47,9.47,0,0,1,13,2.21c3,4.21,5.64,9.53,3.68,13.8-3.86,8.41,5.55,14.11,7.23,11.14s2.8-23.1,2.8-23.1,14.57,26.34,20.29,36.5,18,5.12,18,5.12S419.43,598,404.33,579.51Z"/><path class="cls-4" d="M94.77,382.37S159.43,331.43,329,403.88c0,0,18.34,20.23,12.09,44.88S246.53,610.59,247,672.11c0,0-63.81,43.7-152.79,10.82C94.17,682.93,54.11,523.16,94.77,382.37Z"/><path class="cls-6" d="M232,313.5l-23.2,54.37a15,15,0,0,0,2.65,16c8,8.74,24.29,20.12,50,10.3A23.09,23.09,0,0,0,276,376.38l9.87-59.58Z"/><path class="cls-4" d="M93.19,586.43c-18.71-32.15,44.73-134.79,44.73-134.79L94.77,382.37S-54.86,561.08,21.91,646.75c11,12.28,23,19.62,35.42,23.23C60.44,625.23,78.88,599.69,93.19,586.43Z"/><path class="cls-4" d="M91.64,586.39a2.12,2.12,0,0,1-2.43-1c-19.13-32.87,42.14-132.74,44.76-137a2.12,2.12,0,1,1,3.61,2.24c-.63,1-62.56,101.92-44.7,132.6a2.12,2.12,0,0,1-.77,2.91A2.46,2.46,0,0,1,91.64,586.39Z"/><path class="cls-7" d="M243.63,582.89c-11.48,3.18-22.16,8.89-33.7,11.83-12.81,3.26-25.47,7.09-38.37,10-20.07,4.52-46.47,9.7-64.09-4.09C106,599.45,94,585.94,93.19,586.43,61.19,604.92,55,648.12,55,669.07c58.34,31.9,150.09-30.21,174.8-48.37a19.35,19.35,0,0,1,14.1-3.59c10.11,1.38,27.53,3.25,36.72,1.18,13.43-3,36.21,43.56,57.22,27.28C337.81,645.57,313.27,563.58,243.63,582.89Z"/><path class="cls-8" d="M307.15,236.65S321.8,284.1,320.48,308s2.07,39.88-25.93,41.6S245,335.06,235.05,310c0,0-15.57-38.64-9.5-53.08S307.15,236.65,307.15,236.65Z"/><path class="cls-9" d="M246.34,294l3.47.39s-11-30.94,2.11-34.69,64.06-8.36,76.78-24.82C341,219,334.17,196,321,188.31a1.86,1.86,0,0,0-2.45.61l-1.39,2a1.88,1.88,0,0,1-3.4-.74h0a1.87,1.87,0,0,0-3.28-.89c-3.88,4.92-13.74,12.52-38.12,14.26-34.58,2.48-58.51,13.69-61.67,37a1.88,1.88,0,0,1-3.06,1.21c-2.33-1.81-6.26-3-12.11.93-10.18,6.79-8.63,27.51,9.9,46.48a1.86,1.86,0,0,1-.42,3c-4,2-10.12,7.11,3.31,16.33,13.74,9.44,22.49,9.56,25.84,9.09a1.89,1.89,0,0,0,1.63-1.78l1-20.89a1.89,1.89,0,0,1,2.08-1.78Z"/><path class="cls-10" d="M246.7,298.48s-4.29-29.75-18.15-23.09,3.11,33.14,13.41,35.38Z"/><path class="cls-11" d="M201.2,673h.54l235.43-3.64a10,10,0,1,0-.41-20L201.32,653a10,10,0,1,0-.12,20Z"/><path class="cls-4" d="M292.84,328.34c-41.95,3.56-76.27-29.29-76.51-29.78v-7.41c.23.48,36.39,37,76.27,33.6Z"/><path class="cls-4" d="M309.94,326.52a4.8,4.8,0,0,1-4.5,5.05h-12a4.8,4.8,0,0,1-4.5-5.05h0a4.81,4.81,0,0,1,4.5-5.06h12a4.81,4.81,0,0,1,4.5,5.06Z"/><path class="cls-4" d="M237.76,253.91s-9.58-51.12,49.51-51.4a.69.69,0,0,0,.16-1.36c-16.19-3.73-63.17-9.26-63.88,52.08C232.55,256.47,237.76,253.91,237.76,253.91Z"/><path class="cls-4" d="M226.93,247.67c-23.05,4.68-20.22,33.84-20.22,33.84-1.66,21.16,4.51,31.65,12.43,36.65A18.22,18.22,0,0,0,247,304.09c.43-5.76.92-11.23,1.34-13.18C249.4,286.2,250,243,226.93,247.67Z"/><path class="cls-4" d="M229.05,255a10.49,10.49,0,0,0-11.43,6.18c-13.78,31.92,3.14,52.69,11.45,53.12,8.75.46,8.57-41.66,6.71-52.46A7.7,7.7,0,0,0,229.05,255Z"/><path class="cls-12" d="M12.32,681.07a13.22,13.22,0,0,1,1.46-8.2c1.31-2.29,3.27-3.61,5.34-3.61H719.76c2.72,0,5.25,2,6.72,5.27a15.81,15.81,0,0,1,.52,10.94L719.41,709c-1.74,5.39-5.51,8.84-9.66,8.84H23.93c-3.86,0-7.17-3.92-7.9-9.34Z"/><path class="cls-4" d="M709.75,718.71H23.93c-4.29,0-8-4.25-8.76-10.09l-3.71-27.44A14,14,0,0,1,13,672.44c1.47-2.57,3.7-4.05,6.09-4.05H719.76c3.08,0,5.89,2.16,7.51,5.78a16.58,16.58,0,0,1,.55,11.56l-7.59,23.54C718.38,715,714.27,718.71,709.75,718.71ZM13.18,681l3.71,27.44c.67,5,3.63,8.58,7,8.58H709.75c3.75,0,7.21-3.23,8.83-8.24l7.59-23.53a14.82,14.82,0,0,0-.49-10.32c-1.33-3-3.54-4.75-5.92-4.75H19.12c-1.76,0-3.43,1.15-4.59,3.17A12.28,12.28,0,0,0,13.18,681Z"/><path class="cls-13" d="M382.81,401.88c-4,32.34-21.76,163.73-26.86,201.27a8.63,8.63,0,0,0,8.81,9.77l302-8.64a8.65,8.65,0,0,0,8.18-6.76l47-211.58A8.64,8.64,0,0,0,713,375.45L390.87,394.32A8.62,8.62,0,0,0,382.81,401.88Z"/><path class="cls-14" d="M504.21,534.57,459.57,661.26l103.79,2.2L572,535.33a10,10,0,0,0-10.59-10.61l-48.47,3.22A10,10,0,0,0,504.21,534.57Z"/><path class="cls-4" d="M564.17,664.34h-.83l-105-2.23,45-127.82a10.82,10.82,0,0,1,9.49-7.21l48.47-3.21a10.82,10.82,0,0,1,11.52,11.53Zm-103.38-3.93,101.76,2.16,8.59-127.3a9.08,9.08,0,0,0-9.67-9.68L513,528.81a9.08,9.08,0,0,0-8,6Z"/><path class="cls-15" d="M417.49,663.06h0a5.39,5.39,0,0,0,5.13,7.07H585.16a5.39,5.39,0,0,0,5.39-5.39v-7a5.38,5.38,0,0,0-5.62-5.38l-162.54,7A5.39,5.39,0,0,0,417.49,663.06Z"/><path class="cls-4" d="M585.16,671H422.62a6.26,6.26,0,0,1-5.95-8.21,6.29,6.29,0,0,1,5.68-4.3l162.54-7a6.25,6.25,0,0,1,6.53,6.25v7A6.27,6.27,0,0,1,585.16,671Zm0-17.75H585l-162.54,7a4.54,4.54,0,0,0-4.1,3.11h0a4.52,4.52,0,0,0,4.3,5.94H585.16a4.53,4.53,0,0,0,4.52-4.53v-7a4.52,4.52,0,0,0-4.52-4.52Z"/><path class="cls-4" d="M378.25,535.55l-2.15-.27,14.84-117A15.24,15.24,0,0,1,405.13,405L683.5,388.15l.13,2.16L405.26,407.12a13.07,13.07,0,0,0-12.17,11.4Z"/><rect class="cls-4" x="358.57" y="580.33" width="25.54" height="2.16" transform="translate(-251.94 877.13) rotate(-82.82)"/><path class="cls-16" d="M474.64,91.07v65.15a14.49,14.49,0,0,0,13.81,14.48l81.48,3.83a14.49,14.49,0,0,0,15.17-14.48v-69a14.5,14.5,0,0,0-14.49-14.5H489.13A14.5,14.5,0,0,0,474.64,91.07Z"/><path class="cls-17" d="M505.73,108.61l-3.18-11.76-9.28-5.06L492,94.05l8.31,4.49,9.9,36.29.3,1.08h40.39a11.46,11.46,0,0,0,9.69-5.24l1.81-2.39a18.77,18.77,0,0,0,3.23-10.08v-9.59Zm57,9.59a16.08,16.08,0,0,1-2.65,8.7l-1.6,2.69a9.24,9.24,0,0,1-7.55,4.37H512.52l-2.1-7.76-4-14.67h56.29Z"/><path class="cls-17" d="M560.22,149.07a1.44,1.44,0,0,1-1.3,1.46H511.53c-.71,0-1.45-1.12-1.45-1.83V126.35c0-.24.14-.19.26-.39l2.18,8H513v13.65h45.92A1.45,1.45,0,0,1,560.22,149.07Z"/><rect class="cls-17" x="533.91" y="109.9" width="1.73" height="24.32"/><rect class="cls-17" x="518.63" y="109.9" width="1.73" height="24.32"/><rect class="cls-17" x="548.83" y="109.9" width="1.73" height="24.32"/><rect class="cls-17" x="507.1" y="117.06" width="56.26" height="1.55"/><rect class="cls-17" x="509.55" y="125.53" width="52.39" height="1.55"/><path class="cls-17" d="M517.6,152.2a5.59,5.59,0,1,0,5.59,5.59A5.59,5.59,0,0,0,517.6,152.2Zm0,9a3.37,3.37,0,1,1,3.37-3.37A3.37,3.37,0,0,1,517.6,161.16Z"/><path class="cls-17" d="M552.32,152.2a5.59,5.59,0,1,0,5.59,5.59A5.6,5.6,0,0,0,552.32,152.2Zm0,9a3.37,3.37,0,1,1,3.37-3.37A3.37,3.37,0,0,1,552.32,161.16Z"/><path class="cls-17" d="M499,94.05a2.62,2.62,0,0,1-2.63,2.62h-8.73A2.62,2.62,0,0,1,485,94.05h0a2.63,2.63,0,0,1,2.63-2.63h8.73A2.63,2.63,0,0,1,499,94.05Z"/><path class="cls-16" d="M298,15.74V85.63a15.56,15.56,0,0,0,14.82,15.54l87.4,4.1a15.55,15.55,0,0,0,16.28-15.53v-74A15.55,15.55,0,0,0,401,.2h-87.4A15.55,15.55,0,0,0,298,15.74Z"/><path class="cls-17" d="M387.51,84.37H327.28a8.2,8.2,0,0,1-8.18-8.19V32.13A8.19,8.19,0,0,1,327.28,24h60.23a8.19,8.19,0,0,1,8.19,8.18V76.18A8.2,8.2,0,0,1,387.51,84.37Zm-60.23-55a2.8,2.8,0,0,0-2.79,2.79V76.18A2.8,2.8,0,0,0,327.28,79h60.23a2.8,2.8,0,0,0,2.8-2.79V32.13a2.81,2.81,0,0,0-2.8-2.79Z"/><path class="cls-17" d="M357.45,55.13a2.73,2.73,0,0,1-1.56-.5L322.14,30.7a2.7,2.7,0,1,1,3.12-4.4l32.19,22.83,31.77-22.57a2.7,2.7,0,0,1,3.12,4.4L359,54.63A2.68,2.68,0,0,1,357.45,55.13Z"/><path class="cls-17" d="M324.12,82.48l-.78-5.33.36,2.67-2.26-1.47c.63-1,12.8-22.3,20.83-36.36A2.69,2.69,0,1,1,347,44.66s-5.2,9.12-10.42,18.25c-2.61,4.56-5.22,9.12-7.19,12.54C325.43,82.28,325.43,82.28,324.12,82.48Z"/><path class="cls-17" d="M390.58,82.48c-1.3-.21-1.3-.21-5.22-7-2-3.42-4.58-8-7.18-12.54L367.75,44.66A2.7,2.7,0,1,1,372.44,42c8,14.06,20.2,35.35,20.82,36.36L391,79.82Z"/><path class="cls-16" d="M575.8,232.64v61.48a13.68,13.68,0,0,0,13,13.66l76.87,3.61A13.68,13.68,0,0,0,680,297.73V232.64A13.67,13.67,0,0,0,666.35,219H589.48A13.68,13.68,0,0,0,575.8,232.64Z"/><path class="cls-17" d="M595.47,306.51a4.24,4.24,0,0,1-2.91-1.05l-2.22-2a4.63,4.63,0,0,1-1.26-4.27,9.3,9.3,0,0,1,2.44-4.82l1.48-1.62c.1-.12.21-.23.32-.34l27.73-27.72a.68.68,0,0,1,1,1l-27.72,27.73a3.83,3.83,0,0,0-.28.29l-1.49,1.62a8,8,0,0,0-2.09,4.1,3.35,3.35,0,0,0,.83,3.07l2.22,2c1.57,1.43,4.79.57,7-1.88L602,301l.27-.3,22.14-26.34a.68.68,0,0,1,1-.08.67.67,0,0,1,.08,1l-22.14,26.34-.3.35-1.49,1.61A8.59,8.59,0,0,1,595.47,306.51Zm.68-4.35a2.86,2.86,0,0,1-2-.7c-1.54-1.42-1-4.41,1.18-6.81a7.9,7.9,0,0,1,3.42-2.27,3,3,0,0,1,4,3.71,7.89,7.89,0,0,1-2,3.6A6.83,6.83,0,0,1,596.15,302.16Zm4-8.62a3.33,3.33,0,0,0-.92.15,6.6,6.6,0,0,0-2.81,1.88c-1.6,1.75-2.19,4-1.26,4.88s3,.25,4.75-1.68h0a6.4,6.4,0,0,0,1.63-3,2.06,2.06,0,0,0-.36-1.92A1.52,1.52,0,0,0,600.1,293.54Zm34.53-29.62a.69.69,0,0,1-.53-1.13l8-9.5.5.31A14.44,14.44,0,0,0,661.16,251a16.14,16.14,0,0,0,4.22-12.58,1.49,1.49,0,0,0-1-1.29,1.54,1.54,0,0,0-1.66.43L654.06,247a3.6,3.6,0,0,1-3,1.15l-4.63-.4a3.62,3.62,0,0,1-3.25-3l-.79-4.58a3.62,3.62,0,0,1,.89-3l8.61-9.39a1.55,1.55,0,0,0,.28-1.69,1.49,1.49,0,0,0-1.37-.93,16.18,16.18,0,0,0-12.18,5.29,14.45,14.45,0,0,0-1,18.72l.34.47L627.7,259.93a.69.69,0,0,1-1-1l9.53-9.52a15.76,15.76,0,0,1,1.39-20,17.48,17.48,0,0,1,13.22-5.72,2.85,2.85,0,0,1,2.6,1.76,2.92,2.92,0,0,1-.53,3.15L644.33,238a2.28,2.28,0,0,0-.56,1.9l.8,4.58a2.22,2.22,0,0,0,2,1.84l4.63.4a2.29,2.29,0,0,0,1.85-.71l8.6-9.39a2.92,2.92,0,0,1,3.1-.8,2.88,2.88,0,0,1,2,2.44A17.57,17.57,0,0,1,662.17,252a15.76,15.76,0,0,1-19.78,3.11l-7.24,8.61A.7.7,0,0,1,634.63,263.92Z"/><path class="cls-17" d="M655.41,306.87a5.07,5.07,0,0,1-.55,0,6.25,6.25,0,0,1-4.38-2.31L624.75,273a3.23,3.23,0,0,1,.38-4.49l5.08-4.42a3.22,3.22,0,0,1,4.49.23l27.73,29.76a6.35,6.35,0,0,1-.48,9.11l-2.38,2.08A6.3,6.3,0,0,1,655.41,306.87Zm-24-41.38-5.07,4.43a1.41,1.41,0,0,0-.17,2l25.73,31.5A4.46,4.46,0,0,0,655,305a4.51,4.51,0,0,0,3.36-1.1l2.39-2.08a4.53,4.53,0,0,0,.33-6.5l-27.72-29.76a1.41,1.41,0,0,0-2-.1Z"/><path class="cls-17" d="M626.37,269.11,604,243a1.61,1.61,0,0,1-.95-.33l-6.7-5.14A1.45,1.45,0,0,1,596,237l-3-5.88a1.88,1.88,0,0,1,.54-2.23l1.67-1.46a1.89,1.89,0,0,1,2.29-.23l5.42,3.74a1.83,1.83,0,0,1,.45.47l4.33,7.19a1.68,1.68,0,0,1,.17,1.28l23,25.85Zm-21.78-27.57,22,25.71,2.28-1.72-22.62-25.41.23-.43a.39.39,0,0,0,0-.38l-4.33-7.19-.05-.05-5.43-3.75a.57.57,0,0,0-.61.14l-1.67,1.46a.56.56,0,0,0-.22.59l3,5.87,0,.06,6.7,5.14a.36.36,0,0,0,.28,0Z"/><path class="cls-16" d="M110.27,60v73.51a16.36,16.36,0,0,0,15.59,16.33l91.92,4.32a16.34,16.34,0,0,0,17.12-16.33V60a16.35,16.35,0,0,0-16.35-16.35H126.63A16.35,16.35,0,0,0,110.27,60Z"/><path class="cls-17" d="M176,105.41a111.91,111.91,0,0,1-1.6,19.51c-.29,1.61-.63,3.21-1,4.8a47.84,47.84,0,0,1-1.43,4.69,23.18,23.18,0,0,1-2.14,4.43,9.32,9.32,0,0,1-1.61,1.88,4.84,4.84,0,0,1-1.05.68,3.3,3.3,0,0,1-1.23.29,3.07,3.07,0,0,1-1.24-.23,4.67,4.67,0,0,1-1.08-.64,8.53,8.53,0,0,1-1.64-1.86,21.42,21.42,0,0,1-2.17-4.4,43.74,43.74,0,0,1-1.45-4.69c-.41-1.59-.75-3.19-1-4.79-.59-3.22-1-6.47-1.25-9.73s-.4-6.52-.42-9.79c0-1.63,0-3.27.09-4.9s.15-3.26.27-4.89c.25-3.26.6-6.51,1.14-9.74.27-1.61.58-3.21,1-4.8a42.92,42.92,0,0,1,1.36-4.71c.27-.78.57-1.54.91-2.28a15.49,15.49,0,0,1,1.17-2.16,7.93,7.93,0,0,1,1.6-1.87,4.4,4.4,0,0,1,1.06-.64,3,3,0,0,1,1.22-.21,3.15,3.15,0,0,1,1.21.28,4.76,4.76,0,0,1,1.05.66,8.92,8.92,0,0,1,1.64,1.83,22.42,22.42,0,0,1,2.25,4.35,42.35,42.35,0,0,1,1.54,4.66c.44,1.57.8,3.17,1.12,4.77A102.83,102.83,0,0,1,176,105.41Zm-.48,0q0-4.89-.39-9.76A92.66,92.66,0,0,0,173.86,86c-.3-1.6-.65-3.19-1.07-4.76a42.55,42.55,0,0,0-1.48-4.65,21.69,21.69,0,0,0-2.18-4.33,8.34,8.34,0,0,0-1.59-1.81,4.4,4.4,0,0,0-1-.65,3,3,0,0,0-1.15-.28,2.88,2.88,0,0,0-1.16.22,4,4,0,0,0-1,.62,7.81,7.81,0,0,0-1.55,1.84,16.91,16.91,0,0,0-1.13,2.15c-.33.74-.62,1.5-.88,2.27a47.34,47.34,0,0,0-1.3,4.7c-.36,1.58-.65,3.18-.9,4.79-.5,3.22-.82,6.46-1,9.71s-.27,6.5-.27,9.76.1,6.51.34,9.76.62,6.48,1.17,9.68c.28,1.61.61,3.2,1,4.78a43.86,43.86,0,0,0,1.4,4.66,21.14,21.14,0,0,0,2.11,4.36,8,8,0,0,0,1.57,1.8,3.84,3.84,0,0,0,1,.61,2.82,2.82,0,0,0,1.14.22,3,3,0,0,0,1.13-.27,4.91,4.91,0,0,0,1-.65,8.56,8.56,0,0,0,1.54-1.84,21.6,21.6,0,0,0,2.07-4.37,47.24,47.24,0,0,0,1.39-4.67c.39-1.58.71-3.17,1-4.78.55-3.2.92-6.44,1.16-9.69S175.51,108.66,175.51,105.41Z"/><path class="cls-17" d="M165.81,142.64a4,4,0,0,1-1.51-.3,5.32,5.32,0,0,1-1.31-.78,9.17,9.17,0,0,1-1.83-2.06,22.22,22.22,0,0,1-2.28-4.61,44.9,44.9,0,0,1-1.48-4.79c-.39-1.52-.74-3.11-1.05-4.85-.56-3.09-1-6.3-1.27-9.82-.26-3.2-.4-6.52-.42-9.86,0-1.75,0-3.48.1-4.94.06-1.66.15-3.32.27-4.93.26-3.54.63-6.75,1.14-9.82.29-1.75.61-3.34,1-4.87a48.73,48.73,0,0,1,1.39-4.81c.31-.87.62-1.65.95-2.36a17.18,17.18,0,0,1,1.23-2.28,9.09,9.09,0,0,1,1.8-2.09,5,5,0,0,1,1.32-.78,4,4,0,0,1,1.6-.29,4.13,4.13,0,0,1,1.55.37,5.64,5.64,0,0,1,1.27.79,9.87,9.87,0,0,1,1.82,2,22.79,22.79,0,0,1,2.35,4.55A47.17,47.17,0,0,1,174,80.88c.42,1.54.79,3.12,1.13,4.84a102.6,102.6,0,0,1,1.81,19.68h0a112.1,112.1,0,0,1-1.62,19.68c-.31,1.74-.65,3.33-1,4.86a47.52,47.52,0,0,1-1.46,4.79,23.73,23.73,0,0,1-2.24,4.62,9.47,9.47,0,0,1-1.79,2.08,5.52,5.52,0,0,1-1.27.83,4.28,4.28,0,0,1-1.61.37Zm-.5-72.19a1.86,1.86,0,0,0-.72.15,2.85,2.85,0,0,0-.77.48,6.76,6.76,0,0,0-1.35,1.62,14.5,14.5,0,0,0-1.06,2,22.91,22.91,0,0,0-.85,2.19,44.39,44.39,0,0,0-1.28,4.6c-.33,1.48-.62,3-.88,4.73-.47,3-.8,6.16-1,9.62-.19,3-.28,6.13-.27,9.7,0,3.29.11,6.55.34,9.69.26,3.44.64,6.58,1.16,9.59.29,1.68.61,3.23,1,4.71a44,44,0,0,0,1.37,4.56,20.58,20.58,0,0,0,2,4.17,7.18,7.18,0,0,0,1.38,1.58,3,3,0,0,0,.76.47,1.89,1.89,0,0,0,.75.15,2,2,0,0,0,.76-.19,3.07,3.07,0,0,0,.76-.51,7.32,7.32,0,0,0,1.37-1.63,20.27,20.27,0,0,0,2-4.18,44.31,44.31,0,0,0,1.36-4.57c.36-1.47.68-3,1-4.71.52-3,.89-6.12,1.15-9.6.24-3.13.36-6.39.36-9.68h0c0-3.29-.12-6.54-.38-9.68a89.87,89.87,0,0,0-1.26-9.58c-.31-1.67-.65-3.2-1-4.69a46.09,46.09,0,0,0-1.45-4.54,21.3,21.3,0,0,0-2.08-4.15,7.71,7.71,0,0,0-1.41-1.61,3.62,3.62,0,0,0-.79-.51,2,2,0,0,0-.78-.2Z"/><path class="cls-17" d="M192.41,105.41a47.81,47.81,0,0,1-1.69,12.47,40.37,40.37,0,0,1-5.19,11.44,34.41,34.41,0,0,1-4,4.88,28.05,28.05,0,0,1-4.89,3.94,23.18,23.18,0,0,1-5.7,2.62,21.36,21.36,0,0,1-6.2.93,21.7,21.7,0,0,1-6.2-.92,23.62,23.62,0,0,1-5.71-2.62,28.05,28.05,0,0,1-4.89-3.94,33.27,33.27,0,0,1-4-4.88,40.43,40.43,0,0,1-5.21-11.44,46.51,46.51,0,0,1-1.26-6.19,49,49,0,0,1-.43-6.29,51,51,0,0,1,.43-6.3,44.86,44.86,0,0,1,1.27-6.18A40,40,0,0,1,144,81.5a32.14,32.14,0,0,1,4-4.88,27.69,27.69,0,0,1,4.89-3.94,23.32,23.32,0,0,1,5.7-2.6,21.64,21.64,0,0,1,6.19-.93,22,22,0,0,1,6.19.93,24.09,24.09,0,0,1,5.7,2.61,28.45,28.45,0,0,1,4.88,3.94,33.2,33.2,0,0,1,4,4.88,40.24,40.24,0,0,1,5.21,11.43A48.12,48.12,0,0,1,192.41,105.41Zm-.56,0a47.18,47.18,0,0,0-1.61-12.34,40,40,0,0,0-5-11.36,32.45,32.45,0,0,0-3.88-4.86,26.7,26.7,0,0,0-4.8-3.95,23.26,23.26,0,0,0-5.63-2.62,21.64,21.64,0,0,0-6.13-.93,21.19,21.19,0,0,0-6.13.94A23,23,0,0,0,153,72.91a27.13,27.13,0,0,0-4.8,4,33.11,33.11,0,0,0-3.87,4.87,40.21,40.21,0,0,0-5,11.35,45.5,45.5,0,0,0-1.2,6.11,47.31,47.31,0,0,0,0,12.43,46.82,46.82,0,0,0,1.21,6.11,40,40,0,0,0,5,11.35,32.25,32.25,0,0,0,3.87,4.86,27.51,27.51,0,0,0,4.79,3.95,23,23,0,0,0,5.62,2.6,21.18,21.18,0,0,0,6.12.94,20.83,20.83,0,0,0,6.12-.93,23.33,23.33,0,0,0,5.62-2.6,27.13,27.13,0,0,0,4.8-4,32.45,32.45,0,0,0,3.88-4.86,39.86,39.86,0,0,0,5-11.35A46.64,46.64,0,0,0,191.85,105.41Z"/><path class="cls-17" d="M164.77,142.64a22.29,22.29,0,0,1-6.47-1,24.43,24.43,0,0,1-5.94-2.72,28.92,28.92,0,0,1-5.06-4.08,33.76,33.76,0,0,1-4.09-5,41,41,0,0,1-5.34-11.71,46,46,0,0,1-1.29-6.32,48.22,48.22,0,0,1,0-12.85,45.84,45.84,0,0,1,1.3-6.31A41.28,41.28,0,0,1,143.22,81a34.19,34.19,0,0,1,4.09-5,29.14,29.14,0,0,1,5.06-4.07,24.43,24.43,0,0,1,5.94-2.71,22.23,22.23,0,0,1,6.46-1,22.58,22.58,0,0,1,6.46,1,24.75,24.75,0,0,1,5.93,2.71A29.23,29.23,0,0,1,182.21,76a33.76,33.76,0,0,1,4.09,5,41.2,41.2,0,0,1,5.33,11.7,48.88,48.88,0,0,1,1.73,12.72h0a49.18,49.18,0,0,1-1.72,12.72,41.18,41.18,0,0,1-5.33,11.72,33.7,33.7,0,0,1-4.08,5,28.92,28.92,0,0,1-5.06,4.08,24,24,0,0,1-5.93,2.72A22.3,22.3,0,0,1,164.77,142.64Zm0-72.34a20.16,20.16,0,0,0-5.85.9,22.15,22.15,0,0,0-5.4,2.51,26.91,26.91,0,0,0-4.62,3.81,32.84,32.84,0,0,0-3.76,4.73,38.77,38.77,0,0,0-4.89,11.08,44.25,44.25,0,0,0-1.18,6,47.35,47.35,0,0,0-.4,6.1,49,49,0,0,0,.4,6.09,44.25,44.25,0,0,0,1.19,6,39.19,39.19,0,0,0,4.9,11.08,32,32,0,0,0,3.76,4.71,25.66,25.66,0,0,0,4.62,3.81,22.27,22.27,0,0,0,5.39,2.5,20.09,20.09,0,0,0,5.84.9,20.42,20.42,0,0,0,5.84-.89,22.34,22.34,0,0,0,5.4-2.5,26,26,0,0,0,4.62-3.8,31.48,31.48,0,0,0,3.77-4.72,39.1,39.1,0,0,0,4.92-11.08,46.72,46.72,0,0,0,0-24.17,38.81,38.81,0,0,0-4.91-11.08,32.16,32.16,0,0,0-3.76-4.73A26.23,26.23,0,0,0,176,73.7a22.35,22.35,0,0,0-5.4-2.51A20.49,20.49,0,0,0,164.77,70.3Z"/><path class="cls-17" d="M132.52,91.05l8.3-.07,8.3,0,16.6,0,16.6,0,8.3,0,8.3.07s0,0,0,0,0,0,0,0l-8.3.07-8.3,0-16.6,0-16.6,0-8.3,0-8.3-.07h0S132.5,91.05,132.52,91.05Z"/><polygon class="cls-17" points="165.72 92.21 140.81 92.14 132.12 92.07 131.53 91.49 131.53 91.06 131.56 90.14 132.51 90.1 149.11 89.99 165.72 89.96 190.62 90.04 199.87 90.12 199.89 92.04 198.92 92.06 182.32 92.18 165.72 92.21"/><path class="cls-17" d="M142.15,77.09c2,0,3.93,0,5.89-.06l5.89,0c2,0,3.93,0,5.9,0h5.89l11.78,0,5.9,0c2,0,3.92,0,5.89.08h0s0,0,0,0l-5.89.07-5.9,0-11.78,0h-5.89c-2,0-3.93,0-5.9,0l-5.89,0c-2,0-3.93,0-5.89-.06a0,0,0,0,1,0,0S142.13,77.1,142.15,77.09Z"/><path class="cls-17" d="M165.72,78.26l-7.42,0c-1.46,0-2.92,0-4.37,0l-7.86,0-3.94,0-.93,0,0-1.92,1,0,3.81,0,8-.06,4.15,0h7.64l19.83.1,3.75,0,1,0,0,1.91-.94,0-3.92,0-7.86.06Z"/><path class="cls-17" d="M129.63,105l9-.07,9,0,18,0,18,0,9,0,9,.07s0,0,0,0,0,0,0,0l-9,.07-9,0-18,0-18,0-9,0-9-.07s0,0,0,0A0,0,0,0,1,129.63,105Z"/><polygon class="cls-17" points="165.72 106.17 138.65 106.1 128.69 106.02 128.65 104.09 129.63 104.05 147.67 103.95 165.72 103.92 192.79 103.99 202.21 104.07 202.78 104.65 202.74 106 201.8 106.02 183.76 106.13 165.72 106.17"/><path class="cls-17" d="M132.52,119l8.3-.07,8.3,0,16.6,0,16.6,0,8.3,0,8.3.07h0s0,0,0,0l-8.3.07-8.3,0-16.6,0-16.6,0-8.3,0-8.3-.07s0,0,0,0A0,0,0,0,1,132.52,119Z"/><polygon class="cls-17" points="165.72 120.12 140.81 120.05 132.12 119.98 131.54 119.4 131.53 118.98 131.56 118.05 132.51 118.01 149.11 117.9 165.72 117.87 190.62 117.95 199.87 118.03 199.89 119.95 198.92 119.97 182.32 120.09 165.72 120.12"/><path class="cls-17" d="M190.48,133.08H143.34a.13.13,0,0,1-.13-.13.12.12,0,0,1,.13-.12h47.14a.12.12,0,0,1,.12.12A.12.12,0,0,1,190.48,133.08Z"/><path class="cls-17" d="M190.48,134H143.34a1.08,1.08,0,0,1,0-2.16h47.14a1.08,1.08,0,0,1,0,2.16Z"/><path class="cls-17" d="M165.72,143.39c-21.38,0-38.77-17.2-38.77-38.34a38.77,38.77,0,0,1,77.53,0C204.48,126.19,187.09,143.39,165.72,143.39Zm0-73.28a34.94,34.94,0,1,0,35.36,34.94A35.2,35.2,0,0,0,165.72,70.11Z"/><path class="cls-17" d="M203,74H191.85V71.14l3.69-5.23a34.39,34.39,0,0,0,2.09-3.2,9.52,9.52,0,0,0,.84-2,7.28,7.28,0,0,0,.27-2,2.66,2.66,0,0,0-.53-1.79,1.77,1.77,0,0,0-1.39-.59,2.67,2.67,0,0,0-1.4.39,7.92,7.92,0,0,0-1.59,1.44l-2.16-2.28a9.51,9.51,0,0,1,2.77-2.31A6.14,6.14,0,0,1,197.2,53a5.19,5.19,0,0,1,3.93,1.47,5.71,5.71,0,0,1,1.41,4.11,9.64,9.64,0,0,1-.25,2.25,10.25,10.25,0,0,1-.78,2.14,16,16,0,0,1-1.3,2.23q-.78,1.15-4,5.3v.12H203Z"/><path class="cls-17" d="M217.3,69.66h-2.11V74h-3.63V69.66h-6.77V66.53l6.27-13.27h4.13V66.47h2.11Zm-5.74-3.19V62.1l.07-1.94.1-1.84h-.11a26.08,26.08,0,0,1-1.08,2.8L208,66.47Z"/></g></g></svg>