<svg xmlns="http://www.w3.org/2000/svg" viewBox="0 0 952.1 812"><defs><style>.cls-1{fill:#e2e5ef;}.cls-2{fill:#308d62;}.cls-3{fill:#e1e1e1;}.cls-4{fill:#fafafa;}.cls-5{fill:#f5f5f5;}.cls-6{fill:#fff;}.cls-7{fill:#ececec;}.cls-8{fill:#1a2e35;}.cls-9{fill:#375a64;}.cls-10{opacity:0.3;}.cls-11{fill:#ffc19d;}.cls-12{fill:#ff9c6a;}.cls-13{fill:#f79cb1;}.cls-14{opacity:0.6;}.cls-15{opacity:0.2;}</style></defs><g id="Layer_2" data-name="Layer 2"><g id="Layer_1-2" data-name="Layer 1"><path class="cls-1" d="M952.1,220.38V555.53C952.1,696.59,836.69,812,695.62,812H127a60.45,60.45,0,0,1-60.27-60.27v-268A295.17,295.17,0,0,1,0,295.83C.31,132.17,132.74,0,296.4,0A295.76,295.76,0,0,1,524,106.58a296.92,296.92,0,0,1,279.19,53.53h88.6A60.45,60.45,0,0,1,952.1,220.38Z"/><rect class="cls-2" x="111.47" y="668.48" width="158.41" height="122.18"/><path class="cls-3" d="M230.19,789.8c-.17,0-.31-27.24-.31-60.82s.14-60.83.31-60.83.32,27.23.32,60.83S230.37,789.8,230.19,789.8Z"/><rect class="cls-4" x="244.31" y="762.85" width="12.14" height="13.73"/><rect class="cls-3" x="159.8" y="668.79" width="17.99" height="26.07"/><rect class="cls-3" x="159.8" y="764.23" width="17.99" height="26.07"/><circle class="cls-5" cx="119.9" cy="211.49" r="53.94" transform="translate(-104.65 304.65) rotate(-82.98)"/><circle class="cls-6" cx="120.2" cy="211.4" r="49.1" transform="translate(-83.55 78.65) rotate(-27.29)"/><path class="cls-3" d="M142.7,212.28a10.14,10.14,0,0,1-1.74.12l-4.77.09c-4.05.06-9.69.1-16.06.11h-.31v-.32c0-1,0-2.09,0-3.18,0-7.12,0-13.55.1-18.21,0-2.25.07-4.11.1-5.52a12.15,12.15,0,0,1,.12-2,12.15,12.15,0,0,1,.12,2c0,1.41.06,3.27.11,5.52,0,4.66.09,11.09.09,18.21v3.18l-.32-.31c6.37,0,12,0,16.06.1l4.77.1A9.69,9.69,0,0,1,142.7,212.28Z"/><path class="cls-3" d="M120.28,169.73c.18,0,.32,1.85.32,4.13s-.14,4.12-.32,4.12-.32-1.84-.32-4.12S120.11,169.73,120.28,169.73Z"/><path class="cls-3" d="M142.65,176.36c.13.12-1.06,1.51-2.65,3.1s-3,2.77-3.09,2.65,1.06-1.51,2.65-3.1S142.53,176.23,142.65,176.36Z"/><path class="cls-3" d="M155.74,190.65c.08.16-1.48,1.1-3.39,2.26s-3.46,2.11-3.56,2,1.3-1.33,3.23-2.51S155.66,190.5,155.74,190.65Z"/><path class="cls-3" d="M163.4,211.86c0,.17-2.52.31-5.62.31s-5.63-.14-5.63-.31,2.52-.32,5.63-.32S163.4,211.68,163.4,211.86Z"/><path class="cls-3" d="M85.41,211.11c0,.17-2.38.31-5.31.31s-5.32-.14-5.32-.31,2.38-.32,5.32-.32S85.41,210.93,85.41,211.11Z"/><path class="cls-3" d="M90.92,226.89c.12.14-1.68,1.77-4,3.65s-4.31,3.28-4.41,3.14,1.69-1.77,4-3.64S90.81,226.76,90.92,226.89Z"/><path class="cls-3" d="M104.53,239.1c.15.11-1.18,2.16-2.73,4.74s-2.74,4.71-2.9,4.64.79-2.36,2.36-5S104.4,239,104.53,239.1Z"/><path class="cls-3" d="M120.28,254.85c-.17,0-.32-2.52-.32-5.62s.15-5.63.32-5.63.32,2.52.32,5.63S120.46,254.85,120.28,254.85Z"/><path class="cls-3" d="M144.53,247.36c-.09.14-2.29-1.13-4.64-3.18s-3.91-4.05-3.78-4.16,1.88,1.67,4.2,3.68S144.63,247.21,144.53,247.36Z"/><path class="cls-3" d="M155.9,235.1c-.12.13-1.79-1.34-3.72-3.27s-3.4-3.6-3.28-3.73,1.8,1.35,3.73,3.28S156,235,155.9,235.1Z"/><path class="cls-3" d="M90.41,196c-.13.13-1.6-1.14-3.29-2.84s-3-3.16-2.84-3.28,1.6,1.14,3.29,2.84S90.53,195.86,90.41,196Z"/><path class="cls-3" d="M104.45,181.19c-.12.12-1.57-1.12-3.23-2.77s-2.91-3.09-2.78-3.22,1.57,1.12,3.23,2.77S104.57,181.06,104.45,181.19Z"/><path class="cls-7" d="M76.76,211.42a48.81,48.81,0,0,1,45.91-48.72c-1,0-1.93-.09-2.9-.09a48.82,48.82,0,1,0,0,97.63c1,0,1.94,0,2.9-.1A48.8,48.8,0,0,1,76.76,211.42Z"/><path class="cls-3" d="M71.21,208.18s0,.27,0,.8,0,1.32,0,2.34c0,.51,0,1.08,0,1.72s.11,1.32.18,2.06.14,1.56.22,2.41a24.55,24.55,0,0,0,.46,2.72,46.52,46.52,0,0,0,4.57,13.36,48.79,48.79,0,0,0,11.5,14.67l2,1.71c.71.53,1.47,1,2.21,1.55s1.47,1.1,2.29,1.54l2.45,1.38,1.25.69,1.32.59,2.68,1.18c.91.37,1.87.63,2.82,1a23.81,23.81,0,0,0,2.91.87,45,45,0,0,0,6.12,1.12c1,.1,2.1.27,3.17.33l3.23,0c.55,0,1.09,0,1.64,0l1.64-.14c1.1-.11,2.21-.16,3.32-.32a50,50,0,0,0,6.62-1.48l1.66-.48.83-.25.8-.33,3.25-1.31c1.07-.49,2.1-1.08,3.16-1.61.52-.29,1.07-.53,1.57-.86l1.5-1a54.72,54.72,0,0,0,5.84-4.33l2.66-2.57.66-.64.61-.71,1.22-1.42,1.21-1.42,1.09-1.54,1.09-1.55.54-.78c.17-.27.32-.55.47-.82.63-1.11,1.26-2.22,1.88-3.33l1.56-3.52a48.38,48.38,0,0,0,2-30.76c-.37-1.23-.73-2.47-1.09-3.69s-1-2.37-1.43-3.55l-.36-.88-.44-.84-.87-1.68-.88-1.67-1-1.57-1-1.57-.51-.78-.58-.72-2.29-2.9a55.4,55.4,0,0,0-5.23-5.06L150.35,173c-.45-.39-1-.7-1.44-1-1-.67-1.93-1.38-2.92-2l-3.05-1.73-.76-.43-.79-.35-1.58-.7a51.42,51.42,0,0,0-6.37-2.34c-1.08-.29-2.17-.49-3.25-.74l-1.61-.36c-.53-.11-1.08-.14-1.62-.21l-3.21-.38c-1.07-.09-2.14-.05-3.19-.09a47.14,47.14,0,0,0-6.21.31,24.67,24.67,0,0,0-3,.48c-1,.2-2,.33-2.92.58l-2.81.82-1.39.4-1.33.53-2.61,1c-.87.33-1.65.82-2.47,1.22s-1.61.82-2.39,1.26l-2.21,1.43a48.77,48.77,0,0,0-13.32,13,46.6,46.6,0,0,0-6.27,12.65,24.5,24.5,0,0,0-.82,2.63c-.19.84-.37,1.62-.53,2.36s-.34,1.4-.44,2-.15,1.2-.22,1.71c-.13,1-.22,1.78-.29,2.32s-.12.78-.12.78,0-.27.06-.79.14-1.31.24-2.33c.06-.51.12-1.08.19-1.71s.27-1.3.42-2,.33-1.53.51-2.37.52-1.71.79-2.65a46.81,46.81,0,0,1,6.23-12.76A48.89,48.89,0,0,1,93,170.35l2.22-1.45c.78-.45,1.59-.85,2.4-1.28s1.61-.9,2.49-1.24l2.63-1.06,1.34-.54,1.4-.41,2.83-.84c1-.25,2-.39,3-.59a25.34,25.34,0,0,1,3-.49,44.86,44.86,0,0,1,6.27-.32c1.07,0,2.14,0,3.22.08l3.25.37c.54.07,1.09.11,1.64.21l1.62.36c1.09.25,2.19.45,3.28.75a52.59,52.59,0,0,1,6.45,2.35l1.59.7c.27.12.54.23.8.36l.77.43,3.08,1.74c1,.64,2,1.36,3,2,.48.36,1,.67,1.46,1.06l1.38,1.18a54.2,54.2,0,0,1,5.28,5.12l2.33,2.92.58.73.52.79,1,1.58,1,1.59.88,1.69.89,1.69.44.85.37.89,1.44,3.59c.37,1.24.73,2.49,1.1,3.74a48.95,48.95,0,0,1-2,31.09l-1.58,3.56-1.9,3.37c-.16.27-.31.56-.48.83l-.55.78-1.1,1.57-1.1,1.56L158,243.13l-1.22,1.43-.62.71-.67.65-2.69,2.59a54.66,54.66,0,0,1-5.91,4.38l-1.52,1c-.5.33-1.06.57-1.59.86-1.07.54-2.11,1.13-3.18,1.63l-3.29,1.32-.81.33-.84.25-1.68.49a51.39,51.39,0,0,1-6.69,1.48c-1.12.16-2.24.21-3.35.32l-1.66.14c-.55,0-1.1,0-1.65,0l-3.27-.05c-1.08-.06-2.14-.23-3.2-.34a47.34,47.34,0,0,1-6.17-1.14,26.24,26.24,0,0,1-2.94-.88c-1-.33-1.92-.6-2.84-1l-2.7-1.19-1.33-.6-1.26-.7-2.47-1.4c-.83-.45-1.54-1-2.3-1.55s-1.51-1-2.22-1.58l-2-1.73a49.16,49.16,0,0,1-11.52-14.82,46.53,46.53,0,0,1-4.5-13.46,27.49,27.49,0,0,1-.44-2.73c-.07-.87-.14-1.67-.2-2.42s-.13-1.45-.14-2.08,0-1.21,0-1.72c0-1,.05-1.8.07-2.34S71.21,208.18,71.21,208.18Z"/><rect class="cls-3" x="797.04" y="209.89" width="151.25" height="239.02"/><rect class="cls-5" x="801.11" y="214.38" width="142.58" height="230.6"/><rect class="cls-6" x="872.4" y="227.81" width="56.85" height="88.22"/><path class="cls-3" d="M903.86,235.61a2.13,2.13,0,1,1-2.13-2.12A2.12,2.12,0,0,1,903.86,235.61Z"/><rect class="cls-6" x="815.11" y="340.59" width="56.85" height="88.22"/><path class="cls-3" d="M846.56,348.39a2.13,2.13,0,1,1-2.12-2.13A2.12,2.12,0,0,1,846.56,348.39Z"/><rect class="cls-6" x="814.34" y="227.81" width="48.56" height="68.89"/><path class="cls-3" d="M840.38,234.07a1.77,1.77,0,1,1-1.76-1.77A1.76,1.76,0,0,1,840.38,234.07Z"/><rect class="cls-6" x="880.66" y="344.64" width="52.26" height="28.95" transform="translate(-34.54 103.91) rotate(-6.44)"/><path class="cls-3" d="M907.58,350.18a1.8,1.8,0,1,1-1.8-1.79A1.8,1.8,0,0,1,907.58,350.18Z"/><path class="cls-3" d="M864.38,360.71c0,.23-8.93.42-19.94.42s-19.94-.19-19.94-.42,8.92-.43,19.94-.43S864.38,360.47,864.38,360.71Z"/><path class="cls-3" d="M864.38,367c0,.23-8.93.42-19.94.42s-19.94-.19-19.94-.42,8.92-.42,19.94-.42S864.38,366.79,864.38,367Z"/><path class="cls-3" d="M864.38,373.33c0,.24-8.93.43-19.94.43s-19.94-.19-19.94-.43,8.92-.42,19.94-.42S864.38,373.1,864.38,373.33Z"/><path class="cls-3" d="M864.38,379.64c0,.24-8.93.43-19.94.43s-19.94-.19-19.94-.43,8.92-.42,19.94-.42S864.38,379.41,864.38,379.64Z"/><path class="cls-3" d="M864.38,386c0,.23-8.93.42-19.94.42s-19.94-.19-19.94-.42,8.92-.43,19.94-.43S864.38,385.72,864.38,386Z"/><path class="cls-3" d="M864.38,392.27c0,.23-8.93.42-19.94.42s-19.94-.19-19.94-.42,8.92-.43,19.94-.43S864.38,392,864.38,392.27Z"/><path class="cls-3" d="M864.38,398.58c0,.23-8.93.42-19.94.42s-19.94-.19-19.94-.42,8.92-.42,19.94-.42S864.38,398.35,864.38,398.58Z"/><path class="cls-3" d="M926.26,354c0,.23-8.78,1.66-19.68,3.2s-19.77,2.6-19.81,2.37,8.78-1.67,19.69-3.21S926.23,353.72,926.26,354Z"/><path class="cls-3" d="M927.05,357.89c0,.24-8.78,1.67-19.68,3.21s-19.77,2.6-19.8,2.37,8.78-1.67,19.68-3.21S927,357.66,927.05,357.89Z"/><path class="cls-3" d="M927.78,361.54c0,.23-8.78,1.67-19.68,3.21s-19.78,2.59-19.81,2.36,8.78-1.66,19.69-3.2S927.75,361.31,927.78,361.54Z"/><path class="cls-3" d="M924.26,246.27c0,.23-10.09.42-22.52.42s-22.53-.19-22.53-.42,10.08-.43,22.53-.43S924.26,246,924.26,246.27Z"/><path class="cls-3" d="M924.26,250c0,.23-10.09.42-22.52.42s-22.53-.19-22.53-.42,10.08-.42,22.53-.42S924.26,249.79,924.26,250Z"/><path class="cls-3" d="M924.26,253.77c0,.24-10.09.43-22.52.43s-22.53-.19-22.53-.43,10.08-.42,22.53-.42S924.26,253.54,924.26,253.77Z"/><path class="cls-3" d="M924.26,257.53c0,.23-10.09.42-22.52.42s-22.53-.19-22.53-.42,10.08-.43,22.53-.43S924.26,257.29,924.26,257.53Z"/><path class="cls-3" d="M924.26,261.28c0,.23-10.09.42-22.52.42s-22.53-.19-22.53-.42,10.08-.43,22.53-.43S924.26,261,924.26,261.28Z"/><path class="cls-3" d="M924.26,265c0,.24-10.09.42-22.52.42s-22.53-.18-22.53-.42,10.08-.42,22.53-.42S924.26,264.8,924.26,265Z"/><path class="cls-3" d="M924.26,268.78c0,.24-10.09.43-22.52.43s-22.53-.19-22.53-.43,10.08-.42,22.53-.42S924.26,268.55,924.26,268.78Z"/><path class="cls-3" d="M924.26,279.92c0,.24-10.09.43-22.52.43s-22.53-.19-22.53-.43,10.08-.42,22.53-.42S924.26,279.69,924.26,279.92Z"/><path class="cls-3" d="M924.58,283.89c0,.23-10.09.42-22.53.42s-22.52-.19-22.52-.42,10.08-.43,22.52-.43S924.58,283.65,924.58,283.89Z"/><path class="cls-3" d="M924.89,287.85c0,.23-10.08.42-22.52.42s-22.53-.19-22.53-.42,10.09-.42,22.53-.42S924.89,287.62,924.89,287.85Z"/><path class="cls-3" d="M925.21,291.81c0,.24-10.08.43-22.52.43s-22.53-.19-22.53-.43,10.08-.42,22.53-.42S925.21,291.58,925.21,291.81Z"/><path class="cls-3" d="M925.53,295.78c0,.23-10.09.42-22.53.42s-22.52-.19-22.52-.42,10.08-.43,22.52-.43S925.53,295.54,925.53,295.78Z"/><path class="cls-3" d="M925.85,299.74c0,.24-10.09.43-22.53.43s-22.53-.19-22.53-.43,10.09-.42,22.53-.42S925.85,299.51,925.85,299.74Z"/><path class="cls-8" d="M759.12,794.13c0,.2-149.6.36-334.1.36s-334.12-.16-334.12-.36,149.56-.37,334.12-.37S759.12,793.93,759.12,794.13Z"/><path class="cls-9" d="M161.62,557.69c-12.3,6.37-21.74,17.35-28.53,29.44s-11.16,25.35-15.49,38.51l-3.79,67.91c14.32-24.36,25.81-53,28.92-81.1l-9.53-.84c6.39-1,11.75-5.61,15.17-11.1s5.16-11.82,6.88-18l-11.63,1.73A43.07,43.07,0,0,0,161.62,557.69Z"/><g class="cls-10"><path d="M161.62,557.69c-12.3,6.37-21.74,17.35-28.53,29.44s-11.16,25.35-15.49,38.51l-3.79,67.91c14.32-24.36,25.81-53,28.92-81.1l-9.53-.84c6.39-1,11.75-5.61,15.17-11.1s5.16-11.82,6.88-18l-11.63,1.73A43.07,43.07,0,0,0,161.62,557.69Z"/></g><path class="cls-9" d="M111.69,709.46S80.6,672.25,81,636.74H93.52s-13.64-9-12.56-14,1.44-24,1.44-24l11.48,2.87s-8.61-4.31-9.69-11.13,2.51-38.38,2.51-38.38,14,14.71,18.3,29.77,15.6,32.65,12.29,78.57S111.69,709.46,111.69,709.46Z"/><path class="cls-9" d="M127.45,713s33.67-22.43,41.16-51.07l-10.1-2.74s12.93-4.23,13.16-8.51,4.1-19.64,4.1-19.64l-9.86-.2s7.87-1.58,10.23-6.82,6.38-31.41,6.38-31.41-14.47,8.76-21.23,19.93S141.6,635.35,134.22,673,127.45,713,127.45,713Z"/><path class="cls-8" d="M95.19,584.51s0,.12.12.38l.28,1.14c.24,1.06.57,2.54,1,4.42s.94,4.26,1.48,7,1.21,5.85,1.84,9.3c1.34,6.9,2.75,15.15,4.2,24.32s2.8,19.3,4,29.95,2.16,20.83,2.89,30.09,1.19,17.62,1.46,24.64c.17,3.51.25,6.69.33,9.48s.14,5.19.15,7.15,0,3.44,0,4.53c0,.48,0,.87,0,1.17s0,.4,0,.4a2.38,2.38,0,0,1,0-.4q0-.45-.06-1.17c0-1.09-.1-2.6-.17-4.52s-.14-4.36-.27-7.15-.24-6-.44-9.47c-.34-7-.9-15.35-1.62-24.61s-1.72-19.41-2.94-30.06-2.62-20.75-4-29.93-2.77-17.42-4-24.33c-.6-3.46-1.21-6.57-1.73-9.31s-1-5.1-1.37-7-.65-3.37-.86-4.44l-.21-1.15A2.49,2.49,0,0,1,95.19,584.51Z"/><path class="cls-9" d="M107.38,732.24S78.93,700,70.1,680.46l6.66-2.85c-4.83.79-9.78-1.28-13.53-4.44s-6.5-7.3-9.2-11.39l8.79-1.48a32.64,32.64,0,0,1-19.19-14.87c10.36,1.7,19.74,7.4,27.47,14.51,6.25,5.77,11.55,12.46,16.64,19.29a66.3,66.3,0,0,1,6.47,10.63C99,699.74,107.39,720.39,107.38,732.24Z"/><path class="cls-8" d="M169.05,611.36a1.25,1.25,0,0,1-.12.33l-.43.94c-.42.88-1,2.07-1.72,3.59-1.52,3.1-3.68,7.61-6.28,13.21-5.23,11.19-12.11,26.8-18.92,44.37s-12.19,33.77-15.86,45.56c-1.83,5.9-3.27,10.68-4.23,14q-.73,2.42-1.14,3.81c-.13.4-.23.72-.32,1a1.11,1.11,0,0,1-.13.33,1.56,1.56,0,0,1,.06-.35c.07-.26.15-.59.25-1,.24-.94.58-2.22,1-3.85.88-3.34,2.25-8.15,4-14.07,3.54-11.84,8.88-28.07,15.68-45.67s13.77-33.19,19.12-44.33c2.67-5.57,4.89-10.05,6.49-13.11l1.84-3.53.49-.91A2.3,2.3,0,0,1,169.05,611.36Z"/><path class="cls-8" d="M109.79,746.07a14.74,14.74,0,0,1-.44-2.3c-.23-1.49-.6-3.63-1.13-6.27a130.35,130.35,0,0,0-5.77-20.17,131.18,131.18,0,0,0-9-19c-1.35-2.33-2.49-4.19-3.3-5.45a13.73,13.73,0,0,1-1.19-2,15.45,15.45,0,0,1,1.42,1.86c.89,1.23,2.09,3,3.5,5.35a114.78,114.78,0,0,1,9.24,19,115.06,115.06,0,0,1,5.6,20.34c.46,2.66.76,4.82.9,6.33A13.9,13.9,0,0,1,109.79,746.07Z"/><rect class="cls-2" x="85.07" y="738.48" width="62.26" height="12.7"/><polygon class="cls-2" points="91 751.18 97.73 793.9 135.35 793.9 141.63 751.18 91 751.18"/><path class="cls-8" d="M143.51,751.18c0,.2-11.78.36-26.31.36s-26.3-.16-26.3-.36,11.77-.35,26.3-.35S143.51,751,143.51,751.18Z"/><rect class="cls-2" x="598.72" y="440.03" width="113.88" height="87.84" transform="translate(1311.32 967.9) rotate(180)"/><rect class="cls-4" x="608.37" y="507.87" width="8.73" height="9.87" transform="translate(1225.48 1025.62) rotate(180)"/><rect class="cls-7" x="664.92" y="440.26" width="12.94" height="18.74"/><rect class="cls-7" x="664.92" y="508.86" width="12.94" height="18.74"/><path class="cls-8" d="M627.14,528.47c-.2,0-.36-19.32-.36-43.14s.16-43.15.36-43.15.37,19.31.37,43.15S627.34,528.47,627.14,528.47Z"/><rect class="cls-8" x="508.09" y="199.73" width="5.59" height="299.25"/><rect class="cls-8" x="283.68" y="199.73" width="5.59" height="308.07"/><rect class="cls-8" x="725.03" y="199.73" width="5.59" height="319.71"/><rect class="cls-8" x="502.72" y="-17.83" width="5.59" height="440.72" transform="translate(302.99 708.04) rotate(-90)"/><rect class="cls-8" x="505.29" y="88.01" width="5.59" height="440.71" transform="translate(199.72 816.45) rotate(-90)"/><rect class="cls-8" x="502.72" y="193.84" width="5.59" height="440.72" transform="translate(91.32 919.72) rotate(-90)"/><rect class="cls-2" x="290.09" y="250.09" width="7.16" height="55.48"/><rect class="cls-2" x="300.37" y="250.09" width="7.16" height="55.48" transform="translate(-32.81 40.83) rotate(-7.29)"/><rect class="cls-2" x="336.02" y="275.14" width="5.38" height="55.48" transform="translate(35.84 641.59) rotate(-90)"/><rect class="cls-2" x="341.63" y="264.25" width="5.38" height="55.48" transform="translate(52.32 636.31) rotate(-90)"/><rect class="cls-3" x="347" y="258.74" width="5.38" height="55.48" transform="translate(63.21 636.17) rotate(-90)"/><rect class="cls-9" x="347" y="258.79" width="5.38" height="77.44" transform="translate(52.19 647.2) rotate(-90)"/><rect class="cls-9" x="392.82" y="323.57" width="113.88" height="87.84" transform="translate(899.52 734.98) rotate(180)"/><rect class="cls-4" x="402.47" y="391.42" width="8.73" height="9.87" transform="translate(813.68 792.7) rotate(180)"/><rect class="cls-7" x="459.02" y="323.8" width="12.94" height="18.74"/><rect class="cls-7" x="459.02" y="392.4" width="12.94" height="18.74"/><path class="cls-8" d="M421.24,412c-.2,0-.36-19.32-.36-43.14s.16-43.15.36-43.15.36,19.31.36,43.15S421.44,412,421.24,412Z"/><rect class="cls-9" x="519.2" y="217.5" width="113.88" height="87.84" transform="translate(1152.28 522.83) rotate(180)"/><rect class="cls-4" x="528.85" y="285.34" width="8.73" height="9.87" transform="translate(1066.44 580.55) rotate(180)"/><rect class="cls-7" x="585.4" y="217.72" width="12.94" height="18.74"/><rect class="cls-7" x="585.4" y="286.33" width="12.94" height="18.74"/><path class="cls-8" d="M547.62,305.94c-.2,0-.36-19.32-.36-43.15s.16-43.15.36-43.15S548,239,548,262.79,547.82,305.94,547.62,305.94Z"/><rect class="cls-2" x="637.95" y="217.5" width="82.21" height="87.84" transform="translate(1358.11 522.83) rotate(180)"/><rect class="cls-4" x="647.72" y="291.07" width="8.73" height="9.87" transform="translate(1304.18 592) rotate(180)"/><rect class="cls-7" x="683.67" y="217.72" width="12.94" height="18.74"/><rect class="cls-7" x="683.67" y="286.33" width="12.94" height="18.74"/><path class="cls-8" d="M665.92,305.63c-.2,0-.37-19.31-.37-43.14s.17-43.15.37-43.15.36,19.32.36,43.15S666.12,305.63,665.92,305.63Z"/><rect class="cls-2" x="522.76" y="360.27" width="66.41" height="51.22" transform="translate(1111.92 771.75) rotate(180)"/><rect class="cls-4" x="528.39" y="399.83" width="5.09" height="5.76" transform="translate(1061.87 805.41) rotate(180)"/><rect class="cls-7" x="561.36" y="360.4" width="7.54" height="10.93"/><rect class="cls-7" x="561.36" y="400.4" width="7.54" height="10.93"/><path class="cls-8" d="M539.33,411.84c-.2,0-.36-11.27-.36-25.16s.16-25.16.36-25.16.36,11.26.36,25.16S539.53,411.84,539.33,411.84Z"/><rect class="cls-2" x="652.59" y="360.27" width="66.41" height="51.22" transform="translate(1371.58 771.75) rotate(180)"/><rect class="cls-4" x="658.22" y="399.83" width="5.09" height="5.76" transform="translate(1321.52 805.41) rotate(180)"/><rect class="cls-7" x="691.19" y="360.4" width="7.54" height="10.93"/><rect class="cls-7" x="691.19" y="400.4" width="7.54" height="10.93"/><path class="cls-8" d="M669.16,411.84c-.2,0-.36-11.27-.36-25.16s.16-25.16.36-25.16.36,11.26.36,25.16S669.36,411.84,669.16,411.84Z"/><rect class="cls-2" x="388.41" y="273.3" width="119.67" height="31.75"/><path class="cls-8" d="M420.27,305.57c-.2,0-.36-7.17-.36-16s.16-16,.36-16,.36,7.16.36,16S420.47,305.57,420.27,305.57Z"/><rect class="cls-7" x="458.44" y="273.3" width="11.69" height="15.62"/><rect class="cls-9" x="290.54" y="386.08" width="96.36" height="25.57"/><path class="cls-8" d="M316.19,412.27c-.2,0-.37-5.77-.37-12.89s.17-12.89.37-12.89.36,5.77.36,12.89S316.39,412.27,316.19,412.27Z"/><rect class="cls-7" x="346.92" y="386.28" width="9.42" height="12.57"/><rect class="cls-2" x="300.57" y="363.58" width="84.97" height="22.55"/><path class="cls-8" d="M323.18,386.49c-.2,0-.36-5.09-.36-11.36s.16-11.37.36-11.37.37,5.09.37,11.37S323.38,386.49,323.18,386.49Z"/><rect class="cls-7" x="350.29" y="363.58" width="8.3" height="11.09"/><rect class="cls-9" x="526.42" y="337.78" width="84.97" height="22.55"/><path class="cls-8" d="M549,360.69c-.2,0-.37-5.09-.37-11.36S548.84,338,549,338s.36,5.09.36,11.37S549.24,360.69,549,360.69Z"/><rect class="cls-7" x="576.14" y="337.78" width="8.3" height="11.09"/><rect class="cls-2" x="331.35" y="246.6" width="30.42" height="43.69" transform="translate(615.01 -78.12) rotate(90)"/><path class="cls-8" d="M346.56,283.58c-.2,0-.36-6.78-.36-15.13s.16-15.14.36-15.14.37,6.78.37,15.14S346.76,283.58,346.56,283.58Z"/><path class="cls-7" d="M353.4,253.24c.16,0,0,9.7,0,9.7h10.94v-9.7Z"/><rect class="cls-2" x="605.35" y="374.28" width="30.42" height="43.69" transform="translate(1016.68 -224.44) rotate(90)"/><path class="cls-8" d="M620.56,411.25c-.2,0-.36-6.77-.36-15.13s.16-15.13.36-15.13.37,6.77.37,15.13S620.76,411.25,620.56,411.25Z"/><path class="cls-7" d="M627.4,380.91c.16,0,0,9.7,0,9.7h10.94v-9.7Z"/><rect class="cls-9" x="428.88" y="221.33" width="66.72" height="51.46" transform="translate(924.49 494.13) rotate(180)"/><rect class="cls-4" x="434.54" y="261.08" width="5.12" height="5.78" transform="translate(874.19 527.95) rotate(180)"/><rect class="cls-7" x="467.67" y="221.47" width="7.58" height="10.98"/><rect class="cls-7" x="467.67" y="261.66" width="7.58" height="10.98"/><path class="cls-8" d="M445.54,273.15c-.2,0-.37-11.32-.37-25.28s.17-25.28.37-25.28.36,11.32.36,25.28S445.74,273.15,445.54,273.15Z"/><path class="cls-6" d="M427.39,292.46c0,7-1.55,11.62-5.24,17.88-.62,1.05,3.06,11.13,3.06,11.13l-10.85-3.79c-4.93,3.67-10,4.41-16.59,4.41a29.63,29.63,0,1,1,29.62-29.63Z"/><path class="cls-8" d="M397.76,262.83h-.51l-1.52,0c-.33,0-.71,0-1.12.05l-1.34.19-1.56.22-1.74.43a28.32,28.32,0,0,0-8.46,3.69,29.84,29.84,0,0,0-13.71,22.43,30.89,30.89,0,0,0-.08,4.09c0,.69,0,1.4.14,2.09s.21,1.4.31,2.11a30,30,0,0,0,2.85,8.32,29.68,29.68,0,0,0,13.26,13.11,28.78,28.78,0,0,0,9.55,2.93,19.48,19.48,0,0,0,2.54.21,22.22,22.22,0,0,0,2.58.05,31,31,0,0,0,5.15-.65,30.07,30.07,0,0,0,10.26-4.32l-.31,0,10.46,4.2.62.25-.18-.65q-1.59-5.75-3.07-11.17l-.06.27A29.87,29.87,0,0,0,427.4,298a27.41,27.41,0,0,0,.41-6.54,21.55,21.55,0,0,0-.3-3.14q-.12-.78-.24-1.53c-.09-.5-.24-1-.36-1.48a29.9,29.9,0,0,0-11.66-17,28.66,28.66,0,0,0-6.95-3.67l-1.56-.55-1.48-.38-1.36-.34c-.44-.08-.86-.13-1.25-.19-.79-.1-1.49-.23-2.09-.26l-1.54-.06-.94,0h-.32a1.19,1.19,0,0,0,.32.05l.94.07,1.52.1c.61.05,1.29.2,2.08.32a29.75,29.75,0,0,1,23.77,22.05c.11.48.26,1,.35,1.46s.15,1,.22,1.5a20.87,20.87,0,0,1,.28,3.08,27,27,0,0,1-.42,6.42,29.41,29.41,0,0,1-5.51,12.49l-.09.12,0,.16q1.49,5.42,3.05,11.18l.44-.4-10.45-4.2-.16-.07-.15.1a29.76,29.76,0,0,1-10,4.22,30.87,30.87,0,0,1-5,.63,23.55,23.55,0,0,1-2.52,0,18.87,18.87,0,0,1-2.49-.21,27.77,27.77,0,0,1-9.33-2.86,30.51,30.51,0,0,1-7.67-5.49,31.5,31.5,0,0,1-5.34-7.31,29.26,29.26,0,0,1-2.81-8.14c-.11-.69-.21-1.38-.32-2.06s-.09-1.38-.14-2.05a31.62,31.62,0,0,1,.06-4,29.53,29.53,0,0,1,13.36-22.16A28.12,28.12,0,0,1,390,264l1.72-.46,1.54-.25,1.33-.22c.41,0,.78-.06,1.11-.08l1.51-.11A1.85,1.85,0,0,0,397.76,262.83Z"/><polygon class="cls-2" points="382.18 294.11 386.26 290.04 394.13 297.03 409.56 282.17 413.35 286.25 393.54 304.89 382.18 294.11"/><path class="cls-8" d="M393.54,304.94l0,0-11.38-10.8,0,0,4.1-4.1,7.87,7,15.44-14.85,0,0,3.81,4.1,0,0Z"/><polygon class="cls-11" points="563.63 412.36 581.5 426.34 569.14 435.28 556.75 423.82 563.63 412.36"/><path class="cls-8" d="M506.67,419.73s8.36,9.42,11.78,13.62a7.86,7.86,0,0,0,6.37,3,4.62,4.62,0,0,0,2.85-1,3.11,3.11,0,0,0,.77-1.38,7.08,7.08,0,0,0-1.65-6.94l-9.88-10.63Z"/><path class="cls-8" d="M505.22,302c6.72.14,12.49,10.13,11.49,15.75-.49,2.73-1.72,5.86.49,7.89s6.79,1.83,8.87,3.89a8.58,8.58,0,0,1,2.39,6.11c-.29,3.44.27,8,3,9.25l-13.64,4.9c-1.4-1.43-2-3.67-3.38-5.1,1.62,1.5,3.18,6.82-4.12,7.42l-4.54-4c-12.41,3.2-25.44,7.17-35.36,1.78"/><path class="cls-8" d="M442,331.85c.89-2.58,2.36-5,3-7.63,1.33-5.72-1.35-12.24,1.53-17.36,2-3.64,6.31-5.37,10.33-6.53s7.86-1.84,10.89-4.72c2.22-2.12,3.52-5.06,5.74-7.18,3.16-3,7.76-4,12.13-4.17s9.11.32,13.1,2.37,7.27,5.82,7.91,10.27c.31,2.16,0,4.42.65,6.51.71,2.31,2.47,4.12,3.54,6.27a11.52,11.52,0,0,1-3.12,13.75l-31.47,39.18c-6.51,2.32-13.59-5.94-18.5-10.8S439.77,338.38,442,331.85Z"/><path class="cls-11" d="M507,318.37c-1.1-9-7.77-19.83-16.76-18.34l-27.82,8.8c-2.73.45-4.19,2.64-4,5.4l6.13,67.5c-.07,0,.3.73.23.75s7.52,18.84,25.86,11.92c3.63-1.37,5.28-.1,5.78-4.31h0c.79-.31,0,0,0-.49-.07-5.13-.45-15.7-.45-15.7h0c-.26-5.5-.4-7.75-.39-7.7s11.48-2.61,13-17.88C509.32,340.73,508.21,328.41,507,318.37Z"/><path class="cls-8" d="M483.29,333.17a1.94,1.94,0,0,1-1.75,2.07,1.87,1.87,0,0,1-2.11-1.64,1.94,1.94,0,0,1,1.76-2.06A1.86,1.86,0,0,1,483.29,333.17Z"/><path class="cls-8" d="M502.66,332.17a1.94,1.94,0,0,1-1.76,2.07,1.86,1.86,0,0,1-2.1-1.63,1.94,1.94,0,0,1,1.75-2.07A1.86,1.86,0,0,1,502.66,332.17Z"/><path class="cls-8" d="M505.2,325.28c-.22.35-2-.82-4.26-.53s-3.74,1.81-4,1.52c-.14-.13,0-.74.68-1.44a5.21,5.21,0,0,1,3.17-1.61,5.14,5.14,0,0,1,3.45.82C505,324.58,505.31,325.12,505.2,325.28Z"/><path class="cls-8" d="M484.5,327.19c-.27.33-2-1-4.45-.93s-4.17,1.4-4.44,1.09c-.14-.14.13-.72.89-1.34a5.87,5.87,0,0,1,3.55-1.26,5.66,5.66,0,0,1,3.55,1.14C484.37,326.49,484.64,327.05,484.5,327.19Z"/><path class="cls-8" d="M492.67,341.58a13.79,13.79,0,0,1,3.36-.81c.53-.09,1-.23,1.1-.59a2.76,2.76,0,0,0-.45-1.56c-.58-1.26-1.18-2.59-1.82-4-2.53-5.65-4.39-10.31-4.16-10.41s2.46,4.4,5,10.05l1.75,4a3.13,3.13,0,0,1,.4,2.08,1.32,1.32,0,0,1-.83.83,3.4,3.4,0,0,1-.9.18A13.54,13.54,0,0,1,492.67,341.58Z"/><path class="cls-12" d="M495.57,366.2A38.63,38.63,0,0,1,475,362s5.74,10.78,20.8,8.47Z"/><path class="cls-13" d="M492.09,346.66a3.77,3.77,0,0,0-3.46-1.2,3.45,3.45,0,0,0-2.3,1.41,2.18,2.18,0,0,0,0,2.5,2.5,2.5,0,0,0,2.77.53,7.82,7.82,0,0,0,2.58-1.75,2.33,2.33,0,0,0,.56-.65.71.71,0,0,0-.05-.78"/><path class="cls-8" d="M486.61,343.38c.34,0,.48,2.23,2.51,3.72s4.44,1.11,4.47,1.42c0,.14-.51.48-1.53.56a5.63,5.63,0,0,1-3.72-1.05,4.94,4.94,0,0,1-2-3.13C486.24,344,486.46,343.38,486.61,343.38Z"/><path class="cls-8" d="M484.43,320.09c-.17.58-2.27.43-4.7.87s-4.38,1.22-4.73.73c-.16-.23.15-.79.92-1.38a8.36,8.36,0,0,1,7.19-1.23C484,319.39,484.51,319.81,484.43,320.09Z"/><path class="cls-8" d="M504.55,317.75c-.39.5-2.06.1-4,.2s-3.63.53-4.05.06c-.18-.23.06-.72.76-1.22a6.28,6.28,0,0,1,3.24-1,6.11,6.11,0,0,1,3.28.77C504.47,317,504.72,317.51,504.55,317.75Z"/><path class="cls-8" d="M433.08,329c1.43-2.64-1.33-5.59.86-8,2-2.22,7.28-2.3,9.15-4.56,1.47-1.77,1.53-2.24,1.58-3.9.06-2.07,1-10.8,13.74-12.58l1.77,7.93c.8-.37,1.62-.69,2.43-1a139.57,139.57,0,0,1,32.18-7.58c1.32,2.27,0,5.31-2.08,6.91s-4.74,2.2-7.22,3.07-5,2.25-6.09,4.66c-1.12,2.56-.27,5.63-1.26,8.24-1.71,4.5-8.06,5.85-9.74,10.35-1.28,3.41.64,7.1,1.07,10.71a13.26,13.26,0,0,1-4.14,11.17c-2.39,2.2-6.47,6.19-6.75,5.39l-34.11-21.34C422.51,333.63,431.12,332.57,433.08,329Z"/><path class="cls-9" d="M440.44,348l-.09-.23a5.18,5.18,0,0,1-.23-.68,6.09,6.09,0,0,1-.11-2.76,6.8,6.8,0,0,1,2.05-3.78,5.9,5.9,0,0,1,2.36-1.31c.93-.26,2-.35,3-.71a3.84,3.84,0,0,0,2.45-2.34,8.78,8.78,0,0,0,.44-3.7,20.59,20.59,0,0,1-.05-3.93,5,5,0,0,1,.65-1.89,4.63,4.63,0,0,1,1.43-1.46,13.37,13.37,0,0,1,4.09-1.47,13.22,13.22,0,0,0,4.34-1.61,5.15,5.15,0,0,0,1.65-1.76,7.29,7.29,0,0,0,.8-2.31c.31-1.61.31-3.26.61-4.87a9.42,9.42,0,0,1,5.88-7,16.37,16.37,0,0,1,4.49-.75,10.48,10.48,0,0,0,2.22-.42,4.79,4.79,0,0,0,1.92-1.13,9.79,9.79,0,0,0,1.89-3.77,9.45,9.45,0,0,1,2-3.36,9.91,9.91,0,0,1,6.12-3.13,9,9,0,0,1,5.58,1.2,10.32,10.32,0,0,1,3.2,3,9.13,9.13,0,0,1,1.23,2.48c.11.3.15.55.2.7a2.46,2.46,0,0,0,.07.24,7,7,0,0,0-.21-.95,9.1,9.1,0,0,0-1.19-2.54,10.34,10.34,0,0,0-3.22-3.05,9.17,9.17,0,0,0-5.68-1.27,10.16,10.16,0,0,0-6.29,3.18,9.74,9.74,0,0,0-2,3.43,9.7,9.7,0,0,1-1.84,3.67,6.25,6.25,0,0,1-4,1.46,16.32,16.32,0,0,0-4.57.76,9.75,9.75,0,0,0-6.07,7.2c-.31,1.65-.31,3.31-.61,4.87a7,7,0,0,1-.76,2.22,4.84,4.84,0,0,1-1.55,1.66c-2.6,1.69-5.91,1.48-8.42,3.09a5,5,0,0,0-1.52,1.55,5.49,5.49,0,0,0-.67,2,21,21,0,0,0,.06,4,8.84,8.84,0,0,1-.4,3.59,4,4,0,0,1-.92,1.41,3.93,3.93,0,0,1-1.39.82c-1,.35-2.05.45-3,.73A5.7,5.7,0,0,0,442,340.4a6.84,6.84,0,0,0-2.06,3.88,5.89,5.89,0,0,0,.17,2.79,3.26,3.26,0,0,0,.27.68C440.4,347.9,440.43,348,440.44,348Z"/><path class="cls-11" d="M419.56,426.4c-.22,1.76-14.28,45.37-11.09,59.38,1.36,6,18.7,20,18.7,20l5.6,3.75c1.26-5.82,3.64-10.09,3.41-14.83,0,0-1.06-.36-2.76-7.17a30.34,30.34,0,0,0-5.28-11.13l8-42.47Z"/><path class="cls-3" d="M446.26,383.22l17-6.55h0a18,18,0,0,0,16.11,10.11,19.29,19.29,0,0,0,17-10.5l1.13.39,20.44,3.06,5.12,31.14-5.65,69.18,4.32,8.17,1.54,8.67L444,493.52l-.91-5a7.85,7.85,0,0,1,.92-5.35l1.8-3.12-8.06-93.61Z"/><path class="cls-3" d="M439.29,386.92l-1.57-.57s-10.8,5.32-16.44,24.12-9,31.12-9,31.12l26.61,5.83,6.46-33.24Z"/><path class="cls-8" d="M439.12,400.78a5.77,5.77,0,0,1,.19,1.43l.3,3.9c.25,3.42.58,7.91.94,12.87s.78,9.44,1.07,12.86c.12,1.55.22,2.85.31,3.9a7.19,7.19,0,0,1,0,1.44,6,6,0,0,1-.28-1.41c-.13-.92-.31-2.25-.5-3.89-.39-3.28-.85-7.82-1.24-12.86s-.65-9.59-.77-12.89c-.06-1.65-.1-3-.11-3.91A7.37,7.37,0,0,1,439.12,400.78Z"/><path class="cls-12" d="M428.09,476.69c0,.09-.79-.16-2-.3a11.82,11.82,0,0,0-9.12,2.76,16.7,16.7,0,0,1-1.54,1.38,4.55,4.55,0,0,1,1.25-1.69,10.62,10.62,0,0,1,9.48-2.87A4.48,4.48,0,0,1,428.09,476.69Z"/><path class="cls-11" d="M534.85,778.85c-.41-.72-4-16.25-4-16.25L555.07,756l3,22.33Z"/><path class="cls-2" d="M557.91,774v1.77s26.27,12.36,26.49,18.08L532,793l1-19.89C540.74,777.37,548.88,778,557.91,774Z"/><g class="cls-14"><path class="cls-6" d="M538.22,779.57a2.49,2.49,0,0,0-1.51,2.77,2.06,2.06,0,0,0,2.38,1.74,2.63,2.63,0,0,0,1.59-2.94c-.33-1.14-1.72-2-2.65-1.49"/></g><g class="cls-14"><path class="cls-6" d="M532,793l.24-4.78,50.11,2.53s2.31,1.2,2,3.07Z"/></g><path class="cls-8" d="M558.08,775.93c0,.3-1.29.41-2.56,1.33s-2,2.13-2.19,2,.17-1.8,1.72-2.89S558.14,775.67,558.08,775.93Z"/><path class="cls-8" d="M563.54,778.62c.05.28-1.06.76-1.95,2s-1.15,2.52-1.4,2.51-.4-1.67.73-3.17S563.54,778.34,563.54,778.62Z"/><path class="cls-8" d="M566.56,786.17c-.24.06-.57-1.4.11-3s1.88-2.21,2-2-.64,1.09-1.18,2.41S566.81,786.15,566.56,786.17Z"/><path class="cls-11" d="M486.35,778.85c.41-.72-.54-23.11-.54-23.11l-24.22-6.56,1.57,29.19Z"/><path class="cls-2" d="M463.29,774v1.77S437,788.12,436.8,793.84l52.38-.82-1-19.89C480.46,777.37,472.32,778,463.29,774Z"/><g class="cls-14"><path class="cls-6" d="M483,779.57a2.5,2.5,0,0,1,1.52,2.77,2.07,2.07,0,0,1-2.38,1.74,2.62,2.62,0,0,1-1.59-2.94c.33-1.14,1.72-2,2.65-1.49"/></g><g class="cls-14"><path class="cls-6" d="M489.18,793l-.24-4.78-50.11,2.53s-2.31,1.2-2,3.07Z"/></g><path class="cls-8" d="M463.12,775.93c0,.3,1.29.41,2.56,1.33s2,2.13,2.19,2-.17-1.8-1.73-2.89S463.06,775.67,463.12,775.93Z"/><path class="cls-8" d="M457.66,778.62c-.06.28,1.06.76,1.94,2s1.16,2.52,1.41,2.51.4-1.67-.73-3.17S457.66,778.34,457.66,778.62Z"/><path class="cls-8" d="M454.64,786.17c.23.06.57-1.4-.11-3s-1.88-2.21-2-2,.65,1.09,1.19,2.41S454.39,786.15,454.64,786.17Z"/><path class="cls-8" d="M521.73,495.25c1.12.83,14.36,69.35,24.11,144.27,8,61.62,12.16,123.92,12.16,123.92l-26,4.88s-22.88-76.68-34.7-131.73c-10.9-50.77-16-86.26-16-86.26l.74-37Z"/><path class="cls-8" d="M445.36,494.74S424.73,519.38,426,556c.77,21.92,35.82,207.68,35.82,207.68l25.66-.19-2.76-203.17,3.68-47.81Z"/><path class="cls-9" d="M537.33,766.76c-.14.09-1-1.45-1.46-3.55a9.12,9.12,0,0,1-.36-3.91,22.23,22.23,0,0,1,.94,3.72A23.77,23.77,0,0,1,537.33,766.76Z"/><path class="cls-9" d="M546.21,765.06q-.08,0-.21-.3v0c-.09-.62-.17-2-.4-3.55a33.3,33.3,0,0,1-.64-3.88c.14-.07.91,1.55,1.22,3.77a12.16,12.16,0,0,1,.06,3.66v0C546.26,764.91,546.25,765.05,546.21,765.06Z"/><path class="cls-9" d="M554.7,763.65c-.18,0-.05-2-.36-4.39s-.91-4.25-.75-4.33,1,1.73,1.33,4.23A9.36,9.36,0,0,1,554.7,763.65Z"/><path class="cls-9" d="M482.86,764c-.16-.08.39-1.79.55-4s-.09-4,.08-4,.71,1.76.52,4.09S483,764,482.86,764Z"/><path class="cls-9" d="M474.22,763.86a13.81,13.81,0,0,1-.47-4c-.1-2.19-.05-4,.12-4a13.4,13.4,0,0,1,.47,4C474.44,762.06,474.39,763.85,474.22,763.86Z"/><path class="cls-9" d="M467.44,763.61c-.15.06-.84-1.6-1.22-3.82a10,10,0,0,1-.16-4,22.84,22.84,0,0,1,.74,3.92A23.57,23.57,0,0,1,467.44,763.61Z"/><path class="cls-3" d="M516.76,379.64s5.62.35,19.45,10.38c11.87,8.6,27.42,22.34,27.42,22.34l-11.58,19.29h0l-35.29-25.29Z"/><path class="cls-11" d="M535,408.23s29.1,6.18,36.6,9.63,14.72,8.89,15.13,14,1.11,13.85-12.08,13.24-17.11-6.83-25.12-11.48l-15.07-8.72Z"/><path class="cls-11" d="M513.32,405.82c-.48.39-8.6,9.35-10.26,10.9a4.32,4.32,0,0,0-1.59,3.88,9,9,0,0,0,.7,2.84l.25.6s-1.85,2.74,1.14,4.09a5.44,5.44,0,0,0,3.42-.19,3.13,3.13,0,0,0,2.23,2.27,1.93,1.93,0,0,0,0,1.85c.49,1.16,1.07,1.45,2.61,1.65s9.57-3,9.57-3a28.78,28.78,0,0,0,6.95-1c3.38-1,6.57-4.56,6.57-4.56l4.54-6.74-4.15-10.15s-18.87-3.89-19.51-3.51A21.57,21.57,0,0,1,513.32,405.82Z"/><path class="cls-12" d="M514.28,413.49c.11.13-2.49,2.57-5.79,5.45-1.65,1.44-3.19,2.71-4.29,3.63a14.39,14.39,0,0,1-1.79,1.48,6.66,6.66,0,0,1,1.51-1.8c1-1,2.52-2.32,4.17-3.77C511.4,415.6,514.17,413.36,514.28,413.49Z"/><path class="cls-12" d="M517.62,418.77c.12.12-2.13,2.39-5.12,4.94a49.78,49.78,0,0,1-5.55,4.45c-.12-.13,2.17-2.36,5.15-4.91A55.86,55.86,0,0,1,517.62,418.77Z"/><path class="cls-12" d="M520.8,423.46a7.8,7.8,0,0,1-1.33,1.57,19.71,19.71,0,0,1-3.77,3.29,12.43,12.43,0,0,1-4.65,1.89,4.42,4.42,0,0,1-2.08,0c0-.09.79-.13,2-.42a15,15,0,0,0,4.41-2,28.4,28.4,0,0,0,3.79-3.08A6.43,6.43,0,0,1,520.8,423.46Z"/><path class="cls-12" d="M539,419.74c0,.07-.28.41-.66,1.06a21.8,21.8,0,0,1-1.68,2.58c-1.49,1.92-3.1,3.08-3.2,2.95s1.28-1.46,2.73-3.33c.73-.92,1.3-1.81,1.8-2.44S538.94,419.67,539,419.74Z"/><path class="cls-12" d="M517.73,413.75c0,.08-.41.14-1-.05a3.62,3.62,0,0,1-2.47-3.93c.09-.64.32-1,.39-.94s-.28,1.55.65,3S517.78,413.59,517.73,413.75Z"/><path class="cls-12" d="M520.85,419.21c0,.07-.31,0-.69-.2A2.75,2.75,0,0,1,519,416c.12-.43.31-.63.39-.6s-.16,1,.25,2.1S520.93,419.06,520.85,419.21Z"/><path class="cls-12" d="M523,424.44c-.06.05-.29-.1-.54-.46a3,3,0,0,1-.48-1.62,2.94,2.94,0,0,1,.46-1.62c.24-.37.47-.52.53-.47s-.41.94-.38,2.09S523.18,424.33,523,424.44Z"/><path class="cls-8" d="M483.74,495.21c-.2,0-.45-24.42-.56-54.53s0-54.53.18-54.53.45,24.41.55,54.53S483.94,495.21,483.74,495.21Z"/><polygon class="cls-3" points="497.6 370.63 483.74 384.22 463.07 370.63 457.36 378.86 483.74 395.54 502.4 377.31 497.6 370.63"/><path class="cls-8" d="M483.74,385.38A26.35,26.35,0,0,1,479.8,384l.28-.1c-1.16,2.42-2.86,5.85-4.84,9.77l-.2.4-.34-.29-3-2.49c-4-3.35-7.64-6.42-10.23-8.67-1.3-1.12-2.34-2-3.05-2.69a6.32,6.32,0,0,1-1.06-1.06,5.88,5.88,0,0,1,1.24.84c.76.58,1.86,1.44,3.2,2.52,2.67,2.15,6.34,5.15,10.37,8.51l3,2.49-.54.12c2-3.9,3.79-7.29,5.07-9.66l.1-.19.19.09A28.75,28.75,0,0,1,483.74,385.38Z"/><path class="cls-2" d="M482.39,393.91l-1.35-.85c-4.21,1.67-7.58,6.69-8,11.19s.74,9,1.92,13.35A27.75,27.75,0,0,0,482.39,393.91Z"/><path class="cls-2" d="M483.09,393.91l1.36-.85c4.2,1.67,7.57,6.69,8,11.19s-.75,9-1.93,13.35A27.78,27.78,0,0,1,483.09,393.91Z"/><polygon class="cls-2" points="476.44 391.11 480.22 391.68 482.48 389.51 479.09 385.87 476.44 391.11"/><path class="cls-8" d="M480.23,391.71h0l-3.83-.58,0,0,2.67-5.28,0,0,3.42,3.67,0,0Zm-3.73-.63,3.71.56,2.22-2.14-3.33-3.57Z"/><path class="cls-8" d="M484.14,385.07a26.73,26.73,0,0,1,3.24-2.83l.23-.18.15.27c1.25,2.31,2.95,5.55,4.81,9.18l-.62,0,.58-.84c2.47-3.56,4.73-6.77,6.4-9.06a28.22,28.22,0,0,1,2.83-3.63,29.61,29.61,0,0,1-2.4,3.92c-1.57,2.37-3.77,5.62-6.23,9.18-.2.29-.4.58-.59.84l-.34.5-.28-.54c-1.85-3.64-3.47-6.91-4.61-9.29l.38.09A25.63,25.63,0,0,1,484.14,385.07Z"/><polygon class="cls-2" points="491.43 390.8 486.16 392.05 484.32 389.98 488.79 385.56 491.43 390.8"/><path class="cls-8" d="M486.15,392.09v0L484.27,390l0,0,4.5-4.46,0,0,2.66,5.28ZM484.37,390l1.8,2,5.21-1.24-2.6-5.16Z"/><path class="cls-2" d="M483.86,389l-.78-.1a3.5,3.5,0,1,0,.78.1Z"/><path class="cls-8" d="M483.86,389s.34,0,.86.2a3.61,3.61,0,0,1,1.71,1.71,3.52,3.52,0,0,1-.23,3.59,3.91,3.91,0,0,1-4.08,1.64,4,4,0,0,1-2.61-2.33,3.47,3.47,0,0,1,.14-3.06,3.68,3.68,0,0,1,3.43-2h0c.51.11.77.19.76.23s-.28.06-.8,0h0a3.6,3.6,0,0,0-2.9,2,2.89,2.89,0,0,0,0,2.51,3.35,3.35,0,0,0,2.16,1.89,3.26,3.26,0,0,0,3.35-1.31,3,3,0,0,0,.31-3,3.7,3.7,0,0,0-1.37-1.69C484.14,389.13,483.85,389,483.86,389Z"/><path class="cls-8" d="M513.25,406.13l-1.2-3.11s2.31-6.3-3.94-7.38c-2.81-.49-5.95.92-8.56,2.62a26.61,26.61,0,0,0-7.7,7.83l-4.61,7,2.25,4.38,14.19-1Z"/><polygon class="cls-9" points="490.11 416.37 488.4 413.49 502.4 412.36 503.04 415.36 490.11 416.37"/><path class="cls-9" d="M512,401.29c.19.13-1.57,2.72-4.13,5.56s-4.67,5.06-4.81,4.95,1.73-2.6,4.27-5.43S511.83,401.19,512,401.29Z"/><rect class="cls-9" x="429.49" y="487.81" width="102.02" height="28.53"/><path class="cls-8" d="M456.44,516.34c-.2,0-.36-6.38-.36-14.26s.16-14.27.36-14.27.37,6.39.37,14.27S456.64,516.34,456.44,516.34Z"/><rect class="cls-6" x="487.85" y="487.81" width="13.04" height="9.08"/><rect class="cls-6" x="487.85" y="507.31" width="13.05" height="9.08"/><path class="cls-11" d="M425.53,493.06s-1.26-3.61,3-4.81c2.76-.79,11.29-2.44,10,1.58a3.94,3.94,0,0,1-3.39,2.53,7.48,7.48,0,0,0-3.68,1.82s-1.34,1-1.16,2.28,0,4.09,3.75,5.39,5.49,2.72,6.67,5.1c1,2.1-.27,3-.27,3s2.29,1.74,1.9,3.4a2.76,2.76,0,0,0,.4,1.84l0,0a1.81,1.81,0,0,1-1.33,2.57l-.19,0s-11.3-.41-13.83-3.29a11.8,11.8,0,0,1-2.92-5.51s-2.08-3.49.27-5.54c-.86-4,0-6,1.6-7.22Z"/><path class="cls-12" d="M425.53,493.06a4.14,4.14,0,0,1,.26.8c.16.59.38,1.38.65,2.38v.07l-.06,0a4.49,4.49,0,0,0-1.68,2.74,10.55,10.55,0,0,0,.21,4.35l0,.11-.09.08a3.11,3.11,0,0,0-1,2.38,6.3,6.3,0,0,0,.83,2.89l0,0V509a11.31,11.31,0,0,0,1.86,4.06,8.35,8.35,0,0,0,1.56,1.78,9.6,9.6,0,0,0,2.24,1,44.46,44.46,0,0,0,10.87,1.64h-.06a1.61,1.61,0,0,0,1.42-1.21,1.33,1.33,0,0,0-.11-.94,4,4,0,0,1-.46-1.19,4.16,4.16,0,0,1,0-1.25,2.44,2.44,0,0,0-.3-1,6.4,6.4,0,0,0-1.52-1.73l-.31-.25.32-.24a1.44,1.44,0,0,0,.28-.31,2.4,2.4,0,0,0-.16-2.39,8,8,0,0,0-1.57-2.18,12.72,12.72,0,0,0-4.57-2.58,7.42,7.42,0,0,1-2.4-1.28,4.73,4.73,0,0,1-1.46-2.23,11.76,11.76,0,0,1-.39-2.54,3.18,3.18,0,0,1,1.29-2.23l0,0a8.44,8.44,0,0,1,2.58-1.57,5.87,5.87,0,0,1,1.44-.33,4.37,4.37,0,0,0,1.24-.39,3.37,3.37,0,0,0,1.69-1.76,2,2,0,0,0,.17-1.12,1.22,1.22,0,0,0-.59-.83,4.93,4.93,0,0,0-2.18-.52,15.8,15.8,0,0,0-2.19.06,31.64,31.64,0,0,0-3.83.62,7,7,0,0,0-2.86,1.12,3.29,3.29,0,0,0-1.2,1.88,5.56,5.56,0,0,0,0,1.92,1.71,1.71,0,0,1-.15-.48,4,4,0,0,1,0-1.48,3.42,3.42,0,0,1,1.21-2,7.11,7.11,0,0,1,2.94-1.24,31.17,31.17,0,0,1,3.88-.7,16.25,16.25,0,0,1,2.24-.09,5.2,5.2,0,0,1,2.4.56,1.68,1.68,0,0,1,.81,1.12,2.61,2.61,0,0,1-.18,1.39,3.93,3.93,0,0,1-1.91,2,4.9,4.9,0,0,1-1.39.44,5.75,5.75,0,0,0-1.33.32,8,8,0,0,0-2.4,1.47h0a2.66,2.66,0,0,0-1.06,1.81,11.16,11.16,0,0,0,.37,2.35,4.1,4.1,0,0,0,1.3,2,6.71,6.71,0,0,0,2.22,1.16,13.28,13.28,0,0,1,4.79,2.71,8.64,8.64,0,0,1,1.69,2.33,3,3,0,0,1,.12,3,1.8,1.8,0,0,1-.44.48v-.49a6.74,6.74,0,0,1,1.69,1.92,2.84,2.84,0,0,1,.37,1.29,3.85,3.85,0,0,0,0,1.15,3.2,3.2,0,0,0,.39,1,1.9,1.9,0,0,1,.16,1.36,2.23,2.23,0,0,1-1.9,1.66h-.06c-2-.09-3.87-.28-5.71-.54a29.11,29.11,0,0,1-5.31-1.18,10,10,0,0,1-2.38-1.13,9,9,0,0,1-1.67-1.92,11.84,11.84,0,0,1-1.9-4.28l0,.08a6.55,6.55,0,0,1-.85-3.13,3.48,3.48,0,0,1,1.2-2.67l-.07.19a11,11,0,0,1-.14-4.5,4.68,4.68,0,0,1,1.86-2.85l0,.11q-.33-1.5-.54-2.4A5.64,5.64,0,0,1,425.53,493.06Z"/><path class="cls-12" d="M440.41,510a7.87,7.87,0,0,1-2.34-.3c-1.42-.28-3.36-.84-5.46-1.46a12.21,12.21,0,0,1-3-1.13,11,11,0,0,1-2.05-1.58c-1.09-1-1.42-1.93-1.33-2a13.8,13.8,0,0,0,1.61,1.65,14,14,0,0,0,2.05,1.4,12.83,12.83,0,0,0,2.85,1l5.41,1.63A11.55,11.55,0,0,1,440.41,510Z"/><path class="cls-12" d="M442,514.61a7.16,7.16,0,0,1-2.93.4,25.23,25.23,0,0,1-7-1.31l-1.93-.6a7.67,7.67,0,0,1-1.8-.74,8.77,8.77,0,0,1-2.24-2.38,5.84,5.84,0,0,1-1.27-2.67c.08,0,.5,1,1.62,2.42a9.1,9.1,0,0,0,2.18,2.15,24,24,0,0,0,3.61,1.24,30.79,30.79,0,0,0,6.85,1.46C440.9,514.7,442,514.51,442,514.61Z"/><path class="cls-12" d="M435.07,492.33c.06.16-1.52.88-3.52,1.6a13.11,13.11,0,0,1-2.66.77c-.72.1-1.17,0-1.16-.11s.43-.12,1.08-.31,1.52-.55,2.53-.92C433.34,492.64,435,492.17,435.07,492.33Z"/><path class="cls-3" d="M458.6,415.91l-.12-.1c-5.18-4.67-5.18-4.79-5.18-4.89h.18l.15-.08c.16.24,3,2.84,5,4.61l5.25-4.66.23.26Z"/><polygon class="cls-3" points="453.37 418.42 453.1 418.19 456.6 414.07 456.87 414.3 453.37 418.42"/><rect class="cls-3" x="462.07" y="413.37" width="0.35" height="5.53" transform="translate(-158.59 378.55) rotate(-38.53)"/><path class="cls-2" d="M466.37,420.51c0,.2-3.59.37-8,.37s-8-.17-8-.37,3.59-.36,8-.36S466.37,420.31,466.37,420.51Z"/><rect class="cls-2" x="454.31" y="409.73" width="8.98" height="8.98" rx="1.29"/><rect class="cls-3" x="263.25" y="523.72" width="491.18" height="269.32"/><path class="cls-8" d="M755.12,793.74H262.55V523H755.12ZM264,792.34H753.73V524.42H264Z"/><rect class="cls-2" x="263.25" y="563.94" width="491.18" height="54.73"/><path class="cls-2" d="M380.69,597.45l-.46-.42c-17.68-15.94-17.68-16.35-17.68-16.74h.69l.61-.33c.59.84,10.45,9.84,16.85,15.62l17.81-15.81.93,1Z"/><rect class="cls-2" x="359.17" y="597.75" width="18.4" height="1.39" transform="translate(-326.29 492.26) rotate(-49.7)"/><rect class="cls-2" x="392.4" y="588.66" width="1.39" height="18.85" transform="translate(-286.98 375.09) rotate(-38.53)"/><rect class="cls-2" x="263.25" y="633.01" width="491.18" height="10.01"/><rect class="cls-3" x="255.3" y="511.16" width="508.59" height="25.12"/><path class="cls-8" d="M763.9,536.28c0-.72,0-8.06-.11-25.12l.11.11-508.57.25h0l.37-.36v25.12l-.37-.36,360.45.15,148.15.21-2.58,0-7.6,0-29.34.06-108.36.1-360.72.16h-.36V510.8h.39l508.57.26h.1v.1C763.93,528.22,763.9,535.56,763.9,536.28Z"/><rect class="cls-9" x="566.15" y="493.02" width="178.89" height="17.72"/><rect class="cls-9" x="617.49" y="484.08" width="101.22" height="8.9"/><g class="cls-15"><rect x="617.49" y="484.08" width="101.22" height="8.9"/></g><rect class="cls-9" x="628.97" y="410.65" width="87.44" height="67.44" transform="translate(1345.39 888.74) rotate(180)"/><rect class="cls-4" x="636.39" y="462.74" width="6.7" height="7.58" transform="translate(1279.48 933.06) rotate(180)"/><rect class="cls-7" x="679.81" y="410.82" width="9.93" height="14.39"/><rect class="cls-7" x="679.81" y="463.5" width="9.93" height="14.39"/><path class="cls-8" d="M650.8,478.09c-.2,0-.36-15.16-.36-33.85s.16-33.86.36-33.86.36,15.15.36,33.86S651,478.09,650.8,478.09Z"/><rect class="cls-3" x="608.49" y="478.11" width="119.22" height="5.92"/><path class="cls-8" d="M608.49,484a1.77,1.77,0,0,1,0-.33c0-.27,0-.62,0-1.08,0-1,0-2.5-.07-4.51V478h.11c15-.15,62.75-.26,119.22-.26h0c.73.73.2.2.36.37h0v6.27h-.36l-84.66-.15-25.37-.11-6.84-.05-1.77,0a4,4,0,0,1-.58,0l.63,0,1.82,0,6.93-.05,25.45-.11,84.39-.15-.36.36v-5.9h0l.36.36h0c-56.47,0-104.21-.11-119.22-.26l.11-.11c0,2-.05,3.45-.07,4.45,0,.47,0,.83,0,1.1A2.71,2.71,0,0,1,608.49,484Z"/><path class="cls-8" d="M744.07,493c0,.2-39.62.36-88.47.36s-88.47-.16-88.47-.36,39.6-.37,88.47-.37S744.07,492.78,744.07,493Z"/><path class="cls-8" d="M627.57,510.74c-.2,0-.36-4-.36-8.84s.16-8.85.36-8.85.37,4,.37,8.85S627.78,510.74,627.57,510.74Z"/><rect class="cls-6" x="570.86" y="498.15" width="50.19" height="8.69"/><path class="cls-8" d="M621.08,506.88H570.82v-8.76h50.26Zm-50.19-.07H621v-8.62H570.89Z"/><path class="cls-8" d="M594.77,504.69v-.61h-.61v-.61h-.61v-1.84h.61V501h.61v-.61h1.84V501h.61v.61h.61v1.84h-.61v.61h-.61v.61Zm.61-.61h1.23v-2.45H596V501h-1.23v2.45h.61Z"/><path class="cls-8" d="M598.44,504.69v-1.22h.61v-.61h.61v-.62h1.22v-.61h.62V501h-1.84v.61h-1.22V501h.61v-.61h3.06V501h.61v1.22h-.61v.62h-.61v.61h-1.23v.61h2.45v.61Z"/><path class="cls-8" d="M608.22,504.69v-4.28h1.22v2.45h1.22v-.62h.61v-.61h1.23v.61h-.61v.62h-.62v.61h.62v.61h.61v.61h-1.23v-.61h-.61v-.61h-1.22v1.22Z"/><path class="cls-8" d="M613.72,505.3v-.61h2.44v-.61h-2.44v-.61h-.61v-1.23h.61v-.61h3.67v3.06h-.61v.61Zm.61-1.83h1.83v-1.23h-1.83Z"/><rect class="cls-2" x="250.56" y="424.33" width="112.65" height="86.89" transform="translate(613.77 935.55) rotate(180)"/><rect class="cls-4" x="260.11" y="491.44" width="8.64" height="9.76" transform="translate(528.86 992.65) rotate(180)"/><rect class="cls-7" x="316.05" y="424.56" width="12.8" height="18.54"/><rect class="cls-7" x="316.05" y="492.42" width="12.8" height="18.54"/><path class="cls-8" d="M278.68,511.82c-.2,0-.37-19.11-.37-42.68s.17-42.68.37-42.68.36,19.1.36,42.68S278.88,511.82,278.68,511.82Z"/><path class="cls-11" d="M341.38,441.69s4.81-5.2,6.18-6.11,7.19-4.25,7.19-4.25,9.73-1,11-.12a10.88,10.88,0,0,1,2,1.77l1.46-.05s3.25-.49,3.74,1.52a4.29,4.29,0,0,1-1.92,4.31,7.08,7.08,0,0,1-1,.57l1.32-.35s2.83,2.07,2.24,3.8a8.84,8.84,0,0,1-2.39,3.25,3.16,3.16,0,0,1-.16,3.59l-1.34,1.9a3.92,3.92,0,0,1,.43,3.91c-1,2-7.3,3.89-7.3,3.89s-10.54.92-12.49.45-6.64-.88-6.64-.88Z"/><path class="cls-12" d="M368.15,433a10.25,10.25,0,0,1-2.29.73,26.37,26.37,0,0,1-5.82,1c-2.35,0-4.41-.34-5.85-.06a9.15,9.15,0,0,0-2.23.73,3.38,3.38,0,0,1,2.13-1.11c1.5-.4,3.67-.14,5.92-.1a36.34,36.34,0,0,0,5.74-.8A11.25,11.25,0,0,1,368.15,433Z"/><path class="cls-12" d="M371.68,438.69c.06.06-.13.34-.56.52a5.36,5.36,0,0,1-1.68.41c-1.32.12-2.37.05-2.39-.12s1-.43,2.32-.55c.64-.07,1.21-.13,1.61-.19S371.61,438.62,371.68,438.69Z"/><path class="cls-12" d="M371.33,445.72c.09.16-.51.65-1.38,1s-1.64.35-1.68.18.62-.5,1.45-.81S371.25,445.56,371.33,445.72Z"/><path class="cls-12" d="M370.14,451.22c.14.11-.4.93-1.49,1.32s-2,.14-2,0,.85-.24,1.77-.59S370,451.09,370.14,451.22Z"/><polygon class="cls-11" points="342.22 440.56 323.01 445.29 322.25 467.65 347.97 457.93 349.87 448.5 342.22 440.56"/><path class="cls-9" d="M254,764v31.3l64.4-.31c-.47-6.34-35.81-19-35.81-19l.7-12Z"/><g class="cls-14"><path class="cls-6" d="M264.41,773.18a2.73,2.73,0,0,0-1.77,3.13,2.51,2.51,0,0,0,3,1.84,2.87,2.87,0,0,0,1.85-3.32c-.44-1.25-2.17-2.21-3.29-1.56"/></g><path class="cls-8" d="M254,795.33v-5l61.49.71s3.2,1.89,2.91,4Z"/><path class="cls-8" d="M282.58,776.62c0,.32-1.57.49-3.1,1.56s-2.32,2.44-2.61,2.32.15-2,2-3.27S282.64,776.32,282.58,776.62Z"/><path class="cls-8" d="M291,779.51c.08.32-1.27.89-2.31,2.28s-1.33,2.84-1.64,2.83-.54-1.84.79-3.54S291,779.2,291,779.51Z"/><path class="cls-8" d="M294.81,787.49c-.28.07-.74-1.54,0-3.33s2.23-2.52,2.37-2.25-.75,1.23-1.37,2.71S295.12,787.45,294.81,787.49Z"/><path class="cls-8" d="M282,767.72c-.13.29-1.57-.13-3.33,0s-3.14.75-3.31.47,1.14-1.45,3.23-1.6S282.1,767.46,282,767.72Z"/><path class="cls-8" d="M282.31,778a4.49,4.49,0,0,0,.14-1.91,10.57,10.57,0,0,0-1.71-4.94,10,10,0,0,0-2.52-2.6,2.21,2.21,0,0,0-2.17-.37,2.4,2.4,0,0,0-1.27,2.06,8.29,8.29,0,0,0,5.66,7.32,8.15,8.15,0,0,0,8.7-2.53,5.76,5.76,0,0,0,1.15-1.93,2,2,0,0,0,0-1.25,1.51,1.51,0,0,0-.87-.91,2.76,2.76,0,0,0-2,.2,11.75,11.75,0,0,0-1.5.83,13.21,13.21,0,0,0-3.68,3.58,4.83,4.83,0,0,0-.89,1.67,18.4,18.4,0,0,1,4.9-4.67c.86-.48,2-1.18,2.9-.87.4.16.56.62.37,1.17a5,5,0,0,1-1,1.59,7.41,7.41,0,0,1-7.79,2.22,7.55,7.55,0,0,1-5.1-6.36,1.57,1.57,0,0,1,.76-1.36,1.53,1.53,0,0,1,1.44.28,9.45,9.45,0,0,1,2.39,2.32,10.9,10.9,0,0,1,1.88,4.59C282.27,777.33,282.23,778,282.31,778Z"/><polygon class="cls-9" points="224.07 765.62 224.07 775.73 223.34 793.89 199.19 794.47 198.33 775.73 199.04 764.3 224.07 765.62"/><path class="cls-8" d="M211.4,792.52c-.15,0,.2-5.55.78-12.41s1.16-12.43,1.3-12.44-.2,5.55-.77,12.42S211.55,792.52,211.4,792.52Z"/><polygon class="cls-8" points="223.43 790.87 199.04 791.14 199.04 794.47 223.45 794.44 223.43 790.87"/><path class="cls-8" d="M199.1,780.42s.17-.37.62-1a16.69,16.69,0,0,1,2.15-2.25,16.47,16.47,0,0,1,3.9-2.57,13,13,0,0,1,15,2.73,10.69,10.69,0,0,1,1.77,2.57A3.24,3.24,0,0,1,223,781a26.22,26.22,0,0,0-2.53-3.29,13,13,0,0,0-9.05-3.64,15,15,0,0,0-9.19,3.51C200.18,779.21,199.2,780.51,199.1,780.42Z"/><path class="cls-8" d="M278.42,529.51l-2.82-4.4-90.22,4.23s-1.73,28-.47,38.29c.4,3.3,2.26,16,2.26,16l2.23,98.87c.84,7.84,3,90.36,3,90.36h35.76l7.29-132.28c.77-14.72.21-37,1-53.32l12.29,49.9,9.15,30.7s-2,15.23-4.14,33.36c-3,25.41-2.92,70.51-2.92,70.51l36.7.58s5.1-46.85,9.09-74.21L300,665.5c0-5.46-2.38-18.82-2.8-21Z"/><path class="cls-9" d="M244.39,590.29a9.37,9.37,0,0,1-1.66-.55,20.45,20.45,0,0,1-1.88-.81c-.71-.35-1.55-.71-2.41-1.23a32.26,32.26,0,0,1-2.8-1.72c-1-.64-2-1.43-3-2.24a44.75,44.75,0,0,1-6.12-6.12,45.7,45.7,0,0,1-4.75-7.23c-.57-1.2-1.15-2.33-1.56-3.44a30.87,30.87,0,0,1-1.1-3.1c-.33-1-.5-1.85-.69-2.62a16.19,16.19,0,0,1-.39-2,8.23,8.23,0,0,1-.18-1.73c.14,0,.45,2.44,1.71,6.21a30.46,30.46,0,0,0,1.17,3c.42,1.09,1,2.19,1.59,3.37a48.52,48.52,0,0,0,4.72,7.1,47.14,47.14,0,0,0,6,6.06c1,.82,2,1.61,3,2.26s1.88,1.25,2.73,1.77C242.1,589.31,244.44,590.16,244.39,590.29Z"/><path class="cls-9" d="M279.23,551a8.73,8.73,0,0,1-3.12.09,18.31,18.31,0,0,1-7.17-2.33,18,18,0,0,1-5.61-5,8.06,8.06,0,0,1-1.45-2.76c.1-.05.65,1,1.83,2.47a20,20,0,0,0,5.56,4.75,20.68,20.68,0,0,0,6.9,2.44C278,550.92,279.22,550.89,279.23,551Z"/><path class="cls-11" d="M215.86,319.51l-.69,55.5c-.11,9.44,1.64,23.32,16.57,22.83h0c12.93-1.41,16.35-13.64,16.45-22.45.05-4.18.1-7.66.13-8.09,0,0,14.15-1.15,15.34-15.12.58-6.75.64-20.76.54-33.43A26.11,26.11,0,0,0,240,292.92l-1.35-.1C224,292.61,215.67,304.9,215.86,319.51Z"/><path class="cls-12" d="M248.32,367.3a33.8,33.8,0,0,1-17.81-6.71s3.69,10.54,17.74,10.3Z"/><path class="cls-8" d="M240.31,324.48c-.27.28-1.89-1-4.23-1.08s-4.09,1.09-4.33.78c-.12-.13.16-.65.93-1.18a5.81,5.81,0,0,1,3.48-1,5.67,5.67,0,0,1,3.36,1.22C240.22,323.82,240.45,324.35,240.31,324.48Z"/><path class="cls-8" d="M240.24,329.32a1.88,1.88,0,0,1-2,1.77,1.81,1.81,0,0,1-1.82-1.84,1.9,1.9,0,0,1,2-1.78A1.81,1.81,0,0,1,240.24,329.32Z"/><path class="cls-8" d="M246.18,340.76a14.67,14.67,0,0,1,3.53-.37c.56,0,1.08-.09,1.2-.46a2.84,2.84,0,0,0-.24-1.65l-1.32-4.3c-1.82-6.11-3.1-11.12-2.85-11.19s1.92,4.82,3.74,10.94c.44,1.5.85,2.94,1.25,4.31a3.21,3.21,0,0,1,.13,2.18,1.37,1.37,0,0,1-1,.73,3.19,3.19,0,0,1-.95.06A14.15,14.15,0,0,1,246.18,340.76Z"/><path class="cls-8" d="M239.32,315.68c-.23.52-2.1.13-4.35.24s-4.08.61-4.35.11c-.11-.24.24-.71,1-1.18a7.06,7.06,0,0,1,3.29-.92,6.9,6.9,0,0,1,3.33.65C239,315,239.42,315.43,239.32,315.68Z"/><path class="cls-8" d="M261.55,320c-.25.42-2.07,0-4.29-.12s-4,.22-4.28-.23c-.1-.21.26-.59,1-.92a7.59,7.59,0,0,1,3.28-.54,7.85,7.85,0,0,1,3.25.8C261.3,319.4,261.66,319.81,261.55,320Z"/><path class="cls-11" d="M216.25,330c-.23-.13-9.4-3.55-9.79,6s9.3,8,9.33,7.73S216.25,330,216.25,330Z"/><path class="cls-12" d="M213,340s-.17.11-.45.23a1.69,1.69,0,0,1-1.25,0c-1-.41-1.79-2.05-1.76-3.78a5.59,5.59,0,0,1,.56-2.37,1.94,1.94,0,0,1,1.31-1.23.85.85,0,0,1,1,.5c.11.27.05.46.1.48s.21-.16.15-.56a1,1,0,0,0-.36-.61,1.2,1.2,0,0,0-.91-.28,2.34,2.34,0,0,0-1.8,1.41,5.66,5.66,0,0,0-.69,2.65c0,1.93.9,3.78,2.26,4.24a1.82,1.82,0,0,0,1.54-.19C213,340.19,213.05,340,213,340Z"/><path class="cls-8" d="M243.92,347.4c.1-.25-1.78-.81-3.1-2.57a10.54,10.54,0,0,1-1.32-2.5c-.28-.7-.49-1.13-.6-1.1s-.07.5.08,1.26a7.12,7.12,0,0,0,1.24,2.8,5.69,5.69,0,0,0,2.44,1.87C243.4,347.46,243.89,347.48,243.92,347.4Z"/><path class="cls-8" d="M261.65,325.36c-.27.28-1.89-1-4.23-1.08s-4.09,1.09-4.33.79c-.12-.14.16-.66.93-1.19a5.88,5.88,0,0,1,3.48-1,5.67,5.67,0,0,1,3.36,1.22C261.56,324.7,261.79,325.23,261.65,325.36Z"/><path class="cls-8" d="M261.27,330a1.9,1.9,0,0,1-2,1.77,1.81,1.81,0,0,1-1.82-1.84,1.89,1.89,0,0,1,2-1.78A1.81,1.81,0,0,1,261.27,330Z"/><path class="cls-8" d="M274,300.2a7.55,7.55,0,0,0-9.43-3,10.35,10.35,0,0,0-17.83-8.94,4.26,4.26,0,0,0-2.06-2.84,8.38,8.38,0,0,0-3.44-1,16.47,16.47,0,0,0-15,6.55A17.9,17.9,0,0,0,211,296.51c-4.5,5-5.35,16.54-.42,26.52l1.16,6.26c1.54,0,3,.11,3.91,1,1.3,1.17,1.88,3.36,4,2.53,1.09-.43,2.09-2.72,2.46-3.84a54.56,54.56,0,0,0,2.36-23.08A17.59,17.59,0,0,1,229.9,302l-.16.15c3.9-1.36,8.32-2.69,12-.86,2.88,1.43,4.57,4.41,6.72,6.79a21.92,21.92,0,0,0,15.63,7.22c.21,3.93-.12,9.49.08,13.43l3.31-6.3v0c.27-.46.49-.93.71-1.4l.07-.14h0a31.37,31.37,0,0,0,2.09-2.56,8.25,8.25,0,0,0,1.36-8.45A7.56,7.56,0,0,0,274,300.2Z"/><path class="cls-8" d="M269.44,318.65h0Z"/><path class="cls-9" d="M268.22,300.34a.8.8,0,0,1,.07.21,3.33,3.33,0,0,1,.09.62,4.23,4.23,0,0,1-1.63,3.48,3.75,3.75,0,0,1-1.75.75,4.31,4.31,0,0,1-4-1.5l.23-.21a2.62,2.62,0,0,1,.68,1.88,3.52,3.52,0,0,1-1.07,2.42,4,4,0,0,1-2.27,1,6.15,6.15,0,0,1-3.94-1.08,13,13,0,0,1-2.1-1.79,4.67,4.67,0,0,1-.67-.76,7.06,7.06,0,0,1,.75.67,15.76,15.76,0,0,0,2.14,1.69,6,6,0,0,0,3.79,1,3.7,3.7,0,0,0,2.09-.9,3.19,3.19,0,0,0,1-2.2,2.29,2.29,0,0,0-.58-1.65l.23-.21a4.1,4.1,0,0,0,3.71,1.43,3.74,3.74,0,0,0,2.68-1.82,4.14,4.14,0,0,0,.62-2.14C268.27,300.64,268.19,300.35,268.22,300.34Z"/><path class="cls-9" d="M256.23,289.84s.07,0,.2.09a5.51,5.51,0,0,1,.54.36,4.69,4.69,0,0,1,1.44,1.88,3.64,3.64,0,0,1-.33,3.45,2.81,2.81,0,0,1-1.74,1.2,2.84,2.84,0,0,1-2.23-.43,2.72,2.72,0,0,1-.54-.53l.28-.15a2.72,2.72,0,0,1-.07,2.15,3,3,0,0,1-1.4,1.43,3.89,3.89,0,0,1-3.26,0,5.16,5.16,0,0,1-1.76-1.33,2.73,2.73,0,0,1-.47-.65s.2.21.56.57a5.59,5.59,0,0,0,1.75,1.21,3.69,3.69,0,0,0,3.05-.05,2.64,2.64,0,0,0,1.25-1.3,2.41,2.41,0,0,0,.06-1.9l-.51-1.18.78,1a2.46,2.46,0,0,0,.46.45,2.6,2.6,0,0,0,2,.39,2.51,2.51,0,0,0,1.57-1.06,3.49,3.49,0,0,0,.37-3.21,4.89,4.89,0,0,0-1.32-1.86C256.48,290,256.21,289.87,256.23,289.84Z"/><path class="cls-9" d="M175.94,408.68s-10.75,61.1-10.23,66.82,3.38,14.8,9.87,16.36a28.51,28.51,0,0,0,12.46,0l-7.79-75.06Z"/><path class="cls-9" d="M277.93,502.81,276,475l.59-37.37-7.6-50.21a4.1,4.1,0,0,0-2.57-3.21l-11.77-4.53-1.68-6.63s-10.38-7.66-27.51-7.88c-5.26-.07-12.71,2-16.88,5.23l-1.08,6.72s-12.88,9.15-15.73,11.84c-11.9,11.26-14.39,15.87-15.78,19.68S184.21,501,184.21,501l-1.29,15.94-2,5.87c-.93,4,.06,10.78,4.14,11l93.58-.39C282.84,533.43,278.72,506.9,277.93,502.81Z"/><path class="cls-9" d="M333.69,440.65l-35.18,3.19c-1.84-5-5-1.95-5-1.95S283,418.38,279.58,406.83c-3.79-12.9-7.83-17.93-9.58-20.29-1.29-1.74-5.33-2.66-5.33-2.66a18.93,18.93,0,0,0-17.83,5.41c-9.74,10.26-6.13,38.76-6.13,38.76L254.38,448c.93,2.68,7.51,14,15.35,23.33a17.85,17.85,0,0,0,17.51,5.92L337,466.45C339.24,451.25,333.69,440.65,333.69,440.65Z"/><path class="cls-8" d="M254.6,379.72a2.45,2.45,0,0,1-.47-.1l-1.34-.36c-1.17-.29-2.86-.7-5-1.1a138.93,138.93,0,0,0-16.68-2.05,112.8,112.8,0,0,0-16.8.05c-2.14.18-3.86.45-5,.66l-1.36.27a2.44,2.44,0,0,1-.48.07s.15-.07.46-.15l1.35-.34a44.73,44.73,0,0,1,5.05-.79,102.77,102.77,0,0,1,16.85-.17,121.82,121.82,0,0,1,16.71,2.18c2.11.43,3.8.88,5,1.23l1.32.42C254.45,379.64,254.61,379.7,254.6,379.72Z"/><g class="cls-10"><path d="M207.74,377.08c14.15,2.5,28.48,0,43.45,1.79-14.45-3-29.5-4.41-43.45-1.79"/></g><g class="cls-10"><path d="M182.92,492c-7.95-18.63-6.42-39.05-5.34-59.28Z"/></g><path class="cls-8" d="M176.86,421.9a.71.71,0,0,1,0,.21c0,.17,0,.38.07.64.06.59.13,1.41.23,2.45.19,2.15.45,5.23.77,9,.65,7.62,1.52,18.13,2.58,29.74s2.15,22.11,3,29.7c.44,3.79.82,6.86,1.08,9,.13,1,.23,1.86.3,2.44,0,.27.05.48.07.64a.91.91,0,0,1,0,.22.91.91,0,0,1,0-.22c0-.17-.06-.37-.11-.64-.09-.58-.21-1.39-.37-2.43-.31-2.12-.74-5.18-1.21-9-1-7.58-2.09-18.08-3.16-29.69s-1.89-22.13-2.46-29.75c-.27-3.79-.49-6.86-.64-9-.07-1-.12-1.87-.16-2.45,0-.27,0-.48,0-.64Z"/><path class="cls-8" d="M237.13,412a2.17,2.17,0,0,1-.58,0h-1.67c-1.45,0-3.55,0-6.14.08-5.17.12-12.32.5-20.17,1.43s-14.89,2.24-19.95,3.34c-2.53.55-4.57,1-6,1.37l-1.62.38a4.58,4.58,0,0,1-.58.11,2.67,2.67,0,0,1,.56-.19l1.6-.45c1.4-.39,3.43-.91,6-1.49a188.69,188.69,0,0,1,40.18-4.78c2.59,0,4.69,0,6.14.05l1.67.06A3.8,3.8,0,0,1,237.13,412Z"/><path class="cls-8" d="M202.43,431.79c-.12,0,.09-8.47.46-18.9s.75-18.89.86-18.89-.1,8.47-.46,18.9S202.54,431.79,202.43,431.79Z"/><g class="cls-10"><path d="M181.91,418.7a106.85,106.85,0,0,0,17-2.24,25.69,25.69,0,0,0-.95,7.6,17.42,17.42,0,0,0,3.77-6.95,10.5,10.5,0,0,0,4.29,7,23.13,23.13,0,0,0,.38-7.74q12.68-1.53,25.18-4.17a170.83,170.83,0,0,0-50,6.22"/></g><g class="cls-10"><path d="M249.72,437.73s9.4,46,26.8,45.35l.33-6.76C267.07,472,258.37,455.1,249.72,437.73Z"/></g><path class="cls-8" d="M329,468.77a5.83,5.83,0,0,1-1,.27l-3,.64-11,2.24-16.36,3.25c-3.08.61-6.28,1.38-9.65,2a24.57,24.57,0,0,1-5.24.45,22.44,22.44,0,0,1-2.7-.15,7.9,7.9,0,0,1-2.72-.74,1.33,1.33,0,0,1-.48-.41l.21.16a12.31,12.31,0,0,1-4.68-2.77,34.57,34.57,0,0,1-3.62-3.76A82.44,82.44,0,0,1,263,462c-3.39-5.24-6.09-10.16-8.29-14.32s-3.86-7.59-5-10c-.53-1.15-1-2.06-1.28-2.74a6.57,6.57,0,0,1-.4-1,6.47,6.47,0,0,1,.52.92l1.4,2.69c1.2,2.33,2.93,5.72,5.18,9.84s5,9,8.38,14.22a86.81,86.81,0,0,0,5.74,7.85,35.24,35.24,0,0,0,3.56,3.68,11.78,11.78,0,0,0,4.4,2.62l.21.16s.13.11.24.16a7,7,0,0,0,2.46.65,23,23,0,0,0,2.62.16,24.15,24.15,0,0,0,5.12-.44c3.35-.6,6.56-1.36,9.65-2l16.39-3.1,11.06-2,3-.52A7.51,7.51,0,0,1,329,468.77Z"/><path class="cls-8" d="M333.69,440.65a2.74,2.74,0,0,1-.66.12l-1.95.24-7.3.76-25.24,2.41-.23,0-.11-.23a6,6,0,0,0-1.83-2.44,1.91,1.91,0,0,0-2.56.57l-.38.47-.23-.55c-1-2.37-2-4.84-3.07-7.36-5.24-12.79-9.7-24.47-13.06-32.87-1.67-4.2-3.07-7.59-4.07-9.91l-1.18-2.66a5.92,5.92,0,0,1-.38-.94,5.26,5.26,0,0,1,.51.88c.33.58.76,1.46,1.31,2.61,1.08,2.29,2.55,5.64,4.29,9.83,3.48,8.35,8,20,13.26,32.78,1,2.52,2.07,5,3.05,7.36l-.61-.08a3.26,3.26,0,0,1,1.61-1.06,2.32,2.32,0,0,1,1.89.33,6.51,6.51,0,0,1,2.08,2.75l-.35-.2,25.26-2.15,7.32-.57,1.95-.12A2.92,2.92,0,0,1,333.69,440.65Z"/><path class="cls-8" d="M262.94,388.85a39.18,39.18,0,0,0-7.72.6,18.32,18.32,0,0,0-7.52,3.42,19.55,19.55,0,0,0-5.91,8.16,28.45,28.45,0,0,0-2,10,54.43,54.43,0,0,0,.46,8.4c.29,2.39.61,4.31.81,5.65a12.94,12.94,0,0,1,.24,2.08,10.52,10.52,0,0,1-.52-2c-.28-1.32-.68-3.24-1-5.63a49.21,49.21,0,0,1-.62-8.49,28.51,28.51,0,0,1,2-10.25,19.71,19.71,0,0,1,6.17-8.41,18.36,18.36,0,0,1,7.83-3.39,24.39,24.39,0,0,1,5.73-.36c.68,0,1.2.09,1.55.14S262.94,388.82,262.94,388.85Z"/></g></g></svg>