<svg xmlns="http://www.w3.org/2000/svg" viewBox="0 0 469.39 331.02"><defs><style>.cls-2{fill:#fefdfd;}</style></defs><g id="Layer_2" data-name="Layer 2"><g id="Layer_1-2" data-name="Layer 1"><path class="cls-1" d="M241.47,331c-55.05-.57-103.47-1-151.78-4.74-11.27-.86-22.57-1.84-33.65-4.16C29.79,316.61,13,298.56,7.81,270.71,3.05,245,1.68,218.89.56,192.78c-1.35-31.64-.13-63.2,2.3-94.73a279.21,279.21,0,0,1,5.7-41C15.12,28.27,33.78,11.4,63.13,7.51c30.56-4,61.31-5.14,92.06-6.17C185.13.34,215.09-.19,245,.06c45.25.38,90.5,1.12,135.64,4.63,10.94.85,21.9,1.84,32.66,4.1,26.24,5.51,43.09,23.55,48.24,51.4,4.76,25.76,6.12,51.82,7.24,77.92,1.36,31.65.13,63.21-2.29,94.74a281.94,281.94,0,0,1-5.7,41c-6.57,28.81-25.21,45.7-54.57,49.57-31.06,4.09-62.3,5.34-93.56,6.14C286.75,330.21,260.79,330.62,241.47,331Zm-54.66-95.65,122.86-69.92L186.81,95.55Z"/><path class="cls-2" d="M186.81,235.37V95.55l122.86,69.9Z"/></g></g></svg>