<svg xmlns="http://www.w3.org/2000/svg" viewBox="0 0 35.76 28.95"><defs><style>.cls-1{fill:#308d62;}</style></defs><g id="Layer_2" data-name="Layer 2"><g id="Layer_1-2" data-name="Layer 1"><path class="cls-1" d="M2.08,26.32c.35-.37.51-.53.66-.71l5.33-6.45c1.44-1.74,2.8-1.85,4.48-.38l5.31,4.67.49-.78c1.43-2.46,2.85-4.92,4.28-7.37,1.16-2,2.92-2.22,4.56-.55l6.2,6.31c.16.17.28.36.43.54l.17-.1c0-.22,0-.44,0-.66q0-8.05,0-16.1c0-2.07-.94-3-3-3H4.79c-2.12,0-3,.93-3,3.07v5.73a2.09,2.09,0,0,1,0,.63,1.06,1.06,0,0,1-.86.71,1.13,1.13,0,0,1-.78-.78C0,8.64-.06,6.19.09,3.75.22,1.53,2.18,0,4.58,0H31.05a4.32,4.32,0,0,1,4.71,4.7q0,9.84,0,19.68a4.29,4.29,0,0,1-4.54,4.55H4.67A4.31,4.31,0,0,1,0,24.25V15.09a2.86,2.86,0,0,1,.08-.95,1.08,1.08,0,0,1,.8-.48.91.91,0,0,1,.79.48,3.41,3.41,0,0,1,.05.92c0,3.1,0,6.21,0,9.32A15.2,15.2,0,0,0,2.08,26.32Zm15.6.9c4.74,0,9.33,0,13.93,0a2.44,2.44,0,0,0,2.31-1.76,1.68,1.68,0,0,0-.43-1.87c-2.54-2.53-5-5.11-7.54-7.66-.8-.81-1.27-.75-1.85.24-1.25,2.13-2.48,4.27-3.72,6.4Zm-14,0H15.35a.6.6,0,0,0,.46-.22c.42-.66.8-1.35,1.2-2l-5.7-5c-.79-.69-1.13-.66-1.83.17L4.15,26.57C4,26.73,3.92,26.9,3.7,27.23Z"/><path class="cls-1" d="M12.79,12.76a3.41,3.41,0,0,1,6.82,0,3.41,3.41,0,1,1-6.82,0Zm1.72,0a1.68,1.68,0,0,0,1.64,1.7,1.72,1.72,0,0,0,1.74-1.69,1.68,1.68,0,0,0-1.73-1.68A1.64,1.64,0,0,0,14.51,12.77Z"/></g></g></svg>