<svg xmlns="http://www.w3.org/2000/svg" viewBox="0 0 47.46 38.07"><defs><style>.cls-1{fill:#fff;}</style></defs><g id="Layer_2" data-name="Layer 2"><g id="Layer_1-2" data-name="Layer 1"><path class="cls-1" d="M22.7,7.71A7.43,7.43,0,0,1,27.77,6a4,4,0,0,0,2.89-1.27Q32.84,2.64,35,.58c.84-.78,1.2-.78,2,0Q42,5.5,46.82,10.38c.87.86.86,1.18,0,2.07Q42.22,17,37.62,21.61a8.37,8.37,0,0,1-.77.62c2.19,2.92,1.35,5.41-1.94,6.05a3.36,3.36,0,0,1-3,3.22.58.58,0,0,0-.37.43,3.3,3.3,0,0,1-3.13,2.89c-1.21,3.51-3,4.12-6,2.08A3.48,3.48,0,0,1,19.14,38a3.08,3.08,0,0,1-2.47-2.47c-.1-.47-.21-.71-.76-.81a3.14,3.14,0,0,1-2.57-2.6c-.06-.23-.29-.57-.49-.61A3.34,3.34,0,0,1,10,28.33c-3.34-.54-4.2-3.8-2-6-.22-.23-.44-.47-.67-.7Q4,18.37.69,15.06c-.92-.91-.92-1.22,0-2.13Q6.21,7.38,11.76,1.86c.9-.91,1.2-.9,2.13,0,1.23,1.22,2.43,2.47,3.68,3.66a4.09,4.09,0,0,0,1.26.66C20,6.69,21.26,7.15,22.7,7.71Zm.4,20.53c1.5.23,2.74.89,3.08,2.49a3.23,3.23,0,0,0,1.18,1.79,1.37,1.37,0,1,0,1.91-2c-.58-.64-1.21-1.23-1.82-1.84a30.71,30.71,0,0,1-2.32-2.39,1.43,1.43,0,0,1,0-1.29c.31-.49.86-.37,1.29,0l.53.52,3.61,3.6a1.23,1.23,0,0,0,1.74.26,2.38,2.38,0,0,0,.63-1.48c0-.3-.38-.69-.65-1-1.25-1.28-2.54-2.52-3.77-3.82a1.4,1.4,0,0,1-.31-1.06.92.92,0,0,1,.7-.58,1.72,1.72,0,0,1,1,.49c1.18,1.13,2.32,2.3,3.48,3.46s1.76,1.19,2.45.52.55-1.45-.46-2.46l-3.67-3.67-5.38-5.38c-.84.87-1.61,1.71-2.43,2.5a3.71,3.71,0,1,1-5.19-5.28c.78-.79,1.61-1.53,2.54-2.4a15.51,15.51,0,0,0-1.59-.92c-1.32-.57-1.55-.51-2.57.52L7.85,18.13c-.23.23-.45.47-.65.68l2.24,2.33c.55-.61,1-1.22,1.58-1.74a3.15,3.15,0,0,1,3.85-.48,3.45,3.45,0,0,1,1.68,2.79,3.34,3.34,0,0,1,3.2,2.88.71.71,0,0,0,.45.47A3.32,3.32,0,0,1,23.1,28.24ZM31.31,6.6a6.53,6.53,0,0,1-4.16,1.28A4.92,4.92,0,0,0,23.73,9.3c-1.29,1.25-2.56,2.51-3.81,3.8a1.85,1.85,0,1,0,2.63,2.59c1-1,2-2,2.95-2.94A9.63,9.63,0,0,1,27,11.29a1.37,1.37,0,0,1,1.26,0c.2.14.09.81,0,1.21-.05.23-.34.41-.45.54l7.76,7.76L40.42,16ZM5.77,17.34,16.13,7l-3.3-3.32L2.5,14.07Zm39.39-5.71L35.87,2.35l-3.18,3,9.17,9.41c.88-.88,1.67-1.7,2.49-2.5A9.76,9.76,0,0,1,45.16,11.63ZM9.86,26.52a4.27,4.27,0,0,0,1-.51c1.15-1.11,2.29-2.24,3.39-3.4a1.23,1.23,0,0,0,0-1.83,1.21,1.21,0,0,0-1.82-.13,46.9,46.9,0,0,0-3.51,3.54,1.68,1.68,0,0,0-.11,1.43C9,26,9.5,26.23,9.86,26.52Zm13.4,3.53c-.41.16-.73.18-.91.36-1.24,1.2-2.49,2.39-3.66,3.66a1.19,1.19,0,0,0,.18,1.74,1.21,1.21,0,0,0,1.76.09c1.21-1.13,2.41-2.29,3.51-3.54a1.66,1.66,0,0,0,.12-1.42C24.12,30.56,23.59,30.33,23.26,30.05Zm-9.93-.4c.13,0,.43,0,.59-.18C15.2,28.23,16.5,27,17.7,25.68A1.17,1.17,0,0,0,17.48,24a1.17,1.17,0,0,0-1.67-.15,44.9,44.9,0,0,0-3.7,3.73C11.43,28.37,12.17,29.62,13.33,29.65Zm8-1.48c-.36-.41-.62-1-1-1.1a2,2,0,0,0-1.58.32c-1.09.93-2.08,2-3.09,3a1.39,1.39,0,1,0,1.94,2q1.53-1.47,3-3A8.14,8.14,0,0,0,21.37,28.17Zm2.42,7.29c.91.9,1.72,1,2.32.25a1.31,1.31,0,0,0-.37-2Z"/><path class="cls-1" d="M5.91,14.77c-.21-.15-.57-.3-.68-.55a1,1,0,0,1,0-.93c1-1,2-2,3-3a1.1,1.1,0,0,1,1.05.08c.22.2.36.86.21,1-1,1.11-2.1,2.15-3.17,3.2C6.3,14.7,6.15,14.7,5.91,14.77Z"/><path class="cls-1" d="M42.5,11.26c-.13.18-.27.54-.49.62a1.27,1.27,0,0,1-1-.1,13.89,13.89,0,0,1-2-2,1.08,1.08,0,0,1,0-1.06c.18-.24.85-.42,1-.28a30.12,30.12,0,0,1,2.35,2.31C42.48,10.86,42.46,11,42.5,11.26Z"/><circle class="cls-1" cx="37.12" cy="6.46" r="1"/><circle class="cls-1" cx="11.12" cy="8.46" r="1"/></g></g></svg>