<svg xmlns="http://www.w3.org/2000/svg" viewBox="0 0 38.02 38.02"><defs><style>.cls-1{fill:#308d62;}</style></defs><g id="Layer_2" data-name="Layer 2"><g id="Layer_1-2" data-name="Layer 1"><path class="cls-1" d="M37.39,31.68h-3.8V26.61a3.19,3.19,0,0,1,.63-1.9,6.4,6.4,0,0,0,1.27-3.8,4.47,4.47,0,0,0-2.54-4V10.14a1.9,1.9,0,0,0-1.9-1.9h-9.5V.63A.64.64,0,0,0,20.91,0H.63A.63.63,0,0,0,0,.63V24.71a.64.64,0,0,0,.63.64H14.57v2.53a1.91,1.91,0,0,0,1.91,1.9h12v1.9H24.71a.64.64,0,0,0-.63.64v5.07a.63.63,0,0,0,.63.63H37.39a.63.63,0,0,0,.63-.63V32.32A.64.64,0,0,0,37.39,31.68ZM10.77,5.7a.63.63,0,0,1,0-1.26.63.63,0,1,1,0,1.26ZM11.41,7V9.61a2,2,0,0,0-1.27,0V7Zm-.64,3.8a.64.64,0,0,1,.64.64.64.64,0,0,1-.64.63.63.63,0,0,1-.63-.63A.64.64,0,0,1,10.77,10.77Zm1.9-5.7a1.9,1.9,0,0,0-3.8,0V5.7H4.77L1.82,1.27H19.73l-3,4.43h-4.1Zm-11.4,19V2.73l2.64,4A.64.64,0,0,0,4.44,7H8.87v4.19a3.52,3.52,0,0,0-.67,3.41l.07.21,1.2-.41-.06-.2a2.22,2.22,0,0,1,0-1.44,1.9,1.9,0,0,0,3.26-1.32V7h4.44a.66.66,0,0,0,.53-.28l2.64-4V8.31a2,2,0,0,0-.82.48l-4.33,4.33a1.9,1.9,0,0,0-.56,1.35v3.91H10.14v1.26h4.43v1.27h-1.9v1.27h1.9v1.9Zm15.21,4.44a.64.64,0,0,1-.64-.64V14.47A.64.64,0,0,1,16,14l3.61-3.62v2.27a.64.64,0,0,1-.63.64H17.74v1.26H19a1.9,1.9,0,0,0,1.9-1.9V9.51H31.05a.63.63,0,0,1,.63.63v6.38A4.41,4.41,0,0,0,28,17.74h-2.6V19H27a4.44,4.44,0,0,0-.43,1.9H20.28v1.27h6.46a6.38,6.38,0,0,0,1.14,2.53,3.14,3.14,0,0,1,.37.64h-2.9v1.26h3.17v1.91ZM28.9,24a5.06,5.06,0,0,1-1-3,3.17,3.17,0,1,1,6.34,0,5.11,5.11,0,0,1-1,3,4.43,4.43,0,0,0-.89,2.66v5.07H29.78V26.61A4.49,4.49,0,0,0,28.9,24Zm7.85,12.8H25.35V33h11.4Z"/></g></g></svg>