<svg xmlns="http://www.w3.org/2000/svg" viewBox="0 0 53.48 53.48"><defs><style>.cls-1{fill:#fff;stroke:#308e62;stroke-miterlimit:10;stroke-width:2px;}.cls-2{fill:#eeefee;}.cls-3{fill:#575b6d;}.cls-4{fill:#484c5b;}.cls-5{fill:#f4bb87;}.cls-6{fill:#fed19a;}.cls-7{fill:#414451;}.cls-8{fill:#69b0ee;}.cls-9{fill:#dbd8dd;}</style></defs><g id="Layer_2" data-name="Layer 2"><g id="Layer_1-2" data-name="Layer 1"><circle class="cls-1" cx="26.74" cy="26.74" r="25.74"/><path class="cls-2" d="M36.24,20.59h-.82V17.37a7.52,7.52,0,0,0-7.51-7.51H25.47A7.53,7.53,0,0,0,18,17.37v3.22h-.81V17.37A8.33,8.33,0,0,1,25.47,9h2.44a8.34,8.34,0,0,1,8.33,8.33Z"/><path class="cls-3" d="M42.55,42H10.93c.4-9.87,9-11.72,11.18-12,.34-.05.53-.06.53-.06h8.2s.2,0,.55.06c2.26.32,10.76,2.19,11.16,12Z"/><path class="cls-4" d="M32.2,34.23l1.55,2L30.39,42h-7.3l-3.36-5.76,1.57-2-2.63-1.41L22.11,30c.34-.05.53-.06.53-.06h8.2s.2,0,.55.06l3.42,2.84Z"/><path class="cls-2" d="M27.84,42c5-11.09,2.1-14.59,3-12.1h-8.2s-1.09,3,3,12.1Z"/><path class="cls-5" d="M22.64,26.93V30l2.3,2.35h3.62L30.85,30V26.93Z"/><path class="cls-6" d="M33.83,23.22h0c-.51,4.27-3.52,7-7.14,7s-6.61-2.76-7.13-7h0c.05-.3.86-5.55,3.68-5.45a4.43,4.43,0,0,1,1.3.22,7.23,7.23,0,0,0,4.73-.06,2.42,2.42,0,0,1,.89-.16c2.8-.1,3.63,5.15,3.67,5.45Z"/><path class="cls-7" d="M34.88,18.25a12.52,12.52,0,0,1-1.05,5c0-.3-.87-5.55-3.67-5.45a2.42,2.42,0,0,0-.89.16,7.23,7.23,0,0,1-4.73.06,4.43,4.43,0,0,0-1.3-.22c-2.82-.1-3.63,5.15-3.68,5.45a12.89,12.89,0,0,1-1.06-5,8,8,0,0,1,2.26-5.58c1.52-1.49,3.35-1.92,5.93-1.89s4.42.4,5.95,1.89a8,8,0,0,1,2.24,5.58Z"/><path class="cls-3" d="M18.82,19.47a2,2,0,0,0-2,2v.9a2,2,0,0,0,2,2,.86.86,0,0,0,.86-.86h0v-3.2a.87.87,0,0,0-.86-.86Z"/><path class="cls-3" d="M19.68,20.33v3.2a.88.88,0,0,1-.86.86,1,1,0,0,1-.24,0,.86.86,0,0,0,.63-.83v-3.2a.85.85,0,0,0-.63-.82.5.5,0,0,1,.24,0,.85.85,0,0,1,.86.85Z"/><path class="cls-2" d="M33.73,26.55H29.32v-.7h4.41a1,1,0,0,0,1-1V24h.7v.8A1.74,1.74,0,0,1,33.73,26.55Z"/><path class="cls-3" d="M29.31,25.3h-.89a.91.91,0,0,0,0,1.82h.89a.91.91,0,1,0,0-1.82Z"/><path class="cls-8" d="M34.56,19.47a2,2,0,0,1,2,2v.9a2,2,0,0,1-2,2,.86.86,0,0,1-.86-.86h0v-3.2a.87.87,0,0,1,.86-.86Z"/><path class="cls-8" d="M33.7,20.33v3.2a.88.88,0,0,0,.86.86,1.07,1.07,0,0,0,.25,0,.86.86,0,0,1-.64-.83v-3.2a.84.84,0,0,1,.64-.82.54.54,0,0,0-.25,0,.86.86,0,0,0-.86.85Z"/><path class="cls-9" d="M22.64,29.5a8.32,8.32,0,0,0,4.09,2.85L24.1,34.06A3.7,3.7,0,0,1,22.64,29.5Z"/><path class="cls-9" d="M30.85,29.5a8.41,8.41,0,0,1-4.12,2.85l2.65,1.71A3.7,3.7,0,0,0,30.85,29.5Z"/><circle class="cls-3" cx="26.74" cy="33.79" r="0.45"/><circle class="cls-3" cx="26.74" cy="36.06" r="0.45"/><circle class="cls-3" cx="26.74" cy="38.32" r="0.45"/><circle class="cls-3" cx="26.74" cy="40.58" r="0.45"/></g></g></svg>