<svg xmlns="http://www.w3.org/2000/svg" viewBox="0 0 53.61 53.61"><defs><style>.cls-1{fill:#fff;stroke:#216244;stroke-miterlimit:10;stroke-width:2px;}.cls-2{fill:#308d62;}</style></defs><g id="Layer_2" data-name="Layer 2"><g id="Layer_1-2" data-name="Layer 1"><path class="cls-1" d="M52.61,26.8a25.66,25.66,0,0,1-5.36,15.74,26.11,26.11,0,0,1-3.77,4,25.79,25.79,0,0,1-32.09,1A25.87,25.87,0,0,1,1,26.8a25.81,25.81,0,0,1,51.61,0Z"/><path class="cls-2" d="M16.86,37.56l.19-.2a3.52,3.52,0,0,1,1.66-.51c.56-.09,1.34-.2,2.45-.33l.37,0,.28,0c.31-.16.39-1.43.39-2.77v-.3c0-.5,0-1,0-1.45v-.08c-.69.05-1.14.05-1.14.05-1.28-.1-2.08-3.38-2.36-6a8.57,8.57,0,0,1-.64-3,3.83,3.83,0,0,1,.82-2.54,3.62,3.62,0,0,1,.9-.77,2.25,2.25,0,0,1,.24-.21c1.19-1.27,6-6,9.19-3.27.08-.27,1.11-3.36,6.11-2.35-.31,0-2.53-.23-3.17.63.09,0,2-.86,3.24-.14a2.81,2.81,0,0,1,1.11,1.74h0s0,0,0,0,0,.19.07.29a.06.06,0,0,0,0,0v0h0a4.78,4.78,0,0,1,.06,1.82c-.19.75-1.57,3-2.48,3a2.69,2.69,0,0,1-1-.25,12.68,12.68,0,0,1,.37,1.3c1,4.39-2.07,7.72-3.64,6.89-1-.52-1.77,1.17-1.77,1.17h0c.15,3.21,1.06,5.3,1.74,5.83.25,0,.77.08,1.43.18h0a16.94,16.94,0,0,1,4.08,1l0,0a4.2,4.2,0,0,1,1,.53h0a1.21,1.21,0,0,1,.32.32.72.72,0,0,1,.11.15,25.9,25.9,0,0,1,1.75,4.59,21,21,0,0,1-25.28-.76A12.4,12.4,0,0,1,16.86,37.56Z"/></g></g></svg>