<svg xmlns="http://www.w3.org/2000/svg" viewBox="0 0 33.33 33.33"><defs><style>.cls-1{fill:#308d62}</style></defs><g id="Layer_2" data-name="Layer 2"><g id="Layer_1-2" data-name="Layer 1"><path class="cls-1" d="M33.14,10.87,29.81,7.54V.65A.65.65,0,0,0,29.16,0H19.57a.65.65,0,0,0,0,1.3h8.94V14.57L16.63,26.45,4.82,14.63V1.3h8.89a.65.65,0,0,0,0-1.3H4.17a.66.66,0,0,0-.66.65V7.54L.19,10.87a.64.64,0,0,0-.19.46V30.07a3.26,3.26,0,0,0,3.25,3.26H30.07a3.26,3.26,0,0,0,3.26-3.26V11.33A.64.64,0,0,0,33.14,10.87ZM32,30.07a1.82,1.82,0,0,1-.19.84L22.92,22,32,12.9ZM29.81,9.38l1.94,1.95-1.94,1.94ZM1.49,30.91a2,2,0,0,1-.19-.84V13L10.38,22Zm2-17.58-2-2,2-2ZM3.25,32a1.85,1.85,0,0,1-.84-.19L11.3,23l4.87,4.88a.68.68,0,0,0,.46.19.64.64,0,0,0,.46-.19L22,22.92l8.91,8.91a1.82,1.82,0,0,1-.84.19Z"/><path class="cls-1" d="M16.64,1.3a.65.65,0,0,0,.65-.65.65.65,0,1,0-1.11.46A.66.66,0,0,0,16.64,1.3Z"/><path class="cls-1" d="M10.51,7.89a7.05,7.05,0,0,0,1.84,9,7.21,7.21,0,0,0,4.16,1.5h0a.66.66,0,0,0,0-1.31A5.78,5.78,0,0,1,15,5.79a5.78,5.78,0,0,1,7.29,3.83A5,5,0,0,1,21.93,13a1.77,1.77,0,0,1-1.64,1.21.69.69,0,0,1-.47-.22,1,1,0,0,1-.29-.72V7.88a.65.65,0,0,0-1.3,0v.21a2.81,2.81,0,0,0-1.84-.67A3.55,3.55,0,0,0,13,11.23,4.32,4.32,0,0,0,14,14a3,3,0,0,0,2.34,1.18,2.85,2.85,0,0,0,2.11-1,2.34,2.34,0,0,0,.47.69,1.94,1.94,0,0,0,1.39.6,3.08,3.08,0,0,0,2.85-2,6.39,6.39,0,0,0,.36-4.2v0a7.07,7.07,0,0,0-13-1.36Zm5.81,6c-1.09,0-2-1.18-2-2.64a2.28,2.28,0,0,1,2.05-2.51c1.08,0,1.83,1,1.83,2.49s-.85,2.66-1.9,2.66Z"/></g></g></svg>