<svg xmlns="http://www.w3.org/2000/svg" viewBox="0 0 256.4 256.46"><g id="Layer_2" data-name="Layer 2"><g id="Layer_1-2" data-name="Layer 1"><path d="M256.27,128.23c0,17.67-.46,35.35.1,53,1.21,38.37-35.88,75.9-74.91,75.22q-53.22-.93-106.47,0c-39,.67-75.8-36.8-75-75.21q1.14-53,0-106C-.82,36.87,36-.66,75,0q53.22.92,106.47,0c39-.69,76.12,36.85,74.91,75.21C255.81,92.87,256.27,110.56,256.27,128.23ZM20.2,128c0,17.66.54,35.35-.12,53-1,27.73,27,56,55.18,55.45q53-.94,106,0c27.88.55,55.74-27.69,55.2-55-.7-35.49-.63-71,0-106.49.46-27.34-26.9-55.32-54.71-54.92q-53.46.76-107,0c-27.37-.43-55.6,27.58-54.64,55C20.71,92.64,20.2,110.33,20.2,128Z"/><path d="M103.33,118.22h69c1.83,0,3.67-.08,5.49,0,5.8.34,9.68,4.39,9.68,10a9.65,9.65,0,0,1-9.72,9.94c-6.49.22-13,.08-19.49.08-17.8,0-35.59,0-54.71,0,5.29,5.33,9.76,9.85,14.25,14.36,2.35,2.36,4.76,4.67,7,7.09,4.65,4.88,4.87,11,.64,15.08s-10.07,3.71-14.71-.85c-8.67-8.53-17.22-17.19-25.83-25.79-4-4-8.11-7.93-12-12-5.11-5.33-5.15-10.55,0-15.79q18.81-19,37.82-37.83c4.74-4.68,11-4.74,15.07-.45,3.86,4.06,3.53,10.06-1,14.72C118.06,103.65,111.18,110.39,103.33,118.22Z"/></g></g></svg>