<svg xmlns="http://www.w3.org/2000/svg" viewBox="0 0 255.94 128.07"><defs></defs><g id="Layer_2" data-name="Layer 2"><g id="Layer_1-2" data-name="Layer 1"><path class="cls-1" d="M127.93.05q58,0,115.91,0a30.59,30.59,0,0,1,5,.11c4.32.71,6.84,3.33,7.09,7.74A7.85,7.85,0,0,1,248.65,16a37.35,37.35,0,0,1-4.49.08H11.85c-.83,0-1.66,0-2.5,0C3.51,15.93-.06,12.84,0,8S3.63.07,9.53.06Q68.74,0,127.93.05Z"/><path class="cls-1" d="M127.39,72.07H12a28.49,28.49,0,0,1-5-.12C2.7,71.17.09,68.52.06,64.1S2.62,57,6.91,56.18a24,24,0,0,1,4.49-.13H244.7a21.53,21.53,0,0,1,4.48.16c4.27.91,6.78,3.63,6.7,8.05-.08,4.18-2.57,6.77-6.61,7.62a24.27,24.27,0,0,1-5,.18Z"/><path class="cls-1" d="M167.92,128.07c-25.81,0-51.61,0-77.41-.06-2.25,0-5.3,0-6.57-1.39-1.92-2.05-4-5.61-3.46-7.89.63-2.56,3.94-4.7,6.48-6.45,1.14-.79,3.24-.23,4.9-.23H245.68c6.62,0,10.37,3,10.26,8.18-.12,5-3.73,7.82-10.12,7.83Q206.87,128.09,167.92,128.07Z"/></g></g></svg>