<svg xmlns="http://www.w3.org/2000/svg" viewBox="0 0 34.06 33.79"><defs><style>.cls-1{fill:#308d62}</style></defs><g id="Layer_2" data-name="Layer 2"><g id="Layer_1-2" data-name="Layer 1"><path class="cls-1" d="M18.5,0a3.93,3.93,0,0,1,2,4c0,.41-.1.79-.61.77s-.55-.37-.55-.76,0-.71,0-1.06a2.18,2.18,0,0,0-1-1.76c-.9-.58-1.39-.45-1.85.49-.27.53-.53,1.07-.81,1.6A1.67,1.67,0,0,1,14,4.27H6.39a1.63,1.63,0,0,1-1.54-1c-.35-.67-.64-1.36-1-2A.88.88,0,0,0,3.17.92a2.14,2.14,0,0,0-2,1.85,7.53,7.53,0,0,0-.05,1.06V29.89c0,1.93.81,2.74,2.74,2.74H16.6c1.72,0,2.37-.56,2.73-2.24,0-.23.38-.39.58-.58.18.24.5.48.5.72a3.28,3.28,0,0,1-3.17,3.23q-7,.06-14,0A3.32,3.32,0,0,1,0,30.4c0-2.11,0-4.21,0-6.32,0-6.8,0-13.6,0-20.41A3.8,3.8,0,0,1,2,0Zm-3,1H5c.32.64.56,1.22.89,1.74a1.05,1.05,0,0,0,.73.43q3.64,0,7.31,0a.88.88,0,0,0,.66-.32C14.9,2.24,15.17,1.62,15.51,1Z"/><path class="cls-1" d="M22.74,6c2.57,0,5.14,0,7.71,0a3.4,3.4,0,0,1,3.61,3.63V25a3.4,3.4,0,0,1-3.6,3.65q-7.74,0-15.48,0a3.42,3.42,0,0,1-3.63-3.62c0-.91,0-1.82,0-2.73a.94.94,0,0,0-.6-1C9,20.38,7.21,19.41,5.42,18.47c-.47-.25-.87-.55-.87-1.14a1.28,1.28,0,0,1,.86-1.15c1.82-1,3.63-1.94,5.46-2.89a.79.79,0,0,0,.49-.82c0-1,0-2,0-2.93A3.42,3.42,0,0,1,15,6C17.56,6,20.15,6,22.74,6ZM5.7,17.32c2.1,1.13,4.08,2.21,6.09,3.24a1.17,1.17,0,0,1,.73,1.25c0,1.06,0,2.13,0,3.19a2.28,2.28,0,0,0,2.56,2.53H30.29c1.77,0,2.62-.83,2.62-2.59q0-7.6,0-15.22a2.32,2.32,0,0,0-2.64-2.6c-1.41,0-2.83,0-4.25,0H15.13a2.29,2.29,0,0,0-2.62,2.6c0,.93-.06,1.87,0,2.79a1.56,1.56,0,0,1-1,1.75C9.57,15.21,7.7,16.26,5.7,17.32Z"/><path class="cls-1" d="M10.21,31.51H6c-.41,0-.79-.07-.8-.56s.37-.59.79-.59h8.57c.4,0,.8.06.8.57s-.42.59-.85.59Z"/><path class="cls-1" d="M20,16.11,23.94,20c.46-.54.78-1,1.15-1.34a2.28,2.28,0,0,1,3.33,0c.53.5,1,1,1.55,1.55a2.22,2.22,0,0,1-.09,3.31c-2.15,1.94-4.65,2.09-7.28,1.26a7.56,7.56,0,0,1-2-1,16.31,16.31,0,0,1-4.44-4.44,7.64,7.64,0,0,1-.77-7.7,6.05,6.05,0,0,1,1.09-1.57A2.23,2.23,0,0,1,19.7,10a25,25,0,0,1,1.79,1.78,2.19,2.19,0,0,1,0,3.07C21.05,15.25,20.59,15.59,20,16.11Zm5.16,8.11a5.76,5.76,0,0,0,3.92-1.48,1.1,1.1,0,0,0,.09-1.7c-.51-.55-1.05-1.08-1.6-1.6a1.14,1.14,0,0,0-1.66,0c-.35.33-.68.7-1,1a1.27,1.27,0,0,1-1.74.14,15.63,15.63,0,0,1-3.74-3.74,1.29,1.29,0,0,1,.13-1.75c.32-.34.66-.65,1-1a1.16,1.16,0,0,0,0-1.8c-.42-.44-.85-.85-1.27-1.27-.85-.84-1.47-.82-2.2.15A5.69,5.69,0,0,0,16.31,17a12.06,12.06,0,0,0,6.49,6.67A11.46,11.46,0,0,0,25.16,24.22Z"/></g></g></svg>