<svg xmlns="http://www.w3.org/2000/svg" viewBox="0 0 39.22 35.55"><defs><style>.cls-1</style></defs><g id="Layer_2" data-name="Layer 2"><g id="Layer_1-2" data-name="Layer 1"><path class="cls-1" d="M39.17,9l-1-4.15A3.76,3.76,0,0,0,35.22,2l-4.78-.95A55.27,55.27,0,0,0,9.36,1a.57.57,0,1,0,.21,1.12,54.65,54.65,0,0,1,20.65.11l4.78,1a2.62,2.62,0,0,1,2,1.94l.88,3.59L28.8,6.94a1.37,1.37,0,0,0-1.21-.74h-.8V5.93a1.22,1.22,0,0,0-1.21-1.21H23.65a1.21,1.21,0,0,0-1.21,1.21V6.2H16.78V5.93a1.21,1.21,0,0,0-1.21-1.21H13.65a1.22,1.22,0,0,0-1.22,1.21V6.2h-.79a1.38,1.38,0,0,0-1.22.74L1.31,8.68l.88-3.59a2.63,2.63,0,0,1,2-1.94l2.72-.54a.58.58,0,0,0-.23-1.13L4,2A3.77,3.77,0,0,0,1.08,4.81L.05,9a1.88,1.88,0,0,0,.06,1l.72,1.91a1.77,1.77,0,0,0,1.65,1.15l.34,0L9.5,11.78a1.79,1.79,0,0,0,1.42-1.43l.5-2.81a.22.22,0,0,1,.22-.19h.79v4.57h-.62A1.77,1.77,0,0,0,10.17,13L4.36,27.33a1.7,1.7,0,0,0-.13.67v5.77A1.78,1.78,0,0,0,6,35.55H21.37a.58.58,0,0,0,.57-.58.57.57,0,0,0-.57-.57H6a.63.63,0,0,1-.62-.63V28a.67.67,0,0,1,0-.24l5.81-14.3a.64.64,0,0,1,.58-.39h15.6a.64.64,0,0,1,.58.39l2.14,5.27a.57.57,0,1,0,1.06-.43L29.05,13a1.77,1.77,0,0,0-1.64-1.11h-.62V7.35h.8a.21.21,0,0,1,.21.19l.51,2.81a1.77,1.77,0,0,0,1.41,1.43L36.4,13l.34,0a1.77,1.77,0,0,0,1.65-1.15L39.11,10a1.79,1.79,0,0,0,.06-1ZM9.29,10.65,2.6,11.91a.61.61,0,0,1-.69-.39L1.28,9.85l8.86-1.68-.36,2A.62.62,0,0,1,9.29,10.65Zm13.15-3.3V8.58a.07.07,0,0,1-.07.06H16.85a.07.07,0,0,1-.07-.06V7.35Zm-8.86,4.57v-6a.07.07,0,0,1,.07-.06h1.92a.06.06,0,0,1,.06.06V8.58a1.22,1.22,0,0,0,1.22,1.21h5.52a1.22,1.22,0,0,0,1.22-1.21V5.93a.06.06,0,0,1,.06-.06h1.93a.06.06,0,0,1,.06.06v6Zm23,0-6.69-1.26a.62.62,0,0,1-.49-.5l-.36-2,8.86,1.68-.63,1.67A.6.6,0,0,1,36.62,11.91Z"/><path class="cls-1" d="M32.2,20.78a.57.57,0,0,0-.75-.31.57.57,0,0,0-.31.74l2.66,6.55a.67.67,0,0,1,0,.24v5.77a.63.63,0,0,1-.62.63H24.05a.57.57,0,0,0-.58.57.58.58,0,0,0,.58.58h9.17A1.78,1.78,0,0,0,35,33.77V28a1.7,1.7,0,0,0-.13-.67Z"/><path class="cls-1" d="M19.61,32.71a9,9,0,1,0-8.32-12.35.57.57,0,1,0,1.06.43,7.84,7.84,0,1,1-.57,2.95c0-.17,0-.34,0-.51a.58.58,0,0,0-.54-.61.57.57,0,0,0-.61.54c0,.19,0,.38,0,.58a9,9,0,0,0,9,9Z"/><path class="cls-1" d="M19.61,25.71a2,2,0,1,0-2-2A2,2,0,0,0,19.61,25.71Zm0-2.8a.83.83,0,1,1-.83.83A.83.83,0,0,1,19.61,22.91Z"/><path class="cls-1" d="M19.61,20.55a1.7,1.7,0,1,0-1.69-1.7A1.7,1.7,0,0,0,19.61,20.55Zm0-2.24a.55.55,0,0,1,.55.54.55.55,0,0,1-1.1,0A.55.55,0,0,1,19.61,18.31Z"/><path class="cls-1" d="M15.38,23a1.7,1.7,0,1,0-1.69-1.7A1.7,1.7,0,0,0,15.38,23Zm0-2.24a.55.55,0,1,1,0,1.09.55.55,0,0,1,0-1.09Z"/><path class="cls-1" d="M15.38,27.87a1.7,1.7,0,1,0-1.69-1.69A1.7,1.7,0,0,0,15.38,27.87Zm0-2.24a.55.55,0,0,1,.55.55.55.55,0,0,1-.55.54.54.54,0,0,1-.54-.54A.55.55,0,0,1,15.38,25.63Z"/><path class="cls-1" d="M19.61,30.31a1.7,1.7,0,1,0-1.69-1.69A1.7,1.7,0,0,0,19.61,30.31Zm0-2.24a.55.55,0,0,1,.55.55.55.55,0,0,1-1.1,0A.55.55,0,0,1,19.61,28.07Z"/><path class="cls-1" d="M23.84,27.87a1.7,1.7,0,1,0-1.7-1.69A1.69,1.69,0,0,0,23.84,27.87Zm0-2.24a.55.55,0,0,1,.54.55.54.54,0,0,1-.54.54.55.55,0,0,1-.55-.54A.55.55,0,0,1,23.84,25.63Z"/><path class="cls-1" d="M23.84,23a1.7,1.7,0,1,0-1.7-1.69A1.69,1.69,0,0,0,23.84,23Zm0-2.24a.55.55,0,0,1,.54.55.54.54,0,0,1-.54.54.55.55,0,0,1-.55-.54A.55.55,0,0,1,23.84,20.75Z"/><path class="cls-1" d="M7.32,31.11a.58.58,0,0,0,0,1.15h3.37a.58.58,0,0,0,0-1.15Z"/></g></g></svg>